{
copyright = "Copyright \U00A9 2019 IBM Corp. with Reserved Font Name \"Plex\"\012This Font Software is licensed under the SIL Open Font License, Version 1.1.\012This license is copied below, and is also available with a FAQ at: http://scripts.sil.org/OFL.";
customParameters = (
{
name = licenseURL;
value = "http://scripts.sil.org/OFL";
},
{
name = vendorID;
value = "";
},
{
name = glyphOrder;
value = (
    ".notdef",
    uni0000,
    uni000D,
    space,
    a,
    b,
    c,
    d,
    e,
    f,
    g,
    "g.alt02",
    h,
    i,
    j,
    k,
    l,
    m,
    n,
    o,
    p,
    q,
    r,
    s,
    t,
    u,
    v,
    w,
    x,
    y,
    z,
    A,
    B,
    C,
    D,
    E,
    F,
    G,
    H,
    I,
    J,
    K,
    L,
    M,
    N,
    O,
    P,
    Q,
    R,
    S,
    T,
    U,
    V,
    W,
    X,
    Y,
    Z,
    zero,
    one,
    two,
    three,
    four,
    five,
    six,
    seven,
    eight,
    nine,
    ampersand,
    at,
    hyphen,
    uni00AD,
    endash,
    emdash,
    underscore,
    period,
    ellipsis,
    colon,
    comma,
    semicolon,
    quotesingle,
    quotedbl,
    quoteleft,
    quoteright,
    quotedblleft,
    quotedblright,
    quotesinglbase,
    quotedblbase,
    guilsinglleft,
    guilsinglright,
    guillemotleft,
    guillemotright,
    exclamdown,
    exclam,
    questiondown,
    question,
    parenleft,
    parenright,
    bracketleft,
    bracketright,
    braceleft,
    braceright,
    slash,
    backslash,
    fraction,
    percent,
    perthousand,
    bar,
    brokenbar,
    section,
    paragraph,
    copyright,
    registered,
    trademark,
    ordfeminine,
    ordmasculine,
    degree,
    asterisk,
    dagger,
    daggerdbl,
    numbersign,
    asciicircum,
    asciitilde,
    plus,
    minus,
    plusminus,
    multiply,
    divide,
    equal,
    approxequal,
    notequal,
    less,
    greater,
    lessequal,
    greaterequal,
    periodcentered,
    bullet,
    lozenge,
    logicalnot,

glyphs = (
{
glyphname = .notdef;
layers = (
{
layerId = "05A52B16-A306-40FB-AA4D-96EE9622F9E6";
name = "Bold Italic";
paths = (
{
closed = 1;
nodes = (
"32 0 LINE",
"32 780 LINE",
"440 780 LINE",
"440 0 LINE"
);
},
{
closed = 1;
nodes = (
"132 100 LINE",
"340 100 LINE",
"340 680 LINE",
"132 680 LINE"
);
}
);
width = 472;
}
);
},
{
glyphname = a;
layers = (
{
layerId = "05A52B16-A306-40FB-AA4D-96EE9622F9E6";
name = "Bold Italic";
paths = (
{
closed = 1;
nodes = (
"430 0 LINE SMOOTH",
"379 0 OFFCURVE",
"342 28 OFFCURVE",
"342 77 CURVE SMOOTH",
"342 88 OFFCURVE",
"344 102 OFFCURVE",
"345 107 CURVE SMOOTH",
"348 122 LINE",
"342 122 LINE",
"301 37 OFFCURVE",
"254 -12 OFFCURVE",
"171 -12 CURVE SMOOTH",
"122 -12 OFFCURVE",
"87 7 OFFCURVE",
"64 40 CURVE SMOOTH",
"41 72 OFFCURVE",
"31 118 OFFCURVE",
"31 170 CURVE SMOOTH",
"31 282 OFFCURVE",
"59 373 OFFCURVE",
"103 437 CURVE SMOOTH",
"147 501 OFFCURVE",
"208 537 OFFCURVE",
"275 537 CURVE SMOOTH",
"348 537 OFFCURVE",
"399 491 OFFCURVE",
"406 434 CURVE",
"411 434 LINE",
"429 525 LINE",
"569 525 LINE",
"486 112 LINE",
"545 112 LINE",
"523 0 LINE"
);
},
{
closed = 1;
nodes = (
"276 103 OFFCURVE",
"306 124 OFFCURVE",
"327 151 CURVE",
"350 178 OFFCURVE",
"367 216 OFFCURVE",
"375 255 CURVE SMOOTH",
"391 335 LINE SMOOTH",
"402 384 OFFCURVE",
"368 422 OFFCURVE",
"309 422 CURVE SMOOTH",
"248 422 OFFCURVE",
"210 383 OFFCURVE",
"194 305 CURVE SMOOTH",
"180 235 LINE SMOOTH",
"177 220 OFFCURVE",
"174 194 OFFCURVE",
"174 178 CURVE SMOOTH",
"174 131 OFFCURVE",
"199 103 OFFCURVE",
"240 103 CURVE SMOOTH"
);
}
);
width = 591;
}
);
leftKerningGroup = a;
rightKerningGroup = a;
unicode = 0061;
},
{
glyphname = b;
layers = (
{
layerId = "05A52B16-A306-40FB-AA4D-96EE9622F9E6";
name = "Bold Italic";
paths = (
{
closed = 1;
nodes = (
"162 740 LINE",
"302 740 LINE",
"235 403 LINE",
"241 403 LINE",
"282 488 OFFCURVE",
"329 537 OFFCURVE",
"412 537 CURVE SMOOTH",
"461 537 OFFCURVE",
"496 518 OFFCURVE",
"519 486 CURVE SMOOTH",
"542 453 OFFCURVE",
"552 407 OFFCURVE",
"552 355 CURVE SMOOTH",
"552 243 OFFCURVE",
"524 152 OFFCURVE",
"480 88 CURVE SMOOTH",
"436 24 OFFCURVE",
"375 -12 OFFCURVE",
"308 -12 CURVE SMOOTH",
"235 -12 OFFCURVE",
"184 34 OFFCURVE",
"177 91 CURVE",
"172 91 LINE",
"154 0 LINE",
"14 0 LINE"
);
},
{
closed = 1;
nodes = (
"335 103 OFFCURVE",
"373 142 OFFCURVE",
"389 220 CURVE SMOOTH",
"403 290 LINE SMOOTH",
"406 305 OFFCURVE",
"409 331 OFFCURVE",
"409 347 CURVE SMOOTH",
"409 394 OFFCURVE",
"384 422 OFFCURVE",
"343 422 CURVE SMOOTH",
"307 422 OFFCURVE",
"277 401 OFFCURVE",
"256 374 CURVE",
"233 347 OFFCURVE",
"216 309 OFFCURVE",
"208 270 CURVE SMOOTH",
"192 190 LINE SMOOTH",
"181 137 OFFCURVE",
"215 103 OFFCURVE",
"274 103 CURVE SMOOTH"
);
}
);
width = 583;
}
);
leftKerningGroup = b;
rightKerningGroup = b;
unicode = 0062;
},
{
glyphname = c;
layers = (
{
layerId = "05A52B16-A306-40FB-AA4D-96EE9622F9E6";
name = "Bold Italic";
paths = (
{
closed = 1;
nodes = (
"180 -12 OFFCURVE",
"128 4 OFFCURVE",
"91 41 CURVE SMOOTH",
"54 77 OFFCURVE",
"31 134 OFFCURVE",
"31 215 CURVE SMOOTH",
"31 308 OFFCURVE",
"61 389 OFFCURVE",
"111 446 CURVE SMOOTH",
"161 503 OFFCURVE",
"230 537 OFFCURVE",
"310 537 CURVE SMOOTH",
"359 537 OFFCURVE",
"404 524 OFFCURVE",
"437 500 CURVE SMOOTH",
"469 476 OFFCURVE",
"491 442 OFFCURVE",
"498 401 CURVE",
"380 356 LINE",
"368 397 OFFCURVE",
"353 424 OFFCURVE",
"302 424 CURVE SMOOTH",
"244 424 OFFCURVE",
"208 387 OFFCURVE",
"193 314 CURVE SMOOTH",
"175 225 LINE SMOOTH",
"172 210 OFFCURVE",
"170 196 OFFCURVE",
"170 183 CURVE SMOOTH",
"170 134 OFFCURVE",
"193 101 OFFCURVE",
"249 101 CURVE SMOOTH",
"276 101 OFFCURVE",
"295 109 OFFCURVE",
"311 124 CURVE SMOOTH",
"326 139 OFFCURVE",
"338 159 OFFCURVE",
"353 184 CURVE",
"460 134 LINE",
"413 37 OFFCURVE",
"337 -12 OFFCURVE",
"237 -12 CURVE SMOOTH"
);
}
);
width = 494;
}
);
leftKerningGroup = c;
rightKerningGroup = c;
unicode = 0063;
},
{
glyphname = d;
layers = (
{
layerId = "05A52B16-A306-40FB-AA4D-96EE9622F9E6";
name = "Bold Italic";
paths = (
{
closed = 1;
nodes = (
"430 0 LINE SMOOTH",
"379 0 OFFCURVE",
"342 28 OFFCURVE",
"342 77 CURVE SMOOTH",
"342 88 OFFCURVE",
"344 102 OFFCURVE",
"345 107 CURVE SMOOTH",
"348 122 LINE",
"342 122 LINE",
"301 37 OFFCURVE",
"254 -12 OFFCURVE",
"171 -12 CURVE SMOOTH",
"122 -12 OFFCURVE",
"87 7 OFFCURVE",
"64 40 CURVE SMOOTH",
"41 72 OFFCURVE",
"31 118 OFFCURVE",
"31 170 CURVE SMOOTH",
"31 282 OFFCURVE",
"59 373 OFFCURVE",
"103 437 CURVE SMOOTH",
"147 501 OFFCURVE",
"208 537 OFFCURVE",
"275 537 CURVE SMOOTH",
"348 537 OFFCURVE",
"399 491 OFFCURVE",
"406 434 CURVE",
"411 434 LINE",
"472 740 LINE",
"612 740 LINE",
"486 112 LINE",
"545 112 LINE",
"523 0 LINE"
);
},
{
closed = 1;
nodes = (
"276 103 OFFCURVE",
"306 124 OFFCURVE",
"327 151 CURVE",
"350 178 OFFCURVE",
"367 216 OFFCURVE",
"375 255 CURVE SMOOTH",
"391 335 LINE SMOOTH",
"402 388 OFFCURVE",
"368 422 OFFCURVE",
"309 422 CURVE SMOOTH",
"248 422 OFFCURVE",
"210 383 OFFCURVE",
"194 305 CURVE SMOOTH",
"180 235 LINE SMOOTH",
"177 220 OFFCURVE",
"174 194 OFFCURVE",
"174 178 CURVE SMOOTH",
"174 131 OFFCURVE",
"199 103 OFFCURVE",
"240 103 CURVE SMOOTH"
);
}
);
width = 591;
}
);
leftKerningGroup = a;
rightKerningGroup = d;
unicode = 0064;
},
{
glyphname = e;
layers = (
{
layerId = "05A52B16-A306-40FB-AA4D-96EE9622F9E6";
name = "Bold Italic";
paths = (
{
closed = 1;
nodes = (
"104 -12 OFFCURVE",
"31 74 OFFCURVE",
"31 214 CURVE SMOOTH",
"31 298 OFFCURVE",
"59 379 OFFCURVE",
"108 439 CURVE SMOOTH",
"157 498 OFFCURVE",
"229 537 OFFCURVE",
"316 537 CURVE SMOOTH",
"356 537 OFFCURVE",
"403 529 OFFCURVE",
"440 507 CURVE SMOOTH",
"476 485 OFFCURVE",
"504 448 OFFCURVE",
"504 391 CURVE SMOOTH",
"504 336 OFFCURVE",
"479 293 OFFCURVE",
"426 262 CURVE SMOOTH",
"373 230 OFFCURVE",
"289 212 OFFCURVE",
"172 208 CURVE",
"171 202 OFFCURVE",
"170 197 OFFCURVE",
"170 194 CURVE SMOOTH",
"170 191 OFFCURVE",
"170 188 OFFCURVE",
"170 185 CURVE SMOOTH",
"170 134 OFFCURVE",
"194 101 OFFCURVE",
"263 101 CURVE SMOOTH",
"308 101 OFFCURVE",
"344 115 OFFCURVE",
"391 174 CURVE",
"477 106 LINE",
"412 19 OFFCURVE",
"344 -12 OFFCURVE",
"253 -12 CURVE SMOOTH"
);
},
{
closed = 1;
nodes = (
"248 430 OFFCURVE",
"203 388 OFFCURVE",
"191 320 CURVE SMOOTH",
"187 297 LINE",
"262 301 OFFCURVE",
"307 311 OFFCURVE",
"334 325 CURVE SMOOTH",
"361 339 OFFCURVE",
"368 356 OFFCURVE",
"368 377 CURVE SMOOTH",
"368 400 OFFCURVE",
"359 413 OFFCURVE",
"347 421 CURVE",
"335 428 OFFCURVE",
"320 430 OFFCURVE",
"308 430 CURVE SMOOTH"
);
}
);
width = 515;
}
);
leftKerningGroup = c;
rightKerningGroup = e;
unicode = 0065;
},
{
glyphname = f;
layers = (
{
layerId = "05A52B16-A306-40FB-AA4D-96EE9622F9E6";
name = "Bold Italic";
paths = (
{
closed = 1;
nodes = (
"181 -50 LINE SMOOTH",
"161 -150 OFFCURVE",
"97 -200 OFFCURVE",
"-11 -200 CURVE SMOOTH",
"-87 -200 LINE",
"-63 -88 LINE",
"33 -88 LINE",
"133 413 LINE",
"64 413 LINE",
"86 525 LINE",
"155 525 LINE",
"168 590 LINE SMOOTH",
"188 690 OFFCURVE",
"252 740 OFFCURVE",
"360 740 CURVE SMOOTH",
"436 740 LINE",
"412 628 LINE",
"316 628 LINE",
"296 525 LINE",
"398 525 LINE",
"376 413 LINE",
"273 413 LINE"
);
}
);
width = 353;
}
);
leftKerningGroup = f;
rightKerningGroup = f;
unicode = 0066;
},
{
glyphname = g;
lastChange = "2018-11-07 05:00:09 +0000";
layers = (
{
layerId = "05A52B16-A306-40FB-AA4D-96EE9622F9E6";
name = "Bold Italic";
paths = (
{
closed = 1;
nodes = (
"255 2 OFFCURVE",
"303 51 OFFCURVE",
"344 136 CURVE",
"350 136 LINE",
"328 26 LINE SMOOTH",
"312 -55 OFFCURVE",
"272 -100 OFFCURVE",
"203 -100 CURVE SMOOTH",
"152 -100 OFFCURVE",
"110 -75 OFFCURVE",
"85 -37 CURVE",
"-4 -118 LINE",
"47 -187 OFFCURVE",
"119 -212 OFFCURVE",
"207 -212 CURVE SMOOTH",
"368 -212 OFFCURVE",
"438 -128 OFFCURVE",
"467 19 CURVE SMOOTH",
"568 525 LINE",
"428 525 LINE",
"410 434 LINE",
"405 434 LINE",
"398 491 OFFCURVE",
"347 537 OFFCURVE",
"274 537 CURVE SMOOTH",
"140 537 OFFCURVE",
"33 407 OFFCURVE",
"33 184 CURVE SMOOTH",
"33 79 OFFCURVE",
"75 2 OFFCURVE",
"173 2 CURVE SMOOTH"
);
},
{
closed = 1;
nodes = (
"201 117 OFFCURVE",
"176 145 OFFCURVE",
"176 192 CURVE SMOOTH",
"176 208 OFFCURVE",
"179 235 OFFCURVE",
"182 249 CURVE SMOOTH",
"193 305 LINE SMOOTH",
"209 384 OFFCURVE",
"246 422 OFFCURVE",
"308 422 CURVE SMOOTH",
"372 422 OFFCURVE",
"398 377 OFFCURVE",
"390 335 CURVE SMOOTH",
"377 269 LINE SMOOTH",
"369 230 OFFCURVE",
"351 192 OFFCURVE",
"329 165 CURVE SMOOTH",
"308 139 OFFCURVE",
"278 117 OFFCURVE",
"242 117 CURVE SMOOTH"
);
}
);
width = 572;
}
);
leftKerningGroup = g;
rightKerningGroup = g;
unicode = 0067;
},
{
glyphname = h;
layers = (
{
layerId = "05A52B16-A306-40FB-AA4D-96EE9622F9E6";
name = "Bold Italic";
paths = (
{
closed = 1;
nodes = (
"162 740 LINE",
"302 740 LINE",
"235 403 LINE",
"241 403 LINE",
"281 487 OFFCURVE",
"332 537 OFFCURVE",
"415 537 CURVE SMOOTH",
"496 537 OFFCURVE",
"541 488 OFFCURVE",
"541 401 CURVE SMOOTH",
"541 376 OFFCURVE",
"537 354 OFFCURVE",
"532 327 CURVE SMOOTH",
"489 112 LINE",
"542 112 LINE",
"520 0 LINE",
"429 0 LINE SMOOTH",
"376 0 OFFCURVE",
"345 29 OFFCURVE",
"345 76 CURVE SMOOTH",
"345 88 OFFCURVE",
"347 99 OFFCURVE",
"348 104 CURVE SMOOTH",
"389 312 LINE SMOOTH",
"393 331 OFFCURVE",
"396 348 OFFCURVE",
"396 368 CURVE SMOOTH",
"396 399 OFFCURVE",
"382 420 OFFCURVE",
"343 420 CURVE SMOOTH",
"308 420 OFFCURVE",
"281 399 OFFCURVE",
"258 372 CURVE SMOOTH",
"234 344 OFFCURVE",
"216 310 OFFCURVE",
"208 270 CURVE SMOOTH",
"154 0 LINE",
"14 0 LINE"
);
}
);
width = 588;
}
);
leftKerningGroup = b;
rightKerningGroup = h;
unicode = 0068;
},
{
glyphname = i;
layers = (
{
layerId = "05A52B16-A306-40FB-AA4D-96EE9622F9E6";
name = "Bold Italic";
paths = (
{
closed = 1;
nodes = (
"153 583 OFFCURVE",
"130 603 OFFCURVE",
"130 635 CURVE SMOOTH",
"130 647 OFFCURVE",
"133 663 OFFCURVE",
"136 675 CURVE SMOOTH",
"140 692 OFFCURVE",
"147 711 OFFCURVE",
"162 724 CURVE SMOOTH",
"177 737 OFFCURVE",
"199 747 OFFCURVE",
"232 747 CURVE SMOOTH",
"281 747 OFFCURVE",
"304 727 OFFCURVE",
"304 695 CURVE SMOOTH",
"304 683 OFFCURVE",
"301 667 OFFCURVE",
"298 655 CURVE SMOOTH",
"294 638 OFFCURVE",
"287 619 OFFCURVE",
"272 606 CURVE SMOOTH",
"257 593 OFFCURVE",
"235 583 OFFCURVE",
"202 583 CURVE SMOOTH"
);
},
{
closed = 1;
nodes = (
"122 0 LINE SMOOTH",
"67 0 OFFCURVE",
"32 32 OFFCURVE",
"32 80 CURVE SMOOTH",
"32 87 OFFCURVE",
"33 95 OFFCURVE",
"35 105 CURVE SMOOTH",
"119 525 LINE",
"259 525 LINE",
"176 112 LINE",
"235 112 LINE",
"213 0 LINE"
);
}
);
width = 281;
}
);
leftKerningGroup = i;
rightKerningGroup = i;
unicode = 0069;
},
{
glyphname = j;
layers = (
{
layerId = "05A52B16-A306-40FB-AA4D-96EE9622F9E6";
name = "Bold Italic";
paths = (
{
closed = 1;
nodes = (
"123 525 LINE",
"263 525 LINE",
"144 -61 LINE SMOOTH",
"125 -153 OFFCURVE",
"79 -200 OFFCURVE",
"-18 -200 CURVE SMOOTH",
"-97 -200 LINE",
"-75 -88 LINE",
"0 -88 LINE"
);
},
{
closed = 1;
nodes = (
"157 583 OFFCURVE",
"134 603 OFFCURVE",
"134 635 CURVE SMOOTH",
"134 647 OFFCURVE",
"137 663 OFFCURVE",
"140 675 CURVE SMOOTH",
"144 692 OFFCURVE",
"151 711 OFFCURVE",
"166 724 CURVE SMOOTH",
"181 737 OFFCURVE",
"203 747 OFFCURVE",
"236 747 CURVE SMOOTH",
"285 747 OFFCURVE",
"308 727 OFFCURVE",
"308 695 CURVE SMOOTH",
"308 683 OFFCURVE",
"305 667 OFFCURVE",
"302 655 CURVE SMOOTH",
"298 638 OFFCURVE",
"291 619 OFFCURVE",
"276 606 CURVE SMOOTH",
"261 593 OFFCURVE",
"239 583 OFFCURVE",
"206 583 CURVE SMOOTH"
);
}
);
width = 276;
}
);
leftKerningGroup = j;
rightKerningGroup = j;
unicode = 006A;
},
{
glyphname = k;
layers = (
{
layerId = "05A52B16-A306-40FB-AA4D-96EE9622F9E6";
name = "Bold Italic";
paths = (
{
closed = 1;
nodes = (
"162 740 LINE",
"302 740 LINE",
"215 305 LINE",
"222 305 LINE",
"294 395 LINE",
"420 525 LINE",
"583 525 LINE",
"370 312 LINE",
"442 112 LINE",
"503 112 LINE",
"479 0 LINE",
"404 0 LINE SMOOTH",
"355 0 OFFCURVE",
"322 26 OFFCURVE",
"305 79 CURVE SMOOTH",
"261 216 LINE",
"182 142 LINE",
"154 0 LINE",
"14 0 LINE"
);
}
);
width = 550;
}
);
leftKerningGroup = b;
rightKerningGroup = k;
unicode = 006B;
},
{
glyphname = l;
layers = (
{
layerId = "05A52B16-A306-40FB-AA4D-96EE9622F9E6";
name = "Bold Italic";
paths = (
{
closed = 1;
nodes = (
"122 0 LINE SMOOTH",
"67 0 OFFCURVE",
"32 32 OFFCURVE",
"32 80 CURVE SMOOTH",
"32 87 OFFCURVE",
"33 95 OFFCURVE",
"35 105 CURVE SMOOTH",
"162 740 LINE",
"302 740 LINE",
"176 112 LINE",
"238 112 LINE",
"216 0 LINE"
);
}
);
width = 281;
}
);
leftKerningGroup = l;
rightKerningGroup = d;
unicode = 006C;
},
{
glyphname = m;
layers = (
{
layerId = "05A52B16-A306-40FB-AA4D-96EE9622F9E6";
name = "Bold Italic";
paths = (
{
closed = 1;
nodes = (
"14 0 LINE",
"119 525 LINE",
"259 525 LINE",
"235 403 LINE",
"241 403 LINE",
"280 486 OFFCURVE",
"330 537 OFFCURVE",
"410 537 CURVE SMOOTH",
"489 537 OFFCURVE",
"531 487 OFFCURVE",
"532 403 CURVE",
"537 403 LINE",
"576 482 OFFCURVE",
"627 537 OFFCURVE",
"711 537 CURVE SMOOTH",
"788 537 OFFCURVE",
"830 487 OFFCURVE",
"830 404 CURVE SMOOTH",
"830 373 OFFCURVE",
"825 344 OFFCURVE",
"818 313 CURVE SMOOTH",
"778 112 LINE",
"831 112 LINE",
"809 0 LINE",
"718 0 LINE SMOOTH",
"665 0 OFFCURVE",
"634 29 OFFCURVE",
"634 76 CURVE SMOOTH",
"634 88 OFFCURVE",
"636 99 OFFCURVE",
"637 104 CURVE SMOOTH",
"678 312 LINE SMOOTH",
"682 331 OFFCURVE",
"686 350 OFFCURVE",
"686 367 CURVE SMOOTH",
"686 399 OFFCURVE",
"673 420 OFFCURVE",
"642 420 CURVE SMOOTH",
"611 420 OFFCURVE",
"583 400 OFFCURVE",
"560 373 CURVE SMOOTH",
"537 346 OFFCURVE",
"519 306 OFFCURVE",
"512 270 CURVE SMOOTH",
"458 0 LINE",
"318 0 LINE",
"380 312 LINE SMOOTH",
"384 331 OFFCURVE",
"387 350 OFFCURVE",
"387 366 CURVE SMOOTH",
"387 399 OFFCURVE",
"375 420 OFFCURVE",
"340 420 CURVE SMOOTH",
"305 420 OFFCURVE",
"279 400 OFFCURVE",
"256 372 CURVE SMOOTH",
"232 343 OFFCURVE",
"216 309 OFFCURVE",
"208 270 CURVE SMOOTH",
"154 0 LINE"
);
}
);
width = 877;
}
);
leftKerningGroup = m;
rightKerningGroup = h;
unicode = 006D;
},
{
glyphname = n;
layers = (
{
layerId = "05A52B16-A306-40FB-AA4D-96EE9622F9E6";
name = "Bold Italic";
paths = (
{
closed = 1;
nodes = (
"14 0 LINE",
"119 525 LINE",
"259 525 LINE",
"235 403 LINE",
"241 403 LINE",
"281 487 OFFCURVE",
"332 537 OFFCURVE",
"415 537 CURVE SMOOTH",
"496 537 OFFCURVE",
"541 488 OFFCURVE",
"541 401 CURVE SMOOTH",
"541 376 OFFCURVE",
"537 354 OFFCURVE",
"532 327 CURVE SMOOTH",
"489 112 LINE",
"542 112 LINE",
"520 0 LINE",
"429 0 LINE SMOOTH",
"376 0 OFFCURVE",
"345 29 OFFCURVE",
"345 76 CURVE SMOOTH",
"345 88 OFFCURVE",
"347 99 OFFCURVE",
"348 104 CURVE SMOOTH",
"389 312 LINE SMOOTH",
"393 331 OFFCURVE",
"396 348 OFFCURVE",
"396 368 CURVE SMOOTH",
"396 399 OFFCURVE",
"382 420 OFFCURVE",
"343 420 CURVE SMOOTH",
"308 420 OFFCURVE",
"281 399 OFFCURVE",
"258 372 CURVE SMOOTH",
"234 344 OFFCURVE",
"216 310 OFFCURVE",
"208 270 CURVE SMOOTH",
"154 0 LINE"
);
}
);
width = 588;
}
);
leftKerningGroup = m;
rightKerningGroup = h;
unicode = 006E;
},
{
glyphname = o;
layers = (
{
layerId = "05A52B16-A306-40FB-AA4D-96EE9622F9E6";
name = "Bold Italic";
paths = (
{
closed = 1;
nodes = (
"111 -12 OFFCURVE",
"31 68 OFFCURVE",
"31 207 CURVE SMOOTH",
"31 302 OFFCURVE",
"60 384 OFFCURVE",
"108 443 CURVE SMOOTH",
"156 502 OFFCURVE",
"223 537 OFFCURVE",
"302 537 CURVE SMOOTH",
"431 537 OFFCURVE",
"511 457 OFFCURVE",
"511 318 CURVE SMOOTH",
"511 223 OFFCURVE",
"482 141 OFFCURVE",
"434 82 CURVE SMOOTH",
"386 23 OFFCURVE",
"317 -12 OFFCURVE",
"240 -12 CURVE SMOOTH"
);
},
{
closed = 1;
nodes = (
"300 101 OFFCURVE",
"335 139 OFFCURVE",
"350 216 CURVE SMOOTH",
"369 310 LINE",
"370 317 OFFCURVE",
"372 328 OFFCURVE",
"372 341 CURVE SMOOTH",
"372 392 OFFCURVE",
"346 424 OFFCURVE",
"297 424 CURVE SMOOTH",
"242 424 OFFCURVE",
"207 386 OFFCURVE",
"192 309 CURVE SMOOTH",
"173 215 LINE",
"172 208 OFFCURVE",
"170 197 OFFCURVE",
"170 184 CURVE SMOOTH",
"170 133 OFFCURVE",
"196 101 OFFCURVE",
"245 101 CURVE SMOOTH"
);
}
);
width = 542;
}
);
leftKerningGroup = c;
rightKerningGroup = o;
unicode = 006F;
},
{
glyphname = p;
layers = (
{
layerId = "05A52B16-A306-40FB-AA4D-96EE9622F9E6";
name = "Bold Italic";
paths = (
{
closed = 1;
nodes = (
"119 525 LINE",
"259 525 LINE",
"235 403 LINE",
"241 403 LINE",
"282 488 OFFCURVE",
"329 537 OFFCURVE",
"412 537 CURVE SMOOTH",
"461 537 OFFCURVE",
"496 518 OFFCURVE",
"519 486 CURVE SMOOTH",
"542 453 OFFCURVE",
"552 407 OFFCURVE",
"552 355 CURVE SMOOTH",
"552 243 OFFCURVE",
"524 152 OFFCURVE",
"480 88 CURVE SMOOTH",
"436 24 OFFCURVE",
"375 -12 OFFCURVE",
"308 -12 CURVE SMOOTH",
"235 -12 OFFCURVE",
"184 34 OFFCURVE",
"177 91 CURVE",
"172 91 LINE",
"114 -200 LINE",
"-26 -200 LINE"
);
},
{
closed = 1;
nodes = (
"335 103 OFFCURVE",
"373 142 OFFCURVE",
"389 220 CURVE SMOOTH",
"403 290 LINE SMOOTH",
"406 305 OFFCURVE",
"409 331 OFFCURVE",
"409 347 CURVE SMOOTH",
"409 394 OFFCURVE",
"384 422 OFFCURVE",
"343 422 CURVE SMOOTH",
"307 422 OFFCURVE",
"277 401 OFFCURVE",
"256 374 CURVE",
"233 347 OFFCURVE",
"216 309 OFFCURVE",
"208 270 CURVE SMOOTH",
"192 190 LINE SMOOTH",
"181 137 OFFCURVE",
"215 103 OFFCURVE",
"274 103 CURVE SMOOTH"
);
}
);
width = 583;
}
);
leftKerningGroup = p;
rightKerningGroup = b;
unicode = 0070;
},
{
glyphname = q;
layers = (
{
layerId = "05A52B16-A306-40FB-AA4D-96EE9622F9E6";
name = "Bold Italic";
paths = (
{
closed = 1;
nodes = (
"348 122 LINE",
"342 122 LINE",
"301 37 OFFCURVE",
"254 -12 OFFCURVE",
"171 -12 CURVE SMOOTH",
"122 -12 OFFCURVE",
"87 7 OFFCURVE",
"64 40 CURVE SMOOTH",
"41 72 OFFCURVE",
"31 118 OFFCURVE",
"31 170 CURVE SMOOTH",
"31 282 OFFCURVE",
"59 373 OFFCURVE",
"103 437 CURVE SMOOTH",
"147 501 OFFCURVE",
"208 537 OFFCURVE",
"275 537 CURVE SMOOTH",
"348 537 OFFCURVE",
"399 491 OFFCURVE",
"406 434 CURVE",
"411 434 LINE",
"429 525 LINE",
"569 525 LINE",
"424 -200 LINE",
"284 -200 LINE"
);
},
{
closed = 1;
nodes = (
"276 103 OFFCURVE",
"306 124 OFFCURVE",
"327 151 CURVE",
"350 178 OFFCURVE",
"367 216 OFFCURVE",
"375 255 CURVE SMOOTH",
"391 335 LINE SMOOTH",
"402 388 OFFCURVE",
"368 422 OFFCURVE",
"309 422 CURVE SMOOTH",
"248 422 OFFCURVE",
"210 383 OFFCURVE",
"194 305 CURVE SMOOTH",
"180 235 LINE SMOOTH",
"177 220 OFFCURVE",
"174 194 OFFCURVE",
"174 178 CURVE SMOOTH",
"174 131 OFFCURVE",
"199 103 OFFCURVE",
"240 103 CURVE SMOOTH"
);
}
);
width = 583;
}
);
leftKerningGroup = c;
rightKerningGroup = j;
unicode = 0071;
},
{
glyphname = r;
layers = (
{
layerId = "05A52B16-A306-40FB-AA4D-96EE9622F9E6";
name = "Bold Italic";
paths = (
{
closed = 1;
nodes = (
"14 0 LINE",
"119 525 LINE",
"259 525 LINE",
"233 394 LINE",
"240 394 LINE",
"251 422 OFFCURVE",
"271 456 OFFCURVE",
"297 481 CURVE SMOOTH",
"323 506 OFFCURVE",
"357 525 OFFCURVE",
"397 525 CURVE SMOOTH",
"422 525 LINE",
"394 389 LINE",
"359 389 LINE SMOOTH",
"270 389 OFFCURVE",
"226 361 OFFCURVE",
"209 276 CURVE SMOOTH",
"154 0 LINE"
);
}
);
width = 394;
}
);
leftKerningGroup = m;
rightKerningGroup = r;
unicode = 0072;
},
{
glyphname = s;
layers = (
{
layerId = "05A52B16-A306-40FB-AA4D-96EE9622F9E6";
name = "Bold Italic";
paths = (
{
closed = 1;
nodes = (
"125 -12 OFFCURVE",
"49 19 OFFCURVE",
"2 80 CURVE",
"90 162 LINE",
"119 123 OFFCURVE",
"156 100 OFFCURVE",
"216 100 CURVE SMOOTH",
"281 100 OFFCURVE",
"306 127 OFFCURVE",
"306 158 CURVE SMOOTH",
"306 178 OFFCURVE",
"294 196 OFFCURVE",
"257 201 CURVE SMOOTH",
"204 208 LINE SMOOTH",
"113 220 OFFCURVE",
"64 265 OFFCURVE",
"64 349 CURVE SMOOTH",
"64 398 OFFCURVE",
"81 445 OFFCURVE",
"117 480 CURVE SMOOTH",
"153 515 OFFCURVE",
"207 537 OFFCURVE",
"282 537 CURVE SMOOTH",
"363 537 OFFCURVE",
"430 510 OFFCURVE",
"477 454 CURVE",
"389 372 LINE",
"364 404 OFFCURVE",
"323 425 OFFCURVE",
"276 425 CURVE SMOOTH",
"229 425 OFFCURVE",
"200 402 OFFCURVE",
"200 370 CURVE SMOOTH",
"200 350 OFFCURVE",
"212 332 OFFCURVE",
"249 327 CURVE SMOOTH",
"302 320 LINE SMOOTH",
"393 308 OFFCURVE",
"442 263 OFFCURVE",
"442 180 CURVE SMOOTH",
"442 129 OFFCURVE",
"423 81 OFFCURVE",
"384 46 CURVE SMOOTH",
"345 10 OFFCURVE",
"288 -12 OFFCURVE",
"213 -12 CURVE SMOOTH"
);
}
);
width = 497;
}
);
leftKerningGroup = s;
rightKerningGroup = s;
unicode = 0073;
},
{
glyphname = t;
layers = (
{
layerId = "05A52B16-A306-40FB-AA4D-96EE9622F9E6";
name = "Bold Italic";
paths = (
{
closed = 1;
nodes = (
"182 0 LINE SMOOTH",
"100 0 OFFCURVE",
"59 33 OFFCURVE",
"59 99 CURVE SMOOTH",
"59 110 OFFCURVE",
"60 127 OFFCURVE",
"63 142 CURVE SMOOTH",
"117 413 LINE",
"43 413 LINE",
"65 525 LINE",
"100 525 LINE SMOOTH",
"143 525 OFFCURVE",
"152 542 OFFCURVE",
"159 578 CURVE SMOOTH",
"177 667 LINE",
"307 667 LINE",
"279 525 LINE",
"385 525 LINE",
"362 413 LINE",
"256 413 LINE",
"196 112 LINE",
"292 112 LINE",
"270 0 LINE"
);
}
);
width = 354;
}
);
leftKerningGroup = t;
rightKerningGroup = t;
unicode = 0074;
},
{
glyphname = u;
layers = (
{
layerId = "05A52B16-A306-40FB-AA4D-96EE9622F9E6";
name = "Bold Italic";
paths = (
{
closed = 1;
nodes = (
"254 525 LINE",
"192 213 LINE SMOOTH",
"188 194 OFFCURVE",
"185 175 OFFCURVE",
"185 160 CURVE SMOOTH",
"185 125 OFFCURVE",
"199 105 OFFCURVE",
"234 105 CURVE SMOOTH",
"269 105 OFFCURVE",
"295 125 OFFCURVE",
"318 153 CURVE SMOOTH",
"342 182 OFFCURVE",
"358 216 OFFCURVE",
"366 255 CURVE SMOOTH",
"420 525 LINE",
"560 525 LINE",
"477 112 LINE",
"536 112 LINE",
"514 0 LINE",
"421 0 LINE SMOOTH",
"370 0 OFFCURVE",
"333 28 OFFCURVE",
"333 77 CURVE SMOOTH",
"333 88 OFFCURVE",
"335 102 OFFCURVE",
"336 107 CURVE SMOOTH",
"339 122 LINE",
"333 122 LINE",
"294 39 OFFCURVE",
"244 -12 OFFCURVE",
"164 -12 CURVE SMOOTH",
"84 -12 OFFCURVE",
"40 37 OFFCURVE",
"40 124 CURVE SMOOTH",
"40 151 OFFCURVE",
"44 173 OFFCURVE",
"49 200 CURVE SMOOTH",
"114 525 LINE"
);
}
);
width = 582;
}
);
leftKerningGroup = u;
rightKerningGroup = a;
unicode = 0075;
},
{
glyphname = v;
layers = (
{
layerId = "05A52B16-A306-40FB-AA4D-96EE9622F9E6";
name = "Bold Italic";
paths = (
{
closed = 1;
nodes = (
"111 0 LINE",
"46 525 LINE",
"185 525 LINE",
"202 327 LINE",
"217 125 LINE",
"224 125 LINE",
"312 327 LINE",
"405 525 LINE",
"554 525 LINE",
"281 0 LINE"
);
}
);
width = 512;
}
);
leftKerningGroup = v;
rightKerningGroup = v;
unicode = 0076;
},
{
glyphname = w;
layers = (
{
layerId = "05A52B16-A306-40FB-AA4D-96EE9622F9E6";
name = "Bold Italic";
paths = (
{
closed = 1;
nodes = (
"54 525 LINE",
"193 525 LINE",
"200 335 LINE",
"203 157 LINE",
"209 157 LINE",
"274 309 LINE",
"372 525 LINE",
"502 525 LINE",
"516 335 LINE",
"527 150 LINE",
"533 150 LINE",
"595 309 LINE",
"685 525 LINE",
"823 525 LINE",
"583 0 LINE",
"436 0 LINE",
"421 175 LINE",
"408 349 LINE",
"402 349 LINE",
"334 198 LINE",
"243 0 LINE",
"94 0 LINE"
);
}
);
width = 791;
}
);
leftKerningGroup = w;
rightKerningGroup = w;
unicode = 0077;
},
{
glyphname = x;
layers = (
{
layerId = "05A52B16-A306-40FB-AA4D-96EE9622F9E6";
name = "Bold Italic";
paths = (
{
closed = 1;
nodes = (
"-51 0 LINE",
"177 274 LINE",
"65 525 LINE",
"216 525 LINE",
"278 350 LINE",
"284 350 LINE",
"414 525 LINE",
"567 525 LINE",
"338 252 LINE",
"453 0 LINE",
"302 0 LINE",
"238 172 LINE",
"232 172 LINE",
"102 0 LINE"
);
}
);
width = 518;
}
);
leftKerningGroup = x;
rightKerningGroup = x;
unicode = 0078;
},
{
glyphname = y;
layers = (
{
layerId = "05A52B16-A306-40FB-AA4D-96EE9622F9E6";
name = "Bold Italic";
paths = (
{
closed = 1;
nodes = (
"408 525 LINE",
"557 525 LINE",
"235 -85 LINE SMOOTH",
"215 -124 OFFCURVE",
"193 -152 OFFCURVE",
"164 -171 CURVE SMOOTH",
"135 -191 OFFCURVE",
"98 -200 OFFCURVE",
"49 -200 CURVE SMOOTH",
"-29 -200 LINE",
"-6 -88 LINE",
"91 -88 LINE",
"119 -30 LINE",
"45 525 LINE",
"184 525 LINE",
"204 327 LINE",
"220 131 LINE",
"226 131 LINE",
"314 327 LINE"
);
}
);
width = 509;
}
);
leftKerningGroup = y;
rightKerningGroup = y;
unicode = 0079;
},
{
glyphname = z;
layers = (
{
layerId = "05A52B16-A306-40FB-AA4D-96EE9622F9E6";
name = "Bold Italic";
paths = (
{
closed = 1;
nodes = (
"-11 0 LINE",
"11 112 LINE",
"317 413 LINE",
"76 413 LINE",
"98 525 LINE",
"507 525 LINE",
"485 413 LINE",
"178 112 LINE",
"436 112 LINE",
"414 0 LINE"
);
}
);
width = 492;
}
);
leftKerningGroup = z;
rightKerningGroup = z;
unicode = 007A;
},
{
glyphname = A;
layers = (
{
layerId = "05A52B16-A306-40FB-AA4D-96EE9622F9E6";
name = "Bold Italic";
paths = (
{
closed = 1;
nodes = (
"441 0 LINE",
"425 170 LINE",
"202 170 LINE",
"120 0 LINE",
"-35 0 LINE",
"324 698 LINE",
"509 698 LINE",
"588 0 LINE"
);
},
{
closed = 1;
nodes = (
"394 567 LINE",
"386 567 LINE",
"259 291 LINE",
"415 291 LINE"
);
}
);
width = 658;
}
);
leftKerningGroup = A;
rightKerningGroup = A;
unicode = 0041;
},
{
glyphname = B;
layers = (
{
layerId = "05A52B16-A306-40FB-AA4D-96EE9622F9E6";
name = "Bold Italic";
paths = (
{
closed = 1;
nodes = (
"162 698 LINE",
"460 698 LINE SMOOTH",
"511 698 OFFCURVE",
"554 687 OFFCURVE",
"585 663 CURVE SMOOTH",
"616 639 OFFCURVE",
"634 603 OFFCURVE",
"634 555 CURVE SMOOTH",
"634 463 OFFCURVE",
"590 387 OFFCURVE",
"498 362 CURVE",
"497 357 LINE",
"570 337 OFFCURVE",
"601 287 OFFCURVE",
"601 222 CURVE SMOOTH",
"601 155 OFFCURVE",
"581 101 OFFCURVE",
"541 62 CURVE SMOOTH",
"500 22 OFFCURVE",
"440 0 OFFCURVE",
"360 0 CURVE SMOOTH",
"22 0 LINE"
);
},
{
closed = 1;
nodes = (
"360 124 LINE SMOOTH",
"407 124 OFFCURVE",
"434 146 OFFCURVE",
"443 189 CURVE SMOOTH",
"446 206 OFFCURVE",
"449 219 OFFCURVE",
"450 227 CURVE SMOOTH",
"451 235 OFFCURVE",
"452 241 OFFCURVE",
"452 246 CURVE SMOOTH",
"452 273 OFFCURVE",
"436 291 OFFCURVE",
"397 291 CURVE SMOOTH",
"226 291 LINE",
"193 124 LINE"
);
},
{
closed = 1;
nodes = (
"391 410 LINE SMOOTH",
"438 410 OFFCURVE",
"465 427 OFFCURVE",
"474 472 CURVE SMOOTH",
"477 489 OFFCURVE",
"480 502 OFFCURVE",
"481 509 CURVE SMOOTH",
"482 516 OFFCURVE",
"483 522 OFFCURVE",
"483 527 CURVE SMOOTH",
"483 555 OFFCURVE",
"466 574 OFFCURVE",
"429 574 CURVE SMOOTH",
"283 574 LINE",
"250 410 LINE"
);
}
);
width = 651;
}
);
unicode = 0042;
},
{
glyphname = C;
layers = (
{
layerId = "05A52B16-A306-40FB-AA4D-96EE9622F9E6";
name = "Bold Italic";
paths = (
{
closed = 1;
nodes = (
"231 -12 OFFCURVE",
"170 12 OFFCURVE",
"126 60 CURVE SMOOTH",
"82 107 OFFCURVE",
"57 177 OFFCURVE",
"57 272 CURVE SMOOTH",
"57 395 OFFCURVE",
"96 504 OFFCURVE",
"160 583 CURVE SMOOTH",
"224 662 OFFCURVE",
"314 710 OFFCURVE",
"415 710 CURVE SMOOTH",
"540 710 OFFCURVE",
"618 648 OFFCURVE",
"651 540 CURVE",
"522 486 LINE",
"514 513 OFFCURVE",
"503 537 OFFCURVE",
"485 554 CURVE SMOOTH",
"467 570 OFFCURVE",
"441 581 OFFCURVE",
"404 581 CURVE SMOOTH",
"311 581 OFFCURVE",
"252 511 OFFCURVE",
"231 406 CURVE SMOOTH",
"209 296 LINE SMOOTH",
"205 276 OFFCURVE",
"204 259 OFFCURVE",
"204 246 CURVE SMOOTH",
"204 160 OFFCURVE",
"242 117 OFFCURVE",
"319 117 CURVE SMOOTH",
"398 117 OFFCURVE",
"441 160 OFFCURVE",
"472 221 CURVE",
"593 166 LINE",
"530 45 OFFCURVE",
"427 -12 OFFCURVE",
"306 -12 CURVE SMOOTH"
);
}
);
width = 635;
}
);
leftKerningGroup = C;
rightKerningGroup = C;
unicode = 0043;
},
{
glyphname = D;
layers = (
{
layerId = "05A52B16-A306-40FB-AA4D-96EE9622F9E6";
name = "Bold Italic";
paths = (
{
closed = 1;
nodes = (
"162 698 LINE",
"386 698 LINE SMOOTH",
"553 698 OFFCURVE",
"654 609 OFFCURVE",
"654 437 CURVE SMOOTH",
"654 313 OFFCURVE",
"622 204 OFFCURVE",
"560 126 CURVE SMOOTH",
"498 48 OFFCURVE",
"405 0 OFFCURVE",
"288 0 CURVE SMOOTH",
"22 0 LINE"
);
},
{
closed = 1;
nodes = (
"300 128 LINE SMOOTH",
"391 128 OFFCURVE",
"458 181 OFFCURVE",
"481 296 CURVE SMOOTH",
"500 390 LINE SMOOTH",
"505 415 OFFCURVE",
"507 440 OFFCURVE",
"507 452 CURVE SMOOTH",
"507 536 OFFCURVE",
"463 570 OFFCURVE",
"395 570 CURVE SMOOTH",
"282 570 LINE",
"193 128 LINE"
);
}
);
width = 682;
}
);
rightKerningGroup = D;
unicode = 0044;
},
{
glyphname = E;
layers = (
{
layerId = "05A52B16-A306-40FB-AA4D-96EE9622F9E6";
name = "Bold Italic";
paths = (
{
closed = 1;
nodes = (
"22 0 LINE",
"162 698 LINE",
"611 698 LINE",
"585 570 LINE",
"282 570 LINE",
"251 417 LINE",
"519 417 LINE",
"493 289 LINE",
"225 289 LINE",
"193 128 LINE",
"507 128 LINE",
"481 0 LINE"
);
}
);
width = 578;
}
);
rightKerningGroup = E;
unicode = 0045;
},
{
glyphname = F;
layers = (
{
layerId = "05A52B16-A306-40FB-AA4D-96EE9622F9E6";
name = "Bold Italic";
paths = (
{
closed = 1;
nodes = (
"22 0 LINE",
"162 698 LINE",
"599 698 LINE",
"573 570 LINE",
"281 570 LINE",
"250 417 LINE",
"507 417 LINE",
"481 289 LINE",
"224 289 LINE",
"167 0 LINE"
);
}
);
width = 557;
}
);
rightKerningGroup = F;
unicode = 0046;
},
{
glyphname = G;
layers = (
{
layerId = "05A52B16-A306-40FB-AA4D-96EE9622F9E6";
name = "Bold Italic";
paths = (
{
closed = 1;
nodes = (
"482 111 LINE",
"474 111 LINE",
"439 43 OFFCURVE",
"378 -12 OFFCURVE",
"283 -12 CURVE SMOOTH",
"216 -12 OFFCURVE",
"160 11 OFFCURVE",
"120 58 CURVE SMOOTH",
"80 105 OFFCURVE",
"57 175 OFFCURVE",
"57 268 CURVE SMOOTH",
"57 393 OFFCURVE",
"94 504 OFFCURVE",
"159 584 CURVE SMOOTH",
"223 663 OFFCURVE",
"314 710 OFFCURVE",
"425 710 CURVE SMOOTH",
"486 710 OFFCURVE",
"542 696 OFFCURVE",
"586 668 CURVE SMOOTH",
"629 640 OFFCURVE",
"661 598 OFFCURVE",
"677 545 CURVE",
"556 481 LINE",
"540 546 OFFCURVE",
"489 581 OFFCURVE",
"417 581 CURVE SMOOTH",
"309 581 OFFCURVE",
"252 515 OFFCURVE",
"231 407 CURVE SMOOTH",
"209 297 LINE SMOOTH",
"205 277 OFFCURVE",
"203 258 OFFCURVE",
"203 241 CURVE SMOOTH",
"203 197 OFFCURVE",
"216 166 OFFCURVE",
"237 146 CURVE SMOOTH",
"258 126 OFFCURVE",
"287 117 OFFCURVE",
"318 117 CURVE SMOOTH",
"361 117 OFFCURVE",
"400 129 OFFCURVE",
"430 150 CURVE SMOOTH",
"460 170 OFFCURVE",
"480 198 OFFCURVE",
"487 230 CURVE SMOOTH",
"494 264 LINE",
"368 264 LINE",
"392 386 LINE",
"656 386 LINE",
"579 0 LINE",
"460 0 LINE"
);
}
);
width = 700;
}
);
leftKerningGroup = C;
rightKerningGroup = G;
unicode = 0047;
},
{
glyphname = H;
layers = (
{
layerId = "05A52B16-A306-40FB-AA4D-96EE9622F9E6";
name = "Bold Italic";
paths = (
{
closed = 1;
nodes = (
"485 289 LINE",
"225 289 LINE",
"167 0 LINE",
"22 0 LINE",
"162 698 LINE",
"307 698 LINE",
"251 417 LINE",
"511 417 LINE",
"567 698 LINE",
"712 698 LINE",
"572 0 LINE",
"427 0 LINE"
);
}
);
width = 700;
}
);
unicode = 0048;
},
{
glyphname = I;
lastChange = "2018-11-04 06:39:25 +0000";
layers = (
{
layerId = "05A52B16-A306-40FB-AA4D-96EE9622F9E6";
name = "Bold Italic";
paths = (
{
closed = 1;
nodes = (
"22 0 LINE",
"167 0 LINE",
"308 698 LINE",
"163 698 LINE"
);
}
);
width = 295;
}
);
leftKerningGroup = I;
rightKerningGroup = I;
unicode = 0049;
},
{
glyphname = J;
lastChange = "2018-11-04 06:05:17 +0000";
layers = (
{
layerId = "05A52B16-A306-40FB-AA4D-96EE9622F9E6";
name = "Bold Italic";
paths = (
{
closed = 1;
nodes = (
"305 205 LINE SMOOTH",
"292 141 OFFCURVE",
"256 115 OFFCURVE",
"215 115 CURVE SMOOTH",
"165 115 OFFCURVE",
"149 152 OFFCURVE",
"144 208 CURVE",
"5 180 LINE",
"15 74 OFFCURVE",
"80 -11 OFFCURVE",
"215 -11 CURVE SMOOTH",
"346 -11 OFFCURVE",
"423 69 OFFCURVE",
"447 190 CURVE SMOOTH",
"549 698 LINE",
"403 698 LINE"
);
}
);
width = 536;
}
);
leftKerningGroup = J;
rightKerningGroup = J;
unicode = 004A;
},
{
glyphname = K;
layers = (
{
layerId = "05A52B16-A306-40FB-AA4D-96EE9622F9E6";
name = "Bold Italic";
paths = (
{
closed = 1;
nodes = (
"319 299 LINE",
"203 179 LINE",
"167 0 LINE",
"22 0 LINE",
"162 698 LINE",
"307 698 LINE",
"240 364 LINE",
"247 364 LINE",
"357 495 LINE",
"545 698 LINE",
"721 698 LINE",
"433 398 LINE",
"596 0 LINE",
"436 0 LINE"
);
}
);
width = 657;
}
);
rightKerningGroup = K;
unicode = 004B;
},
{
glyphname = L;
layers = (
{
layerId = "05A52B16-A306-40FB-AA4D-96EE9622F9E6";
name = "Bold Italic";
paths = (
{
closed = 1;
nodes = (
"22 0 LINE",
"162 698 LINE",
"307 698 LINE",
"193 128 LINE",
"449 128 LINE",
"423 0 LINE"
);
}
);
width = 510;
}
);
rightKerningGroup = L;
unicode = 004C;
},
{
glyphname = M;
layers = (
{
layerId = "05A52B16-A306-40FB-AA4D-96EE9622F9E6";
name = "Bold Italic";
paths = (
{
closed = 1;
nodes = (
"628 461 LINE",
"622 461 LINE",
"526 327 LINE",
"371 115 LINE",
"297 342 LINE",
"258 463 LINE",
"253 463 LINE",
"160 0 LINE",
"22 0 LINE",
"162 698 LINE",
"314 698 LINE",
"415 366 LINE",
"419 366 LINE",
"652 698 LINE",
"813 698 LINE",
"673 0 LINE",
"535 0 LINE"
);
}
);
width = 801;
}
);
unicode = 004D;
},
{
glyphname = N;
layers = (
{
layerId = "05A52B16-A306-40FB-AA4D-96EE9622F9E6";
name = "Bold Italic";
paths = (
{
closed = 1;
nodes = (
"302 336 LINE",
"260 475 LINE",
"254 475 LINE",
"159 0 LINE",
"22 0 LINE",
"162 698 LINE",
"319 698 LINE",
"432 362 LINE",
"474 223 LINE",
"480 223 LINE",
"575 698 LINE",
"712 698 LINE",
"572 0 LINE",
"415 0 LINE"
);
}
);
width = 700;
}
);
unicode = 004E;
},
{
glyphname = O;
layers = (
{
layerId = "05A52B16-A306-40FB-AA4D-96EE9622F9E6";
name = "Bold Italic";
paths = (
{
closed = 1;
nodes = (
"241 -12 OFFCURVE",
"179 10 OFFCURVE",
"133 56 CURVE SMOOTH",
"87 102 OFFCURVE",
"57 172 OFFCURVE",
"57 271 CURVE SMOOTH",
"57 391 OFFCURVE",
"95 501 OFFCURVE",
"159 581 CURVE SMOOTH",
"223 661 OFFCURVE",
"313 710 OFFCURVE",
"417 710 CURVE SMOOTH",
"484 710 OFFCURVE",
"547 689 OFFCURVE",
"593 643 CURVE SMOOTH",
"639 597 OFFCURVE",
"668 526 OFFCURVE",
"668 427 CURVE SMOOTH",
"668 307 OFFCURVE",
"630 197 OFFCURVE",
"566 117 CURVE SMOOTH",
"502 37 OFFCURVE",
"412 -12 OFFCURVE",
"308 -12 CURVE SMOOTH"
);
},
{
closed = 1;
nodes = (
"411 117 OFFCURVE",
"472 183 OFFCURVE",
"495 296 CURVE SMOOTH",
"516 401 LINE SMOOTH",
"520 422 OFFCURVE",
"521 438 OFFCURVE",
"521 453 CURVE SMOOTH",
"521 538 OFFCURVE",
"483 581 OFFCURVE",
"407 581 CURVE SMOOTH",
"314 581 OFFCURVE",
"253 515 OFFCURVE",
"230 402 CURVE SMOOTH",
"209 297 LINE SMOOTH",
"205 277 OFFCURVE",
"204 260 OFFCURVE",
"204 245 CURVE SMOOTH",
"204 160 OFFCURVE",
"242 117 OFFCURVE",
"318 117 CURVE SMOOTH"
);
}
);
width = 695;
}
);
leftKerningGroup = C;
rightKerningGroup = O;
unicode = 004F;
},
{
glyphname = P;
layers = (
{
layerId = "05A52B16-A306-40FB-AA4D-96EE9622F9E6";
name = "Bold Italic";
paths = (
{
closed = 1;
nodes = (
"22 0 LINE",
"162 698 LINE",
"425 698 LINE SMOOTH",
"565 698 OFFCURVE",
"645 630 OFFCURVE",
"645 511 CURVE SMOOTH",
"645 435 OFFCURVE",
"617 370 OFFCURVE",
"569 326 CURVE SMOOTH",
"521 281 OFFCURVE",
"453 255 OFFCURVE",
"374 255 CURVE SMOOTH",
"218 255 LINE",
"167 0 LINE"
);
},
{
closed = 1;
nodes = (
"244 383 LINE",
"393 383 LINE SMOOTH",
"438 383 OFFCURVE",
"473 407 OFFCURVE",
"484 456 CURVE SMOOTH",
"491 487 OFFCURVE",
"495 505 OFFCURVE",
"495 516 CURVE SMOOTH",
"495 547 OFFCURVE",
"475 570 OFFCURVE",
"431 570 CURVE SMOOTH",
"281 570 LINE"
);
}
);
width = 637;
}
);
rightKerningGroup = P;
unicode = 0050;
},
{
glyphname = Q;
layers = (
{
layerId = "05A52B16-A306-40FB-AA4D-96EE9622F9E6";
name = "Bold Italic";
paths = (
{
closed = 1;
nodes = (
"438 -183 LINE",
"328 -183 LINE SMOOTH",
"248 -183 OFFCURVE",
"220 -150 OFFCURVE",
"220 -93 CURVE SMOOTH",
"220 -76 OFFCURVE",
"223 -59 OFFCURVE",
"227 -40 CURVE SMOOTH",
"235 -2 LINE",
"184 11 OFFCURVE",
"140 39 OFFCURVE",
"108 84 CURVE SMOOTH",
"76 129 OFFCURVE",
"57 191 OFFCURVE",
"57 271 CURVE SMOOTH",
"57 391 OFFCURVE",
"95 501 OFFCURVE",
"159 581 CURVE SMOOTH",
"223 661 OFFCURVE",
"313 710 OFFCURVE",
"417 710 CURVE SMOOTH",
"484 710 OFFCURVE",
"547 689 OFFCURVE",
"593 643 CURVE SMOOTH",
"639 597 OFFCURVE",
"668 526 OFFCURVE",
"668 427 CURVE SMOOTH",
"668 316 OFFCURVE",
"637 215 OFFCURVE",
"583 138 CURVE SMOOTH",
"529 61 OFFCURVE",
"451 8 OFFCURVE",
"360 -7 CURVE",
"349 -65 LINE",
"460 -65 LINE"
);
},
{
closed = 1;
nodes = (
"411 117 OFFCURVE",
"472 183 OFFCURVE",
"495 296 CURVE SMOOTH",
"516 401 LINE SMOOTH",
"520 422 OFFCURVE",
"521 438 OFFCURVE",
"521 453 CURVE SMOOTH",
"521 538 OFFCURVE",
"483 581 OFFCURVE",
"407 581 CURVE SMOOTH",
"314 581 OFFCURVE",
"253 515 OFFCURVE",
"230 402 CURVE SMOOTH",
"209 297 LINE SMOOTH",
"205 276 OFFCURVE",
"204 260 OFFCURVE",
"204 245 CURVE SMOOTH",
"204 160 OFFCURVE",
"242 117 OFFCURVE",
"318 117 CURVE SMOOTH"
);
}
);
width = 695;
}
);
leftKerningGroup = C;
rightKerningGroup = O;
unicode = 0051;
},
{
glyphname = R;
layers = (
{
layerId = "05A52B16-A306-40FB-AA4D-96EE9622F9E6";
name = "Bold Italic";
paths = (
{
closed = 1;
nodes = (
"167 0 LINE",
"22 0 LINE",
"162 698 LINE",
"434 698 LINE SMOOTH",
"567 698 OFFCURVE",
"645 633 OFFCURVE",
"645 518 CURVE SMOOTH",
"645 466 OFFCURVE",
"630 415 OFFCURVE",
"601 372 CURVE SMOOTH",
"572 328 OFFCURVE",
"530 295 OFFCURVE",
"474 276 CURVE",
"558 0 LINE",
"403 0 LINE",
"334 259 LINE",
"219 259 LINE"
);
},
{
closed = 1;
nodes = (
"393 383 LINE SMOOTH",
"438 383 OFFCURVE",
"473 407 OFFCURVE",
"484 456 CURVE SMOOTH",
"491 487 OFFCURVE",
"495 505 OFFCURVE",
"495 516 CURVE SMOOTH",
"495 547 OFFCURVE",
"475 570 OFFCURVE",
"431 570 CURVE SMOOTH",
"281 570 LINE",
"244 383 LINE"
);
}
);
width = 655;
}
);
rightKerningGroup = R;
unicode = 0052;
},
{
glyphname = S;
layers = (
{
layerId = "05A52B16-A306-40FB-AA4D-96EE9622F9E6";
name = "Bold Italic";
paths = (
{
closed = 1;
nodes = (
"139 -12 OFFCURVE",
"46 21 OFFCURVE",
"-5 112 CURVE",
"106 199 LINE",
"141 143 OFFCURVE",
"183 117 OFFCURVE",
"255 117 CURVE SMOOTH",
"339 117 OFFCURVE",
"388 158 OFFCURVE",
"388 217 CURVE SMOOTH",
"388 260 OFFCURVE",
"353 278 OFFCURVE",
"308 289 CURVE SMOOTH",
"262 299 LINE SMOOTH",
"211 310 OFFCURVE",
"169 329 OFFCURVE",
"140 359 CURVE SMOOTH",
"111 389 OFFCURVE",
"95 429 OFFCURVE",
"95 485 CURVE SMOOTH",
"95 549 OFFCURVE",
"122 605 OFFCURVE",
"169 645 CURVE SMOOTH",
"216 685 OFFCURVE",
"284 710 OFFCURVE",
"364 710 CURVE SMOOTH",
"468 710 OFFCURVE",
"555 677 OFFCURVE",
"603 613 CURVE",
"498 519 LINE",
"466 563 OFFCURVE",
"429 581 OFFCURVE",
"358 581 CURVE SMOOTH",
"286 581 OFFCURVE",
"241 547 OFFCURVE",
"241 498 CURVE SMOOTH",
"241 458 OFFCURVE",
"268 441 OFFCURVE",
"316 430 CURVE SMOOTH",
"360 420 LINE SMOOTH",
"413 408 OFFCURVE",
"458 389 OFFCURVE",
"489 359 CURVE SMOOTH",
"520 329 OFFCURVE",
"538 288 OFFCURVE",
"538 233 CURVE SMOOTH",
"538 173 OFFCURVE",
"511 112 OFFCURVE",
"463 66 CURVE SMOOTH",
"414 20 OFFCURVE",
"343 -12 OFFCURVE",
"255 -12 CURVE SMOOTH"
);
}
);
width = 586;
}
);
leftKerningGroup = S;
rightKerningGroup = S;
unicode = 0053;
},
{
glyphname = T;
layers = (
{
layerId = "05A52B16-A306-40FB-AA4D-96EE9622F9E6";
name = "Bold Italic";
paths = (
{
closed = 1;
nodes = (
"418 570 LINE",
"304 0 LINE",
"159 0 LINE",
"273 570 LINE",
"89 570 LINE",
"115 698 LINE",
"628 698 LINE",
"602 570 LINE"
);
}
);
width = 569;
}
);
leftKerningGroup = T;
rightKerningGroup = T;
unicode = 0054;
},
{
glyphname = U;
layers = (
{
layerId = "05A52B16-A306-40FB-AA4D-96EE9622F9E6";
name = "Bold Italic";
paths = (
{
closed = 1;
nodes = (
"303 698 LINE",
"220 283 LINE SMOOTH",
"216 264 OFFCURVE",
"213 239 OFFCURVE",
"213 220 CURVE SMOOTH",
"213 153 OFFCURVE",
"247 120 OFFCURVE",
"315 120 CURVE SMOOTH",
"395 120 OFFCURVE",
"440 166 OFFCURVE",
"461 270 CURVE SMOOTH",
"547 698 LINE",
"690 698 LINE",
"605 275 LINE SMOOTH",
"585 176 OFFCURVE",
"555 105 OFFCURVE",
"507 58 CURVE SMOOTH",
"459 11 OFFCURVE",
"395 -12 OFFCURVE",
"308 -12 CURVE SMOOTH",
"155 -12 OFFCURVE",
"72 65 OFFCURVE",
"72 214 CURVE SMOOTH",
"72 241 OFFCURVE",
"74 268 OFFCURVE",
"81 303 CURVE SMOOTH",
"160 698 LINE"
);
}
);
width = 678;
}
);
leftKerningGroup = U;
rightKerningGroup = U;
unicode = 0055;
},
{
glyphname = V;
layers = (
{
layerId = "05A52B16-A306-40FB-AA4D-96EE9622F9E6";
name = "Bold Italic";
paths = (
{
closed = 1;
nodes = (
"181 0 LINE",
"99 698 LINE",
"245 698 LINE",
"270 429 LINE",
"288 154 LINE",
"295 154 LINE",
"408 405 LINE",
"551 698 LINE",
"705 698 LINE",
"344 0 LINE"
);
}
);
width = 631;
}
);
leftKerningGroup = V;
rightKerningGroup = V;
unicode = 0056;
},
{
glyphname = W;
layers = (
{
layerId = "05A52B16-A306-40FB-AA4D-96EE9622F9E6";
name = "Bold Italic";
paths = (
{
closed = 1;
nodes = (
"130 0 LINE",
"116 698 LINE",
"259 698 LINE",
"255 419 LINE",
"244 144 LINE",
"254 144 LINE",
"351 401 LINE",
"477 698 LINE",
"636 698 LINE",
"643 416 LINE",
"636 134 LINE",
"646 134 LINE",
"733 384 LINE",
"851 698 LINE",
"997 698 LINE",
"706 0 LINE",
"538 0 LINE",
"530 291 LINE",
"530 536 LINE",
"521 536 LINE",
"432 312 LINE",
"302 0 LINE"
);
}
);
width = 941;
}
);
leftKerningGroup = W;
rightKerningGroup = W;
unicode = 0057;
},
{
glyphname = X;
layers = (
{
layerId = "05A52B16-A306-40FB-AA4D-96EE9622F9E6";
name = "Bold Italic";
paths = (
{
closed = 1;
nodes = (
"571 0 LINE",
"414 0 LINE",
"315 243 LINE",
"307 243 LINE",
"128 0 LINE",
"-40 0 LINE",
"250 369 LINE",
"104 698 LINE",
"260 698 LINE",
"355 468 LINE",
"363 468 LINE",
"538 698 LINE",
"706 698 LINE",
"419 347 LINE"
);
}
);
width = 641;
}
);
leftKerningGroup = X;
rightKerningGroup = X;
unicode = 0058;
},
{
glyphname = Y;
layers = (
{
layerId = "05A52B16-A306-40FB-AA4D-96EE9622F9E6";
name = "Bold Italic";
paths = (
{
closed = 1;
nodes = (
"185 0 LINE",
"239 271 LINE",
"91 698 LINE",
"239 698 LINE",
"333 404 LINE",
"340 404 LINE",
"541 698 LINE",
"701 698 LINE",
"382 258 LINE",
"330 0 LINE"
);
}
);
width = 624;
}
);
leftKerningGroup = Y;
rightKerningGroup = Y;
unicode = 0059;
},
{
glyphname = Z;
layers = (
{
layerId = "05A52B16-A306-40FB-AA4D-96EE9622F9E6";
name = "Bold Italic";
paths = (
{
closed = 1;
nodes = (
"486 0 LINE",
"-11 0 LINE",
"15 128 LINE",
"425 570 LINE",
"119 570 LINE",
"145 698 LINE",
"623 698 LINE",
"597 570 LINE",
"187 128 LINE",
"512 128 LINE"
);
}
);
width = 573;
}
);
leftKerningGroup = Z;
rightKerningGroup = Z;
unicode = 005A;
},
{
glyphname = zero;
layers = (
{
layerId = "05A52B16-A306-40FB-AA4D-96EE9622F9E6";
name = "Bold Italic";
paths = (
{
closed = 1;
nodes = (
"174 -12 OFFCURVE",
"120 23 OFFCURVE",
"89 73 CURVE SMOOTH",
"57 123 OFFCURVE",
"47 185 OFFCURVE",
"47 244 CURVE SMOOTH",
"47 363 OFFCURVE",
"76 479 OFFCURVE",
"129 566 CURVE SMOOTH",
"182 653 OFFCURVE",
"261 710 OFFCURVE",
"364 710 CURVE SMOOTH",
"452 710 OFFCURVE",
"506 676 OFFCURVE",
"538 626 CURVE SMOOTH",
"569 576 OFFCURVE",
"579 511 OFFCURVE",
"579 454 CURVE SMOOTH",
"579 335 OFFCURVE",
"550 219 OFFCURVE",
"497 132 CURVE SMOOTH",
"444 45 OFFCURVE",
"363 -12 OFFCURVE",
"262 -12 CURVE SMOOTH"
);
},
{
closed = 1;
nodes = (
"314 106 OFFCURVE",
"341 124 OFFCURVE",
"361 156 CURVE SMOOTH",
"381 188 OFFCURVE",
"394 234 OFFCURVE",
"405 287 CURVE SMOOTH",
"430 411 LINE SMOOTH",
"435 438 OFFCURVE",
"438 460 OFFCURVE",
"438 483 CURVE SMOOTH",
"438 551 OFFCURVE",
"415 592 OFFCURVE",
"351 592 CURVE SMOOTH",
"312 592 OFFCURVE",
"285 574 OFFCURVE",
"265 542 CURVE SMOOTH",
"245 510 OFFCURVE",
"232 464 OFFCURVE",
"221 411 CURVE SMOOTH",
"196 287 LINE SMOOTH",
"191 260 OFFCURVE",
"188 238 OFFCURVE",
"188 215 CURVE SMOOTH",
"188 147 OFFCURVE",
"211 106 OFFCURVE",
"275 106 CURVE SMOOTH"
);
}
);
width = 600;
}
);
unicode = 0030;
},
{
glyphname = one;
lastChange = "2018-11-05 13:12:24 +0000";
layers = (
{
layerId = "05A52B16-A306-40FB-AA4D-96EE9622F9E6";
name = "Bold Italic";
paths = (
{
closed = 1;
nodes = (
"116 616 LINE",
"87 472 LINE",
"255 560 LINE",
"142 0 LINE",
"284 0 LINE",
"424 698 LINE",
"271 698 LINE"
);
}
);
width = 450;
}
);
unicode = 0031;
},
{
glyphname = two;
layers = (
{
layerId = "05A52B16-A306-40FB-AA4D-96EE9622F9E6";
name = "Bold Italic";
paths = (
{
closed = 1;
nodes = (
"488 0 LINE",
"12 0 LINE",
"39 134 LINE",
"289 319 LINE SMOOTH",
"332 351 OFFCURVE",
"361 378 OFFCURVE",
"381 404 CURVE SMOOTH",
"401 430 OFFCURVE",
"412 453 OFFCURVE",
"417 478 CURVE SMOOTH",
"419 488 OFFCURVE",
"420 497 OFFCURVE",
"420 505 CURVE SMOOTH",
"420 553 OFFCURVE",
"386 585 OFFCURVE",
"337 585 CURVE SMOOTH",
"277 585 OFFCURVE",
"238 538 OFFCURVE",
"217 485 CURVE",
"95 534 LINE",
"118 583 OFFCURVE",
"149 628 OFFCURVE",
"190 660 CURVE SMOOTH",
"231 691 OFFCURVE",
"284 710 OFFCURVE",
"349 710 CURVE SMOOTH",
"418 710 OFFCURVE",
"473 691 OFFCURVE",
"512 657 CURVE SMOOTH",
"551 623 OFFCURVE",
"572 574 OFFCURVE",
"572 517 CURVE SMOOTH",
"572 457 OFFCURVE",
"551 409 OFFCURVE",
"515 365 CURVE SMOOTH",
"478 320 OFFCURVE",
"424 278 OFFCURVE",
"357 230 CURVE SMOOTH",
"205 121 LINE",
"512 121 LINE"
);
}
);
width = 600;
}
);
unicode = 0032;
},
{
glyphname = three;
layers = (
{
layerId = "05A52B16-A306-40FB-AA4D-96EE9622F9E6";
name = "Bold Italic";
paths = (
{
closed = 1;
nodes = (
"296 421 LINE SMOOTH",
"369 421 OFFCURVE",
"408 452 OFFCURVE",
"416 492 CURVE",
"419 503 OFFCURVE",
"420 512 OFFCURVE",
"420 520 CURVE SMOOTH",
"420 564 OFFCURVE",
"387 591 OFFCURVE",
"334 591 CURVE SMOOTH",
"281 591 OFFCURVE",
"236 569 OFFCURVE",
"193 509 CURVE",
"113 599 LINE",
"144 632 OFFCURVE",
"176 660 OFFCURVE",
"216 680 CURVE SMOOTH",
"255 699 OFFCURVE",
"300 710 OFFCURVE",
"359 710 CURVE SMOOTH",
"424 710 OFFCURVE",
"478 693 OFFCURVE",
"515 665 CURVE SMOOTH",
"552 636 OFFCURVE",
"573 595 OFFCURVE",
"573 546 CURVE SMOOTH",
"573 453 OFFCURVE",
"511 390 OFFCURVE",
"411 367 CURVE",
"410 362 LINE",
"481 349 OFFCURVE",
"521 296 OFFCURVE",
"521 216 CURVE SMOOTH",
"521 151 OFFCURVE",
"496 93 OFFCURVE",
"449 53 CURVE SMOOTH",
"402 12 OFFCURVE",
"332 -12 OFFCURVE",
"244 -12 CURVE SMOOTH",
"176 -12 OFFCURVE",
"127 4 OFFCURVE",
"91 29 CURVE SMOOTH",
"55 53 OFFCURVE",
"32 86 OFFCURVE",
"17 121 CURVE",
"122 196 LINE",
"142 143 OFFCURVE",
"178 106 OFFCURVE",
"253 106 CURVE SMOOTH",
"320 106 OFFCURVE",
"360 139 OFFCURVE",
"371 195 CURVE SMOOTH",
"372 200 OFFCURVE",
"373 205 OFFCURVE",
"373 209 CURVE SMOOTH",
"373 212 OFFCURVE",
"373 216 OFFCURVE",
"373 221 CURVE SMOOTH",
"373 270 OFFCURVE",
"339 300 OFFCURVE",
"279 300 CURVE SMOOTH",
"207 300 LINE",
"231 421 LINE"
);
}
);
width = 600;
}
);
unicode = 0033;
},
{
glyphname = four;
layers = (
{
layerId = "05A52B16-A306-40FB-AA4D-96EE9622F9E6";
name = "Bold Italic";
paths = (
{
closed = 1;
nodes = (
"289 0 LINE",
"316 134 LINE",
"11 134 LINE",
"36 261 LINE",
"392 698 LINE",
"564 698 LINE",
"473 246 LINE",
"559 246 LINE",
"536 134 LINE",
"451 134 LINE",
"424 0 LINE"
);
},
{
closed = 1;
nodes = (
"154 246 LINE",
"338 246 LINE",
"396 534 LINE",
"385 534 LINE"
);
}
);
width = 600;
}
);
unicode = 0034;
},
{
glyphname = five;
layers = (
{
layerId = "05A52B16-A306-40FB-AA4D-96EE9622F9E6";
name = "Bold Italic";
paths = (
{
closed = 1;
nodes = (
"564 572 LINE",
"256 572 LINE",
"199 346 LINE",
"208 346 LINE",
"247 415 OFFCURVE",
"288 455 OFFCURVE",
"371 455 CURVE SMOOTH",
"476 455 OFFCURVE",
"545 387 OFFCURVE",
"545 262 CURVE SMOOTH",
"545 193 OFFCURVE",
"519 125 OFFCURVE",
"470 74 CURVE SMOOTH",
"421 22 OFFCURVE",
"348 -12 OFFCURVE",
"255 -12 CURVE SMOOTH",
"183 -12 OFFCURVE",
"132 4 OFFCURVE",
"96 29 CURVE SMOOTH",
"59 54 OFFCURVE",
"37 88 OFFCURVE",
"22 123 CURVE",
"138 197 LINE",
"154 145 OFFCURVE",
"194 107 OFFCURVE",
"262 107 CURVE SMOOTH",
"334 107 OFFCURVE",
"373 152 OFFCURVE",
"385 212 CURVE SMOOTH",
"388 227 OFFCURVE",
"390 238 OFFCURVE",
"390 253 CURVE SMOOTH",
"390 306 OFFCURVE",
"356 337 OFFCURVE",
"300 337 CURVE SMOOTH",
"248 337 OFFCURVE",
"213 312 OFFCURVE",
"190 287 CURVE",
"77 303 LINE",
"179 698 LINE",
"589 698 LINE"
);
}
);
width = 600;
}
);
unicode = 0035;
},
{
glyphname = six;
layers = (
{
layerId = "05A52B16-A306-40FB-AA4D-96EE9622F9E6";
name = "Bold Italic";
paths = (
{
closed = 1;
nodes = (
"124 -12 OFFCURVE",
"45 79 OFFCURVE",
"45 223 CURVE SMOOTH",
"45 326 OFFCURVE",
"86 422 OFFCURVE",
"147 503 CURVE SMOOTH",
"207 583 OFFCURVE",
"289 651 OFFCURVE",
"370 698 CURVE",
"577 698 LINE",
"485 641 OFFCURVE",
"407 590 OFFCURVE",
"347 535 CURVE SMOOTH",
"286 479 OFFCURVE",
"240 420 OFFCURVE",
"215 347 CURVE",
"223 344 LINE",
"240 371 OFFCURVE",
"259 397 OFFCURVE",
"284 417 CURVE SMOOTH",
"309 436 OFFCURVE",
"341 449 OFFCURVE",
"384 449 CURVE SMOOTH",
"436 449 OFFCURVE",
"477 429 OFFCURVE",
"506 396 CURVE SMOOTH",
"534 363 OFFCURVE",
"550 314 OFFCURVE",
"550 257 CURVE SMOOTH",
"550 186 OFFCURVE",
"523 118 OFFCURVE",
"474 69 CURVE SMOOTH",
"425 20 OFFCURVE",
"353 -12 OFFCURVE",
"264 -12 CURVE SMOOTH"
);
},
{
closed = 1;
nodes = (
"344 102 OFFCURVE",
"383 141 OFFCURVE",
"396 206 CURVE SMOOTH",
"399 221 OFFCURVE",
"401 234 OFFCURVE",
"401 249 CURVE SMOOTH",
"401 304 OFFCURVE",
"372 337 OFFCURVE",
"312 337 CURVE SMOOTH",
"244 337 OFFCURVE",
"206 298 OFFCURVE",
"193 233 CURVE SMOOTH",
"190 218 OFFCURVE",
"188 205 OFFCURVE",
"188 190 CURVE SMOOTH",
"188 135 OFFCURVE",
"217 102 OFFCURVE",
"277 102 CURVE SMOOTH"
);
}
);
width = 600;
}
);
unicode = 0036;
},
{
glyphname = seven;
lastChange = "2018-11-05 13:11:35 +0000";
layers = (
{
layerId = "05A52B16-A306-40FB-AA4D-96EE9622F9E6";
name = "Bold Italic";
paths = (
{
closed = 1;
nodes = (
"118 579 LINE",
"459 579 LINE",
"112 0 LINE",
"266 0 LINE",
"601 572 LINE",
"626 698 LINE",
"142 698 LINE"
);
}
);
width = 600;
}
);
unicode = 0037;
},
{
glyphname = eight;
layers = (
{
layerId = "05A52B16-A306-40FB-AA4D-96EE9622F9E6";
name = "Bold Italic";
paths = (
{
closed = 1;
nodes = (
"104 -12 OFFCURVE",
"31 61 OFFCURVE",
"31 165 CURVE SMOOTH",
"31 265 OFFCURVE",
"95 338 OFFCURVE",
"198 361 CURVE",
"199 368 LINE",
"144 391 OFFCURVE",
"115 437 OFFCURVE",
"115 505 CURVE SMOOTH",
"115 556 OFFCURVE",
"136 607 OFFCURVE",
"179 646 CURVE SMOOTH",
"222 685 OFFCURVE",
"287 710 OFFCURVE",
"375 710 CURVE SMOOTH",
"444 710 OFFCURVE",
"497 693 OFFCURVE",
"531 665 CURVE SMOOTH",
"565 637 OFFCURVE",
"581 597 OFFCURVE",
"581 550 CURVE SMOOTH",
"581 463 OFFCURVE",
"522 400 OFFCURVE",
"437 368 CURVE",
"436 360 LINE",
"500 340 OFFCURVE",
"537 294 OFFCURVE",
"537 210 CURVE SMOOTH",
"537 154 OFFCURVE",
"512 100 OFFCURVE",
"464 58 CURVE SMOOTH",
"416 16 OFFCURVE",
"346 -12 OFFCURVE",
"257 -12 CURVE SMOOTH"
);
},
{
closed = 1;
nodes = (
"332 100 OFFCURVE",
"373 134 OFFCURVE",
"384 190 CURVE SMOOTH",
"387 205 OFFCURVE",
"388 213 OFFCURVE",
"388 226 CURVE SMOOTH",
"388 274 OFFCURVE",
"358 303 OFFCURVE",
"299 303 CURVE SMOOTH",
"234 303 OFFCURVE",
"193 269 OFFCURVE",
"182 213 CURVE SMOOTH",
"179 198 OFFCURVE",
"178 190 OFFCURVE",
"178 177 CURVE SMOOTH",
"178 129 OFFCURVE",
"208 100 OFFCURVE",
"267 100 CURVE SMOOTH"
);
},
{
closed = 1;
nodes = (
"392 411 OFFCURVE",
"427 447 OFFCURVE",
"436 492 CURVE",
"437 499 OFFCURVE",
"439 507 OFFCURVE",
"440 514 CURVE SMOOTH",
"441 521 OFFCURVE",
"442 526 OFFCURVE",
"442 531 CURVE SMOOTH",
"442 571 OFFCURVE",
"414 598 OFFCURVE",
"357 598 CURVE SMOOTH",
"293 598 OFFCURVE",
"258 562 OFFCURVE",
"249 517 CURVE",
"248 510 OFFCURVE",
"246 503 OFFCURVE",
"245 496 CURVE SMOOTH",
"244 489 OFFCURVE",
"243 483 OFFCURVE",
"243 478 CURVE SMOOTH",
"243 438 OFFCURVE",
"271 411 OFFCURVE",
"328 411 CURVE SMOOTH"
);
}
);
width = 600;
}
);
unicode = 0038;
},
{
glyphname = nine;
layers = (
{
layerId = "05A52B16-A306-40FB-AA4D-96EE9622F9E6";
name = "Bold Italic";
paths = (
{
closed = 1;
nodes = (
"584 372 OFFCURVE",
"543 276 OFFCURVE",
"483 196 CURVE SMOOTH",
"422 115 OFFCURVE",
"340 47 OFFCURVE",
"259 0 CURVE",
"52 0 LINE",
"144 57 OFFCURVE",
"222 108 OFFCURVE",
"283 164 CURVE SMOOTH",
"343 219 OFFCURVE",
"387 278 OFFCURVE",
"414 351 CURVE",
"406 354 LINE",
"389 327 OFFCURVE",
"370 301 OFFCURVE",
"345 282 CURVE SMOOTH",
"320 262 OFFCURVE",
"288 249 OFFCURVE",
"245 249 CURVE SMOOTH",
"193 249 OFFCURVE",
"152 269 OFFCURVE",
"124 302 CURVE SMOOTH",
"95 335 OFFCURVE",
"79 384 OFFCURVE",
"79 441 CURVE SMOOTH",
"79 512 OFFCURVE",
"106 580 OFFCURVE",
"155 629 CURVE SMOOTH",
"204 678 OFFCURVE",
"276 710 OFFCURVE",
"365 710 CURVE SMOOTH",
"505 710 OFFCURVE",
"584 619 OFFCURVE",
"584 475 CURVE SMOOTH"
);
},
{
closed = 1;
nodes = (
"385 361 OFFCURVE",
"423 400 OFFCURVE",
"436 465 CURVE SMOOTH",
"439 480 OFFCURVE",
"441 493 OFFCURVE",
"441 508 CURVE SMOOTH",
"441 563 OFFCURVE",
"412 596 OFFCURVE",
"352 596 CURVE SMOOTH",
"285 596 OFFCURVE",
"246 557 OFFCURVE",
"233 492 CURVE SMOOTH",
"230 477 OFFCURVE",
"228 464 OFFCURVE",
"228 449 CURVE SMOOTH",
"228 394 OFFCURVE",
"257 361 OFFCURVE",
"317 361 CURVE SMOOTH"
);
}
);
width = 600;
}
);
unicode = 0039;
},
{
glyphname = ampersand;
layers = (
{
layerId = "05A52B16-A306-40FB-AA4D-96EE9622F9E6";
name = "Bold Italic";
paths = (
{
closed = 1;
nodes = (
"435 57 LINE",
"388 18 OFFCURVE",
"325 -12 OFFCURVE",
"236 -12 CURVE SMOOTH",
"168 -12 OFFCURVE",
"117 7 OFFCURVE",
"83 37 CURVE SMOOTH",
"49 67 OFFCURVE",
"31 109 OFFCURVE",
"31 158 CURVE SMOOTH",
"31 215 OFFCURVE",
"49 257 OFFCURVE",
"80 292 CURVE SMOOTH",
"111 327 OFFCURVE",
"155 353 OFFCURVE",
"206 380 CURVE",
"181 417 OFFCURVE",
"154 465 OFFCURVE",
"154 516 CURVE SMOOTH",
"154 575 OFFCURVE",
"178 623 OFFCURVE",
"219 657 CURVE SMOOTH",
"260 691 OFFCURVE",
"316 710 OFFCURVE",
"383 710 CURVE SMOOTH",
"436 710 OFFCURVE",
"481 697 OFFCURVE",
"513 672 CURVE SMOOTH",
"545 647 OFFCURVE",
"564 609 OFFCURVE",
"564 561 CURVE SMOOTH",
"564 513 OFFCURVE",
"543 475 OFFCURVE",
"511 443 CURVE SMOOTH",
"478 411 OFFCURVE",
"434 385 OFFCURVE",
"387 361 CURVE",
"470 244 LINE",
"493 285 OFFCURVE",
"507 334 OFFCURVE",
"518 385 CURVE",
"691 385 LINE",
"667 265 LINE",
"588 265 LINE",
"577 224 OFFCURVE",
"560 185 OFFCURVE",
"537 150 CURVE",
"643 0 LINE",
"476 0 LINE"
);
},
{
closed = 1;
nodes = (
"330 602 OFFCURVE",
"304 582 OFFCURVE",
"297 551 CURVE",
"294 544 OFFCURVE",
"294 531 OFFCURVE",
"294 522 CURVE SMOOTH",
"294 498 OFFCURVE",
"305 476 OFFCURVE",
"330 441 CURVE",
"393 474 OFFCURVE",
"423 500 OFFCURVE",
"423 548 CURVE SMOOTH",
"423 581 OFFCURVE",
"399 602 OFFCURVE",
"363 602 CURVE SMOOTH"
);
},
{
closed = 1;
nodes = (
"311 107 OFFCURVE",
"347 117 OFFCURVE",
"378 138 CURVE",
"262 301 LINE",
"219 278 OFFCURVE",
"188 253 OFFCURVE",
"179 209 CURVE",
"177 201 OFFCURVE",
"176 192 OFFCURVE",
"176 182 CURVE SMOOTH",
"176 132 OFFCURVE",
"208 107 OFFCURVE",
"272 107 CURVE SMOOTH"
);
}
);
width = 704;
}
);
leftKerningGroup = ampersand;
rightKerningGroup = ampersand;
unicode = 0026;
},
{
glyphname = at;
layers = (
{
layerId = "05A52B16-A306-40FB-AA4D-96EE9622F9E6";
name = "Bold Italic";
paths = (
{
closed = 1;
nodes = (
"384 -121 LINE SMOOTH",
"284 -121 OFFCURVE",
"202 -86 OFFCURVE",
"146 -28 CURVE SMOOTH",
"90 30 OFFCURVE",
"59 112 OFFCURVE",
"59 211 CURVE SMOOTH",
"59 246 OFFCURVE",
"62 280 OFFCURVE",
"70 320 CURVE SMOOTH",
"93 435 OFFCURVE",
"149 532 OFFCURVE",
"227 601 CURVE SMOOTH",
"305 669 OFFCURVE",
"407 709 OFFCURVE",
"523 709 CURVE SMOOTH",
"614 709 OFFCURVE",
"696 679 OFFCURVE",
"756 625 CURVE SMOOTH",
"815 571 OFFCURVE",
"851 490 OFFCURVE",
"851 393 CURVE SMOOTH",
"851 341 OFFCURVE",
"840 279 OFFCURVE",
"812 223 CURVE SMOOTH",
"783 167 OFFCURVE",
"743 124 OFFCURVE",
"695 100 CURVE SMOOTH",
"670 88 OFFCURVE",
"645 82 OFFCURVE",
"618 82 CURVE SMOOTH",
"546 82 OFFCURVE",
"506 115 OFFCURVE",
"506 164 CURVE SMOOTH",
"506 175 LINE",
"501 175 LINE",
"493 151 OFFCURVE",
"478 129 OFFCURVE",
"458 112 CURVE SMOOTH",
"438 95 OFFCURVE",
"412 84 OFFCURVE",
"383 84 CURVE SMOOTH",
"300 84 OFFCURVE",
"252 134 OFFCURVE",
"252 233 CURVE SMOOTH",
"252 276 OFFCURVE",
"263 336 OFFCURVE",
"288 386 CURVE SMOOTH",
"312 436 OFFCURVE",
"346 469 OFFCURVE",
"385 486 CURVE SMOOTH",
"404 494 OFFCURVE",
"424 498 OFFCURVE",
"444 498 CURVE SMOOTH",
"504 498 OFFCURVE",
"530 470 OFFCURVE",
"541 431 CURVE",
"545 431 LINE",
"557 489 LINE",
"667 489 LINE",
"615 227 LINE SMOOTH",
"613 216 OFFCURVE",
"612 207 OFFCURVE",
"612 201 CURVE SMOOTH",
"612 179 OFFCURVE",
"622 168 OFFCURVE",
"643 168 CURVE SMOOTH",
"664 168 OFFCURVE",
"684 180 OFFCURVE",
"703 203 CURVE SMOOTH",
"722 226 OFFCURVE",
"736 263 OFFCURVE",
"747 316 CURVE SMOOTH",
"753 346 LINE SMOOTH",
"757 366 OFFCURVE",
"759 389 OFFCURVE",
"759 408 CURVE SMOOTH",
"759 476 OFFCURVE",
"732 531 OFFCURVE",
"688 568 CURVE SMOOTH",
"643 604 OFFCURVE",
"580 624 OFFCURVE",
"509 624 CURVE SMOOTH",
"425 624 OFFCURVE",
"349 595 OFFCURVE",
"290 544 CURVE SMOOTH",
"231 492 OFFCURVE",
"189 420 OFFCURVE",
"172 332 CURVE SMOOTH",
"164 292 LINE SMOOTH",
"157 261 OFFCURVE",
"154 236 OFFCURVE",
"154 209 CURVE SMOOTH",
"154 133 OFFCURVE",
"178 73 OFFCURVE",
"221 30 CURVE SMOOTH",
"264 -13 OFFCURVE",
"325 -36 OFFCURVE",
"401 -36 CURVE SMOOTH",
"590 -36 LINE",
"573 -121 LINE"
);
},
{
closed = 1;
nodes = (
"445 174 OFFCURVE",
"464 185 OFFCURVE",
"480 199 CURVE SMOOTH",
"495 213 OFFCURVE",
"505 230 OFFCURVE",
"508 245 CURVE SMOOTH",
"528 345 LINE SMOOTH",
"535 381 OFFCURVE",
"507 408 OFFCURVE",
"464 408 CURVE SMOOTH",
"417 408 OFFCURVE",
"392 375 OFFCURVE",
"381 324 CURVE SMOOTH",
"367 254 LINE SMOOTH",
"366 249 OFFCURVE",
"365 245 OFFCURVE",
"365 242 CURVE SMOOTH",
"365 239 OFFCURVE",
"365 236 OFFCURVE",
"365 233 CURVE SMOOTH",
"365 194 OFFCURVE",
"385 174 OFFCURVE",
"424 174 CURVE SMOOTH"
);
}
);
width = 891;
}
);
leftKerningGroup = at;
rightKerningGroup = at;
unicode = 0040;
},
{
glyphname = hyphen;
layers = (
{
layerId = "05A52B16-A306-40FB-AA4D-96EE9622F9E6";
name = "Bold Italic";
paths = (
{
closed = 1;
nodes = (
"45 238 LINE",
"72 372 LINE",
"367 372 LINE",
"340 238 LINE"
);
}
);
width = 395;
}
);
leftKerningGroup = hyphen;
rightKerningGroup = hyphen;
unicode = 002D;
},
{
glyphname = uni00AD;
layers = (
{
layerId = "05A52B16-A306-40FB-AA4D-96EE9622F9E6";
name = "Bold Italic";
paths = (
{
closed = 1;
nodes = (
"45 238 LINE",
"72 372 LINE",
"367 372 LINE",
"340 238 LINE"
);
}
);
width = 395;
}
);
leftKerningGroup = hyphen;
rightKerningGroup = hyphen;
unicode = 00AD;
},
{
glyphname = endash;
layers = (
{
layerId = "05A52B16-A306-40FB-AA4D-96EE9622F9E6";
name = "Bold Italic";
paths = (
{
closed = 1;
nodes = (
"32 246 LINE",
"55 361 LINE",
"566 361 LINE",
"543 246 LINE"
);
}
);
width = 583;
}
);
leftKerningGroup = hyphen;
rightKerningGroup = hyphen;
unicode = 2013;
},
{
glyphname = emdash;
layers = (
{
layerId = "05A52B16-A306-40FB-AA4D-96EE9622F9E6";
name = "Bold Italic";
paths = (
{
closed = 1;
nodes = (
"32 246 LINE",
"55 361 LINE",
"756 361 LINE",
"733 246 LINE"
);
}
);
width = 773;
}
);
leftKerningGroup = hyphen;
rightKerningGroup = hyphen;
unicode = 2014;
},
{
glyphname = underscore;
layers = (
{
layerId = "05A52B16-A306-40FB-AA4D-96EE9622F9E6";
name = "Bold Italic";
paths = (
{
closed = 1;
nodes = (
"-62 -187 LINE",
"-39 -68 LINE",
"454 -68 LINE",
"431 -187 LINE"
);
}
);
width = 548;
}
);
leftKerningGroup = underscore;
rightKerningGroup = underscore;
unicode = 005F;
},
{
glyphname = period;
layers = (
{
layerId = "05A52B16-A306-40FB-AA4D-96EE9622F9E6";
name = "Bold Italic";
paths = (
{
closed = 1;
nodes = (
"46 -11 OFFCURVE",
"26 20 OFFCURVE",
"26 49 CURVE SMOOTH",
"26 54 OFFCURVE",
"27 62 OFFCURVE",
"29 71 CURVE",
"30 80 OFFCURVE",
"32 88 OFFCURVE",
"33 95 CURVE",
"41 139 OFFCURVE",
"74 169 OFFCURVE",
"130 169 CURVE SMOOTH",
"186 169 OFFCURVE",
"206 138 OFFCURVE",
"206 109 CURVE SMOOTH",
"206 104 OFFCURVE",
"205 97 OFFCURVE",
"204 88 CURVE",
"202 79 OFFCURVE",
"200 70 OFFCURVE",
"199 63 CURVE",
"191 19 OFFCURVE",
"158 -11 OFFCURVE",
"102 -11 CURVE SMOOTH"
);
}
);
width = 307;
}
);
leftKerningGroup = period;
rightKerningGroup = period;
unicode = 002E;
},
{
glyphname = ellipsis;
layers = (
{
layerId = "05A52B16-A306-40FB-AA4D-96EE9622F9E6";
name = "Bold Italic";
paths = (
{
closed = 1;
nodes = (
"46 -11 OFFCURVE",
"26 20 OFFCURVE",
"26 49 CURVE SMOOTH",
"26 54 OFFCURVE",
"27 62 OFFCURVE",
"29 71 CURVE",
"30 80 OFFCURVE",
"32 88 OFFCURVE",
"33 95 CURVE",
"41 139 OFFCURVE",
"74 169 OFFCURVE",
"130 169 CURVE SMOOTH",
"186 169 OFFCURVE",
"206 138 OFFCURVE",
"206 109 CURVE SMOOTH",
"206 104 OFFCURVE",
"205 97 OFFCURVE",
"204 88 CURVE",
"202 79 OFFCURVE",
"200 70 OFFCURVE",
"199 63 CURVE",
"191 19 OFFCURVE",
"158 -11 OFFCURVE",
"102 -11 CURVE SMOOTH"
);
},
{
closed = 1;
nodes = (
"337 -11 OFFCURVE",
"317 20 OFFCURVE",
"317 49 CURVE SMOOTH",
"317 54 OFFCURVE",
"318 62 OFFCURVE",
"320 71 CURVE",
"321 80 OFFCURVE",
"323 88 OFFCURVE",
"324 95 CURVE",
"332 139 OFFCURVE",
"365 169 OFFCURVE",
"421 169 CURVE SMOOTH",
"477 169 OFFCURVE",
"497 138 OFFCURVE",
"497 109 CURVE SMOOTH",
"497 104 OFFCURVE",
"496 97 OFFCURVE",
"495 88 CURVE",
"493 79 OFFCURVE",
"491 70 OFFCURVE",
"490 63 CURVE",
"482 19 OFFCURVE",
"449 -11 OFFCURVE",
"393 -11 CURVE SMOOTH"
);
},
{
closed = 1;
nodes = (
"628 -11 OFFCURVE",
"608 20 OFFCURVE",
"608 49 CURVE SMOOTH",
"608 54 OFFCURVE",
"609 62 OFFCURVE",
"611 71 CURVE",
"612 80 OFFCURVE",
"614 88 OFFCURVE",
"615 95 CURVE",
"623 139 OFFCURVE",
"656 169 OFFCURVE",
"712 169 CURVE SMOOTH",
"768 169 OFFCURVE",
"788 138 OFFCURVE",
"788 109 CURVE SMOOTH",
"788 104 OFFCURVE",
"787 97 OFFCURVE",
"786 88 CURVE",
"784 79 OFFCURVE",
"782 70 OFFCURVE",
"781 63 CURVE",
"773 19 OFFCURVE",
"740 -11 OFFCURVE",
"684 -11 CURVE SMOOTH"
);
}
);
width = 889;
}
);
leftKerningGroup = period;
rightKerningGroup = period;
unicode = 2026;
},
{
glyphname = colon;
layers = (
{
layerId = "05A52B16-A306-40FB-AA4D-96EE9622F9E6";
name = "Bold Italic";
paths = (
{
closed = 1;
nodes = (
"56 -11 OFFCURVE",
"36 20 OFFCURVE",
"36 49 CURVE SMOOTH",
"36 54 OFFCURVE",
"37 62 OFFCURVE",
"39 71 CURVE",
"40 80 OFFCURVE",
"42 88 OFFCURVE",
"43 95 CURVE",
"51 139 OFFCURVE",
"84 169 OFFCURVE",
"140 169 CURVE SMOOTH",
"196 169 OFFCURVE",
"216 138 OFFCURVE",
"216 109 CURVE SMOOTH",
"216 104 OFFCURVE",
"215 97 OFFCURVE",
"214 88 CURVE",
"212 79 OFFCURVE",
"210 70 OFFCURVE",
"209 63 CURVE",
"201 19 OFFCURVE",
"168 -11 OFFCURVE",
"112 -11 CURVE SMOOTH"
);
},
{
closed = 1;
nodes = (
"129 357 OFFCURVE",
"109 388 OFFCURVE",
"109 417 CURVE SMOOTH",
"109 422 OFFCURVE",
"110 430 OFFCURVE",
"112 439 CURVE",
"113 448 OFFCURVE",
"115 456 OFFCURVE",
"116 463 CURVE",
"124 507 OFFCURVE",
"157 537 OFFCURVE",
"213 537 CURVE SMOOTH",
"269 537 OFFCURVE",
"289 506 OFFCURVE",
"289 477 CURVE SMOOTH",
"289 472 OFFCURVE",
"288 465 OFFCURVE",
"287 456 CURVE",
"285 447 OFFCURVE",
"283 438 OFFCURVE",
"282 431 CURVE",
"274 387 OFFCURVE",
"241 357 OFFCURVE",
"185 357 CURVE SMOOTH"
);
}
);
width = 327;
}
);
leftKerningGroup = colon;
unicode = 003A;
},
{
glyphname = comma;
layers = (
{
layerId = "05A52B16-A306-40FB-AA4D-96EE9622F9E6";
name = "Bold Italic";
paths = (
{
closed = 1;
nodes = (
"190 169 OFFCURVE",
"210 138 OFFCURVE",
"210 103 CURVE SMOOTH",
"210 92 OFFCURVE",
"207 74 OFFCURVE",
"204 59 CURVE SMOOTH",
"189 -12 OFFCURVE",
"139 -94 OFFCURVE",
"63 -147 CURVE",
"-43 -147 LINE",
"13 -103 OFFCURVE",
"55 -61 OFFCURVE",
"82 -8 CURVE",
"45 0 OFFCURVE",
"31 25 OFFCURVE",
"31 49 CURVE SMOOTH",
"31 54 OFFCURVE",
"32 62 OFFCURVE",
"34 71 CURVE",
"35 80 OFFCURVE",
"37 88 OFFCURVE",
"38 95 CURVE",
"47 140 OFFCURVE",
"78 169 OFFCURVE",
"133 169 CURVE SMOOTH"
);
}
);
width = 307;
}
);
leftKerningGroup = period;
rightKerningGroup = period;
unicode = 002C;
},
{
glyphname = semicolon;
layers = (
{
layerId = "05A52B16-A306-40FB-AA4D-96EE9622F9E6";
name = "Bold Italic";
paths = (
{
closed = 1;
nodes = (
"200 169 OFFCURVE",
"220 138 OFFCURVE",
"220 103 CURVE SMOOTH",
"220 92 OFFCURVE",
"217 74 OFFCURVE",
"214 59 CURVE SMOOTH",
"199 -12 OFFCURVE",
"149 -94 OFFCURVE",
"73 -147 CURVE",
"-33 -147 LINE",
"23 -103 OFFCURVE",
"65 -61 OFFCURVE",
"92 -8 CURVE",
"55 0 OFFCURVE",
"41 25 OFFCURVE",
"41 49 CURVE SMOOTH",
"41 54 OFFCURVE",
"42 62 OFFCURVE",
"44 71 CURVE",
"45 80 OFFCURVE",
"47 88 OFFCURVE",
"48 95 CURVE",
"57 140 OFFCURVE",
"88 169 OFFCURVE",
"143 169 CURVE SMOOTH"
);
},
{
closed = 1;
nodes = (
"129 357 OFFCURVE",
"109 388 OFFCURVE",
"109 417 CURVE SMOOTH",
"109 422 OFFCURVE",
"110 430 OFFCURVE",
"112 439 CURVE",
"113 448 OFFCURVE",
"115 456 OFFCURVE",
"116 463 CURVE",
"124 507 OFFCURVE",
"157 537 OFFCURVE",
"213 537 CURVE SMOOTH",
"269 537 OFFCURVE",
"289 506 OFFCURVE",
"289 477 CURVE SMOOTH",
"289 472 OFFCURVE",
"288 465 OFFCURVE",
"287 456 CURVE",
"285 447 OFFCURVE",
"283 438 OFFCURVE",
"282 431 CURVE",
"274 387 OFFCURVE",
"241 357 OFFCURVE",
"185 357 CURVE SMOOTH"
);
}
);
width = 327;
}
);
leftKerningGroup = colon;
unicode = 003B;
},
{
glyphname = quotesingle;
layers = (
{
layerId = "05A52B16-A306-40FB-AA4D-96EE9622F9E6";
name = "Bold Italic";
paths = (
{
closed = 1;
nodes = (
"96 414 LINE",
"161 740 LINE",
"293 740 LINE",
"228 414 LINE"
);
}
);
width = 263;
}
);
leftKerningGroup = quotesingle;
rightKerningGroup = quotesingle;
unicode = 0027;
},
{
glyphname = quotedbl;
layers = (
{
layerId = "05A52B16-A306-40FB-AA4D-96EE9622F9E6";
name = "Bold Italic";
paths = (
{
closed = 1;
nodes = (
"96 414 LINE",
"161 740 LINE",
"293 740 LINE",
"228 414 LINE"
);
},
{
closed = 1;
nodes = (
"321 414 LINE",
"386 740 LINE",
"518 740 LINE",
"453 414 LINE"
);
}
);
width = 488;
}
);
leftKerningGroup = quotesingle;
rightKerningGroup = quotesingle;
unicode = 0022;
},
{
glyphname = quoteleft;
layers = (
{
layerId = "05A52B16-A306-40FB-AA4D-96EE9622F9E6";
name = "Bold Italic";
paths = (
{
closed = 1;
nodes = (
"116 440 OFFCURVE",
"97 472 OFFCURVE",
"97 501 CURVE SMOOTH",
"97 513 OFFCURVE",
"100 529 OFFCURVE",
"103 544 CURVE SMOOTH",
"108 573 OFFCURVE",
"126 610 OFFCURVE",
"151 645 CURVE SMOOTH",
"175 680 OFFCURVE",
"208 713 OFFCURVE",
"244 740 CURVE",
"343 740 LINE",
"287 697 OFFCURVE",
"252 661 OFFCURVE",
"224 610 CURVE",
"261 602 OFFCURVE",
"275 578 OFFCURVE",
"275 555 CURVE SMOOTH",
"275 550 OFFCURVE",
"274 543 OFFCURVE",
"273 535 CURVE",
"271 526 OFFCURVE",
"269 518 OFFCURVE",
"268 511 CURVE",
"260 471 OFFCURVE",
"228 440 OFFCURVE",
"172 440 CURVE SMOOTH"
);
}
);
width = 286;
}
);
leftKerningGroup = quoteleft;
rightKerningGroup = quoteleft;
unicode = 2018;
},
{
glyphname = quoteright;
layers = (
{
layerId = "05A52B16-A306-40FB-AA4D-96EE9622F9E6";
name = "Bold Italic";
paths = (
{
closed = 1;
nodes = (
"293 750 OFFCURVE",
"312 718 OFFCURVE",
"312 689 CURVE SMOOTH",
"312 677 OFFCURVE",
"309 661 OFFCURVE",
"306 646 CURVE SMOOTH",
"299 615 OFFCURVE",
"283 580 OFFCURVE",
"259 545 CURVE SMOOTH",
"234 510 OFFCURVE",
"201 475 OFFCURVE",
"165 450 CURVE",
"66 450 LINE",
"122 493 OFFCURVE",
"157 529 OFFCURVE",
"185 580 CURVE",
"148 588 OFFCURVE",
"134 612 OFFCURVE",
"134 635 CURVE SMOOTH",
"134 640 OFFCURVE",
"135 647 OFFCURVE",
"137 656 CURVE",
"138 664 OFFCURVE",
"140 672 OFFCURVE",
"141 679 CURVE",
"149 719 OFFCURVE",
"181 750 OFFCURVE",
"237 750 CURVE SMOOTH"
);
}
);
width = 286;
}
);
leftKerningGroup = quoteright;
rightKerningGroup = quoteright;
unicode = 2019;
},
{
glyphname = quotedblleft;
layers = (
{
layerId = "05A52B16-A306-40FB-AA4D-96EE9622F9E6";
name = "Bold Italic";
paths = (
{
closed = 1;
nodes = (
"116 440 OFFCURVE",
"97 472 OFFCURVE",
"97 501 CURVE SMOOTH",
"97 513 OFFCURVE",
"100 529 OFFCURVE",
"103 544 CURVE SMOOTH",
"108 573 OFFCURVE",
"126 610 OFFCURVE",
"151 645 CURVE SMOOTH",
"175 680 OFFCURVE",
"208 713 OFFCURVE",
"244 740 CURVE",
"343 740 LINE",
"287 697 OFFCURVE",
"252 661 OFFCURVE",
"224 610 CURVE",
"261 602 OFFCURVE",
"275 578 OFFCURVE",
"275 555 CURVE SMOOTH",
"275 550 OFFCURVE",
"274 543 OFFCURVE",
"273 535 CURVE",
"271 526 OFFCURVE",
"269 518 OFFCURVE",
"268 511 CURVE",
"260 471 OFFCURVE",
"228 440 OFFCURVE",
"172 440 CURVE SMOOTH"
);
},
{
closed = 1;
nodes = (
"350 440 OFFCURVE",
"331 472 OFFCURVE",
"331 501 CURVE SMOOTH",
"331 513 OFFCURVE",
"334 529 OFFCURVE",
"337 544 CURVE SMOOTH",
"342 573 OFFCURVE",
"360 610 OFFCURVE",
"385 645 CURVE SMOOTH",
"409 680 OFFCURVE",
"442 713 OFFCURVE",
"478 740 CURVE",
"577 740 LINE",
"521 697 OFFCURVE",
"486 661 OFFCURVE",
"458 610 CURVE",
"495 602 OFFCURVE",
"509 578 OFFCURVE",
"509 555 CURVE SMOOTH",
"509 550 OFFCURVE",
"508 543 OFFCURVE",
"507 535 CURVE",
"505 526 OFFCURVE",
"503 518 OFFCURVE",
"502 511 CURVE",
"494 471 OFFCURVE",
"462 440 OFFCURVE",
"406 440 CURVE SMOOTH"
);
}
);
width = 520;
}
);
leftKerningGroup = quoteleft;
rightKerningGroup = quoteleft;
unicode = 201C;
},
{
glyphname = quotedblright;
layers = (
{
layerId = "05A52B16-A306-40FB-AA4D-96EE9622F9E6";
name = "Bold Italic";
paths = (
{
closed = 1;
nodes = (
"293 750 OFFCURVE",
"312 718 OFFCURVE",
"312 689 CURVE SMOOTH",
"312 677 OFFCURVE",
"309 661 OFFCURVE",
"306 646 CURVE SMOOTH",
"299 615 OFFCURVE",
"283 580 OFFCURVE",
"259 545 CURVE SMOOTH",
"234 510 OFFCURVE",
"201 475 OFFCURVE",
"165 450 CURVE",
"66 450 LINE",
"122 493 OFFCURVE",
"157 529 OFFCURVE",
"185 580 CURVE",
"148 588 OFFCURVE",
"134 612 OFFCURVE",
"134 635 CURVE SMOOTH",
"134 640 OFFCURVE",
"135 647 OFFCURVE",
"137 656 CURVE",
"138 664 OFFCURVE",
"140 672 OFFCURVE",
"141 679 CURVE",
"149 719 OFFCURVE",
"181 750 OFFCURVE",
"237 750 CURVE SMOOTH"
);
},
{
closed = 1;
nodes = (
"527 750 OFFCURVE",
"546 718 OFFCURVE",
"546 689 CURVE SMOOTH",
"546 677 OFFCURVE",
"543 661 OFFCURVE",
"540 646 CURVE SMOOTH",
"533 615 OFFCURVE",
"517 580 OFFCURVE",
"493 545 CURVE SMOOTH",
"468 510 OFFCURVE",
"435 475 OFFCURVE",
"399 450 CURVE",
"300 450 LINE",
"356 493 OFFCURVE",
"391 529 OFFCURVE",
"419 580 CURVE",
"382 588 OFFCURVE",
"368 612 OFFCURVE",
"368 635 CURVE SMOOTH",
"368 640 OFFCURVE",
"369 647 OFFCURVE",
"371 656 CURVE",
"372 664 OFFCURVE",
"374 672 OFFCURVE",
"375 679 CURVE",
"383 719 OFFCURVE",
"415 750 OFFCURVE",
"471 750 CURVE SMOOTH"
);
}
);
width = 520;
}
);
leftKerningGroup = quoteright;
rightKerningGroup = quoteright;
unicode = 201D;
},
{
glyphname = quotesinglbase;
layers = (
{
layerId = "05A52B16-A306-40FB-AA4D-96EE9622F9E6";
name = "Bold Italic";
paths = (
{
closed = 1;
nodes = (
"182 183 OFFCURVE",
"201 151 OFFCURVE",
"201 122 CURVE SMOOTH",
"201 110 OFFCURVE",
"198 94 OFFCURVE",
"195 79 CURVE SMOOTH",
"188 48 OFFCURVE",
"172 13 OFFCURVE",
"148 -22 CURVE SMOOTH",
"123 -57 OFFCURVE",
"90 -92 OFFCURVE",
"54 -117 CURVE",
"-45 -117 LINE",
"11 -74 OFFCURVE",
"46 -38 OFFCURVE",
"74 13 CURVE",
"37 21 OFFCURVE",
"23 45 OFFCURVE",
"23 68 CURVE SMOOTH",
"23 73 OFFCURVE",
"24 80 OFFCURVE",
"26 89 CURVE",
"27 97 OFFCURVE",
"29 105 OFFCURVE",
"30 112 CURVE",
"38 152 OFFCURVE",
"70 183 OFFCURVE",
"126 183 CURVE SMOOTH"
);
}
);
width = 286;
}
);
leftKerningGroup = period;
rightKerningGroup = period;
unicode = 201A;
},
{
glyphname = quotedblbase;
layers = (
{
layerId = "05A52B16-A306-40FB-AA4D-96EE9622F9E6";
name = "Bold Italic";
paths = (
{
closed = 1;
nodes = (
"182 183 OFFCURVE",
"201 151 OFFCURVE",
"201 122 CURVE SMOOTH",
"201 110 OFFCURVE",
"198 94 OFFCURVE",
"195 79 CURVE SMOOTH",
"188 48 OFFCURVE",
"172 13 OFFCURVE",
"148 -22 CURVE SMOOTH",
"123 -57 OFFCURVE",
"90 -92 OFFCURVE",
"54 -117 CURVE",
"-45 -117 LINE",
"11 -74 OFFCURVE",
"46 -38 OFFCURVE",
"74 13 CURVE",
"37 21 OFFCURVE",
"23 45 OFFCURVE",
"23 68 CURVE SMOOTH",
"23 73 OFFCURVE",
"24 80 OFFCURVE",
"26 89 CURVE",
"27 97 OFFCURVE",
"29 105 OFFCURVE",
"30 112 CURVE",
"38 152 OFFCURVE",
"70 183 OFFCURVE",
"126 183 CURVE SMOOTH"
);
},
{
closed = 1;
nodes = (
"416 183 OFFCURVE",
"435 151 OFFCURVE",
"435 122 CURVE SMOOTH",
"435 110 OFFCURVE",
"432 94 OFFCURVE",
"429 79 CURVE SMOOTH",
"422 48 OFFCURVE",
"406 13 OFFCURVE",
"382 -22 CURVE SMOOTH",
"357 -57 OFFCURVE",
"324 -92 OFFCURVE",
"288 -117 CURVE",
"189 -117 LINE",
"245 -74 OFFCURVE",
"280 -38 OFFCURVE",
"308 13 CURVE",
"271 21 OFFCURVE",
"257 45 OFFCURVE",
"257 68 CURVE SMOOTH",
"257 73 OFFCURVE",
"258 80 OFFCURVE",
"260 89 CURVE",
"261 97 OFFCURVE",
"263 105 OFFCURVE",
"264 112 CURVE",
"272 152 OFFCURVE",
"304 183 OFFCURVE",
"360 183 CURVE SMOOTH"
);
}
);
width = 520;
}
);
leftKerningGroup = period;
rightKerningGroup = period;
unicode = 201E;
},
{
glyphname = guilsinglleft;
layers = (
{
layerId = "05A52B16-A306-40FB-AA4D-96EE9622F9E6";
name = "Bold Italic";
paths = (
{
closed = 1;
nodes = (
"190 49 LINE",
"34 209 LINE",
"60 337 LINE",
"263 494 LINE",
"304 401 LINE",
"153 263 LINE",
"247 132 LINE"
);
}
);
width = 312;
}
);
leftKerningGroup = guilsinglleft;
rightKerningGroup = guilsinglleft;
unicode = 2039;
},
{
glyphname = guilsinglright;
layers = (
{
layerId = "05A52B16-A306-40FB-AA4D-96EE9622F9E6";
name = "Bold Italic";
paths = (
{
closed = 1;
nodes = (
"11 143 LINE",
"162 281 LINE",
"68 412 LINE",
"125 495 LINE",
"281 335 LINE",
"255 207 LINE",
"52 50 LINE"
);
}
);
width = 312;
}
);
leftKerningGroup = guilsinglright;
rightKerningGroup = guilsinglright;
unicode = 203A;
},
{
glyphname = guillemotleft;
layers = (
{
layerId = "05A52B16-A306-40FB-AA4D-96EE9622F9E6";
name = "Bold Italic";
paths = (
{
closed = 1;
nodes = (
"190 49 LINE",
"34 209 LINE",
"60 337 LINE",
"263 494 LINE",
"304 401 LINE",
"153 263 LINE",
"247 132 LINE"
);
},
{
closed = 1;
nodes = (
"440 49 LINE",
"284 209 LINE",
"310 337 LINE",
"513 494 LINE",
"554 401 LINE",
"403 263 LINE",
"497 132 LINE"
);
}
);
width = 562;
}
);
leftKerningGroup = guilsinglleft;
rightKerningGroup = guilsinglleft;
unicode = 00AB;
},
{
glyphname = guillemotright;
layers = (
{
layerId = "05A52B16-A306-40FB-AA4D-96EE9622F9E6";
name = "Bold Italic";
paths = (
{
closed = 1;
nodes = (
"261 143 LINE",
"412 281 LINE",
"318 412 LINE",
"375 495 LINE",
"531 335 LINE",
"505 207 LINE",
"302 50 LINE"
);
},
{
closed = 1;
nodes = (
"11 143 LINE",
"162 281 LINE",
"68 412 LINE",
"125 495 LINE",
"281 335 LINE",
"255 207 LINE",
"52 50 LINE"
);
}
);
width = 562;
}
);
leftKerningGroup = guilsinglright;
rightKerningGroup = guilsinglright;
unicode = 00BB;
},
{
glyphname = exclamdown;
layers = (
{
layerId = "05A52B16-A306-40FB-AA4D-96EE9622F9E6";
name = "Bold Italic";
paths = (
{
closed = 1;
nodes = (
"-9 -173 LINE",
"30 21 LINE",
"132 305 LINE",
"195 305 LINE",
"186 21 LINE",
"147 -173 LINE"
);
},
{
closed = 1;
nodes = (
"119 361 OFFCURVE",
"98 386 OFFCURVE",
"98 419 CURVE SMOOTH",
"98 422 OFFCURVE",
"98 427 OFFCURVE",
"99 432 CURVE",
"99 437 OFFCURVE",
"101 446 OFFCURVE",
"104 461 CURVE SMOOTH",
"113 508 OFFCURVE",
"145 537 OFFCURVE",
"205 537 CURVE SMOOTH",
"261 537 OFFCURVE",
"282 512 OFFCURVE",
"282 479 CURVE SMOOTH",
"282 476 OFFCURVE",
"282 472 OFFCURVE",
"282 467 CURVE",
"281 462 OFFCURVE",
"279 452 OFFCURVE",
"276 437 CURVE SMOOTH",
"267 390 OFFCURVE",
"235 361 OFFCURVE",
"175 361 CURVE SMOOTH"
);
}
);
width = 314;
}
);
leftKerningGroup = exclamdown;
rightKerningGroup = exclamdown;
unicode = 00A1;
},
{
glyphname = exclam;
layers = (
{
layerId = "05A52B16-A306-40FB-AA4D-96EE9622F9E6";
name = "Bold Italic";
paths = (
{
closed = 1;
nodes = (
"119 220 LINE",
"130 504 LINE",
"168 698 LINE",
"320 698 LINE",
"282 504 LINE",
"181 220 LINE"
);
},
{
closed = 1;
nodes = (
"48 -12 OFFCURVE",
"27 13 OFFCURVE",
"27 46 CURVE SMOOTH",
"27 49 OFFCURVE",
"27 54 OFFCURVE",
"28 59 CURVE",
"28 64 OFFCURVE",
"30 73 OFFCURVE",
"33 88 CURVE SMOOTH",
"42 135 OFFCURVE",
"74 164 OFFCURVE",
"134 164 CURVE SMOOTH",
"190 164 OFFCURVE",
"211 139 OFFCURVE",
"211 106 CURVE SMOOTH",
"211 103 OFFCURVE",
"211 99 OFFCURVE",
"211 94 CURVE",
"210 89 OFFCURVE",
"208 79 OFFCURVE",
"205 64 CURVE SMOOTH",
"196 17 OFFCURVE",
"164 -12 OFFCURVE",
"104 -12 CURVE SMOOTH"
);
}
);
width = 314;
}
);
leftKerningGroup = exclam;
unicode = 0021;
},
{
glyphname = questiondown;
layers = (
{
layerId = "05A52B16-A306-40FB-AA4D-96EE9622F9E6";
name = "Bold Italic";
paths = (
{
closed = 1;
nodes = (
"57 -185 OFFCURVE",
"-18 -120 OFFCURVE",
"-18 -17 CURVE SMOOTH",
"-18 39 OFFCURVE",
"5 91 OFFCURVE",
"42 132 CURVE SMOOTH",
"79 173 OFFCURVE",
"132 204 OFFCURVE",
"191 216 CURVE",
"208 292 LINE",
"345 292 LINE",
"313 139 LINE",
"205 128 OFFCURVE",
"151 96 OFFCURVE",
"136 37 CURVE",
"133 28 OFFCURVE",
"131 14 OFFCURVE",
"131 1 CURVE SMOOTH",
"131 -43 OFFCURVE",
"165 -63 OFFCURVE",
"205 -63 CURVE SMOOTH",
"258 -63 OFFCURVE",
"295 -27 OFFCURVE",
"316 26 CURVE",
"430 -25 LINE",
"407 -73 OFFCURVE",
"378 -113 OFFCURVE",
"338 -141 CURVE SMOOTH",
"298 -169 OFFCURVE",
"248 -185 OFFCURVE",
"185 -185 CURVE SMOOTH"
);
},
{
closed = 1;
nodes = (
"232 361 OFFCURVE",
"211 386 OFFCURVE",
"211 419 CURVE SMOOTH",
"211 422 OFFCURVE",
"211 427 OFFCURVE",
"212 432 CURVE",
"212 437 OFFCURVE",
"214 446 OFFCURVE",
"217 461 CURVE SMOOTH",
"226 508 OFFCURVE",
"258 537 OFFCURVE",
"318 537 CURVE SMOOTH",
"374 537 OFFCURVE",
"395 512 OFFCURVE",
"395 479 CURVE SMOOTH",
"395 476 OFFCURVE",
"395 472 OFFCURVE",
"395 467 CURVE",
"394 462 OFFCURVE",
"392 452 OFFCURVE",
"389 437 CURVE SMOOTH",
"380 390 OFFCURVE",
"348 361 OFFCURVE",
"288 361 CURVE SMOOTH"
);
}
);
width = 490;
}
);
leftKerningGroup = questiondown;
rightKerningGroup = questiondown;
unicode = 00BF;
},
{
glyphname = question;
layers = (
{
layerId = "05A52B16-A306-40FB-AA4D-96EE9622F9E6";
name = "Bold Italic";
paths = (
{
closed = 1;
nodes = (
"149 233 LINE",
"181 386 LINE",
"289 397 OFFCURVE",
"343 429 OFFCURVE",
"358 488 CURVE",
"361 497 OFFCURVE",
"363 511 OFFCURVE",
"363 524 CURVE SMOOTH",
"363 568 OFFCURVE",
"329 588 OFFCURVE",
"289 588 CURVE SMOOTH",
"236 588 OFFCURVE",
"199 552 OFFCURVE",
"178 499 CURVE",
"64 550 LINE",
"85 598 OFFCURVE",
"116 638 OFFCURVE",
"156 666 CURVE SMOOTH",
"196 694 OFFCURVE",
"246 710 OFFCURVE",
"309 710 CURVE SMOOTH",
"437 710 OFFCURVE",
"512 645 OFFCURVE",
"512 542 CURVE SMOOTH",
"512 486 OFFCURVE",
"489 434 OFFCURVE",
"452 393 CURVE SMOOTH",
"415 352 OFFCURVE",
"362 321 OFFCURVE",
"303 309 CURVE",
"286 233 LINE"
);
},
{
closed = 1;
nodes = (
"119 -12 OFFCURVE",
"98 13 OFFCURVE",
"98 46 CURVE SMOOTH",
"98 49 OFFCURVE",
"98 54 OFFCURVE",
"99 59 CURVE",
"99 64 OFFCURVE",
"101 73 OFFCURVE",
"104 88 CURVE SMOOTH",
"113 135 OFFCURVE",
"145 164 OFFCURVE",
"205 164 CURVE SMOOTH",
"261 164 OFFCURVE",
"282 139 OFFCURVE",
"282 106 CURVE SMOOTH",
"282 103 OFFCURVE",
"282 99 OFFCURVE",
"282 94 CURVE",
"281 89 OFFCURVE",
"279 79 OFFCURVE",
"276 64 CURVE SMOOTH",
"267 17 OFFCURVE",
"235 -12 OFFCURVE",
"175 -12 CURVE SMOOTH"
);
}
);
width = 490;
}
);
leftKerningGroup = question;
rightKerningGroup = question;
unicode = 003F;
},
{
glyphname = parenleft;
layers = (
{
layerId = "05A52B16-A306-40FB-AA4D-96EE9622F9E6";
name = "Bold Italic";
paths = (
{
closed = 1;
nodes = (
"62 338 OFFCURVE",
"97 447 OFFCURVE",
"151 539 CURVE SMOOTH",
"205 631 OFFCURVE",
"278 708 OFFCURVE",
"355 760 CURVE",
"506 760 LINE",
"435 709 OFFCURVE",
"370 650 OFFCURVE",
"318 584 CURVE SMOOTH",
"266 518 OFFCURVE",
"228 444 OFFCURVE",
"212 367 CURVE SMOOTH",
"192 267 LINE SMOOTH",
"188 247 OFFCURVE",
"188 234 OFFCURVE",
"188 222 CURVE SMOOTH",
"188 73 OFFCURVE",
"244 -45 OFFCURVE",
"328 -137 CURVE",
"195 -137 LINE",
"159 -97 OFFCURVE",
"126 -44 OFFCURVE",
"102 18 CURVE SMOOTH",
"78 80 OFFCURVE",
"62 149 OFFCURVE",
"62 222 CURVE SMOOTH"
);
}
);
width = 353;
}
);
rightKerningGroup = parenleft;
unicode = 0028;
},
{
glyphname = parenright;
layers = (
{
layerId = "05A52B16-A306-40FB-AA4D-96EE9622F9E6";
name = "Bold Italic";
paths = (
{
closed = 1;
nodes = (
"316 285 OFFCURVE",
"282 176 OFFCURVE",
"228 84 CURVE SMOOTH",
"174 -8 OFFCURVE",
"100 -85 OFFCURVE",
"23 -137 CURVE",
"-128 -137 LINE",
"-59 -86 OFFCURVE",
"8 -26 OFFCURVE",
"60 40 CURVE SMOOTH",
"112 106 OFFCURVE",
"150 179 OFFCURVE",
"166 256 CURVE SMOOTH",
"186 356 LINE SMOOTH",
"190 376 OFFCURVE",
"190 389 OFFCURVE",
"190 401 CURVE SMOOTH",
"190 550 OFFCURVE",
"134 668 OFFCURVE",
"50 760 CURVE",
"183 760 LINE",
"219 720 OFFCURVE",
"252 668 OFFCURVE",
"276 606 CURVE SMOOTH",
"300 544 OFFCURVE",
"316 474 OFFCURVE",
"316 401 CURVE SMOOTH"
);
}
);
width = 353;
}
);
leftKerningGroup = parenright;
unicode = 0029;
},
{
glyphname = bracketleft;
layers = (
{
layerId = "05A52B16-A306-40FB-AA4D-96EE9622F9E6";
name = "Bold Italic";
paths = (
{
closed = 1;
nodes = (
"-5 -138 LINE",
"175 760 LINE",
"392 760 LINE",
"373 663 LINE",
"283 663 LINE",
"141 -41 LINE",
"232 -41 LINE",
"213 -138 LINE"
);
}
);
width = 323;
}
);
rightKerningGroup = bracketleft;
unicode = 005B;
},
{
glyphname = bracketright;
layers = (
{
layerId = "05A52B16-A306-40FB-AA4D-96EE9622F9E6";
name = "Bold Italic";
paths = (
{
closed = 1;
nodes = (
"347 760 LINE",
"167 -138 LINE",
"-50 -138 LINE",
"-31 -41 LINE",
"59 -41 LINE",
"201 663 LINE",
"110 663 LINE",
"129 760 LINE"
);
}
);
width = 323;
}
);
leftKerningGroup = bracketright;
unicode = 005D;
},
{
glyphname = braceleft;
layers = (
{
layerId = "05A52B16-A306-40FB-AA4D-96EE9622F9E6";
name = "Bold Italic";
paths = (
{
closed = 1;
nodes = (
"138 -138 LINE SMOOTH",
"90 -138 OFFCURVE",
"57 -111 OFFCURVE",
"57 -63 CURVE SMOOTH",
"57 -54 OFFCURVE",
"58 -46 OFFCURVE",
"59 -39 CURVE",
"97 151 LINE SMOOTH",
"99 161 OFFCURVE",
"100 171 OFFCURVE",
"100 181 CURVE SMOOTH",
"100 230 OFFCURVE",
"74 255 OFFCURVE",
"23 255 CURVE",
"46 368 LINE",
"106 368 OFFCURVE",
"146 396 OFFCURVE",
"158 456 CURVE SMOOTH",
"199 661 LINE SMOOTH",
"212 726 OFFCURVE",
"253 760 OFFCURVE",
"309 760 CURVE SMOOTH",
"426 760 LINE",
"405 656 LINE",
"328 656 LINE",
"284 436 LINE SMOOTH",
"277 405 OFFCURVE",
"266 377 OFFCURVE",
"246 354 CURVE SMOOTH",
"225 330 OFFCURVE",
"196 314 OFFCURVE",
"156 313 CURVE",
"156 309 LINE",
"201 300 OFFCURVE",
"237 264 OFFCURVE",
"237 211 CURVE SMOOTH",
"237 202 OFFCURVE",
"236 192 OFFCURVE",
"233 181 CURVE",
"190 -34 LINE",
"267 -34 LINE",
"246 -138 LINE"
);
}
);
width = 361;
}
);
rightKerningGroup = bracketleft;
unicode = 007B;
},
{
glyphname = braceright;
layers = (
{
layerId = "05A52B16-A306-40FB-AA4D-96EE9622F9E6";
name = "Bold Italic";
paths = (
{
closed = 1;
nodes = (
"-26 -34 LINE",
"51 -34 LINE",
"95 186 LINE SMOOTH",
"100 215 OFFCURVE",
"113 245 OFFCURVE",
"134 269 CURVE SMOOTH",
"154 292 OFFCURVE",
"183 306 OFFCURVE",
"223 309 CURVE",
"223 313 LINE",
"178 322 OFFCURVE",
"142 358 OFFCURVE",
"142 411 CURVE SMOOTH",
"142 420 OFFCURVE",
"143 430 OFFCURVE",
"146 441 CURVE",
"189 656 LINE",
"112 656 LINE",
"133 760 LINE",
"241 760 LINE SMOOTH",
"289 760 OFFCURVE",
"322 733 OFFCURVE",
"322 685 CURVE SMOOTH",
"322 676 OFFCURVE",
"321 668 OFFCURVE",
"320 661 CURVE",
"282 471 LINE SMOOTH",
"280 461 OFFCURVE",
"279 451 OFFCURVE",
"279 441 CURVE SMOOTH",
"279 392 OFFCURVE",
"305 367 OFFCURVE",
"356 367 CURVE",
"333 254 LINE",
"273 254 OFFCURVE",
"233 226 OFFCURVE",
"221 166 CURVE SMOOTH",
"180 -39 LINE SMOOTH",
"167 -104 OFFCURVE",
"126 -138 OFFCURVE",
"70 -138 CURVE SMOOTH",
"-47 -138 LINE"
);
}
);
width = 361;
}
);
leftKerningGroup = bracketright;
unicode = 007D;
},
{
glyphname = slash;
layers = (
{
layerId = "05A52B16-A306-40FB-AA4D-96EE9622F9E6";
name = "Bold Italic";
paths = (
{
closed = 1;
nodes = (
"-73 -151 LINE",
"401 740 LINE",
"529 740 LINE",
"55 -151 LINE"
);
}
);
width = 479;
}
);
leftKerningGroup = slash;
rightKerningGroup = slash;
unicode = 002F;
},
{
glyphname = backslash;
layers = (
{
layerId = "05A52B16-A306-40FB-AA4D-96EE9622F9E6";
name = "Bold Italic";
paths = (
{
closed = 1;
nodes = (
"265 -151 LINE",
"148 740 LINE",
"262 740 LINE",
"379 -151 LINE"
);
}
);
width = 479;
}
);
unicode = 005C;
},
{
glyphname = fraction;
layers = (
{
layerId = "05A52B16-A306-40FB-AA4D-96EE9622F9E6";
name = "Bold Italic";
paths = (
{
closed = 1;
nodes = (
"-292 0 LINE",
"365 698 LINE",
"479 698 LINE",
"-178 0 LINE"
);
}
);
width = 148;
}
);
unicode = 2044;
},
{
glyphname = percent;
layers = (
{
layerId = "05A52B16-A306-40FB-AA4D-96EE9622F9E6";
name = "Bold Italic";
paths = (
{
closed = 1;
nodes = (
"144 0 LINE",
"708 698 LINE",
"832 698 LINE",
"268 0 LINE"
);
},
{
closed = 1;
nodes = (
"152 314 OFFCURVE",
"92 367 OFFCURVE",
"92 475 CURVE SMOOTH",
"92 547 OFFCURVE",
"117 606 OFFCURVE",
"155 647 CURVE SMOOTH",
"193 687 OFFCURVE",
"243 710 OFFCURVE",
"295 710 CURVE SMOOTH",
"390 710 OFFCURVE",
"450 657 OFFCURVE",
"450 549 CURVE SMOOTH",
"450 477 OFFCURVE",
"426 418 OFFCURVE",
"388 378 CURVE SMOOTH",
"350 337 OFFCURVE",
"299 314 OFFCURVE",
"247 314 CURVE SMOOTH"
);
},
{
closed = 1;
nodes = (
"288 398 OFFCURVE",
"304 426 OFFCURVE",
"316 486 CURVE SMOOTH",
"326 536 LINE SMOOTH",
"329 553 OFFCURVE",
"331 566 OFFCURVE",
"331 576 CURVE SMOOTH",
"331 608 OFFCURVE",
"316 626 OFFCURVE",
"289 626 CURVE SMOOTH",
"254 626 OFFCURVE",
"238 598 OFFCURVE",
"226 538 CURVE SMOOTH",
"216 488 LINE SMOOTH",
"213 471 OFFCURVE",
"211 458 OFFCURVE",
"211 448 CURVE SMOOTH",
"211 416 OFFCURVE",
"226 398 OFFCURVE",
"253 398 CURVE SMOOTH"
);
},
{
closed = 1;
nodes = (
"586 -12 OFFCURVE",
"526 41 OFFCURVE",
"526 149 CURVE SMOOTH",
"526 221 OFFCURVE",
"551 280 OFFCURVE",
"589 321 CURVE SMOOTH",
"627 361 OFFCURVE",
"677 384 OFFCURVE",
"729 384 CURVE SMOOTH",
"824 384 OFFCURVE",
"884 331 OFFCURVE",
"884 223 CURVE SMOOTH",
"884 151 OFFCURVE",
"860 92 OFFCURVE",
"822 52 CURVE SMOOTH",
"784 11 OFFCURVE",
"733 -12 OFFCURVE",
"681 -12 CURVE SMOOTH"
);
},
{
closed = 1;
nodes = (
"722 72 OFFCURVE",
"738 100 OFFCURVE",
"750 160 CURVE SMOOTH",
"760 210 LINE SMOOTH",
"763 227 OFFCURVE",
"765 240 OFFCURVE",
"765 250 CURVE SMOOTH",
"765 282 OFFCURVE",
"750 300 OFFCURVE",
"723 300 CURVE SMOOTH",
"688 300 OFFCURVE",
"672 272 OFFCURVE",
"660 212 CURVE SMOOTH",
"650 162 LINE SMOOTH",
"647 145 OFFCURVE",
"645 132 OFFCURVE",
"645 122 CURVE SMOOTH",
"645 90 OFFCURVE",
"660 72 OFFCURVE",
"687 72 CURVE SMOOTH"
);
}
);
width = 939;
}
);
rightKerningGroup = percent;
unicode = 0025;
},
{
glyphname = perthousand;
layers = (
{
layerId = "05A52B16-A306-40FB-AA4D-96EE9622F9E6";
name = "Bold Italic";
paths = (
{
closed = 1;
nodes = (
"144 0 LINE",
"708 698 LINE",
"832 698 LINE",
"268 0 LINE"
);
},
{
closed = 1;
nodes = (
"152 314 OFFCURVE",
"92 367 OFFCURVE",
"92 475 CURVE SMOOTH",
"92 547 OFFCURVE",
"117 606 OFFCURVE",
"155 647 CURVE SMOOTH",
"193 687 OFFCURVE",
"243 710 OFFCURVE",
"295 710 CURVE SMOOTH",
"390 710 OFFCURVE",
"450 657 OFFCURVE",
"450 549 CURVE SMOOTH",
"450 477 OFFCURVE",
"426 418 OFFCURVE",
"388 378 CURVE SMOOTH",
"350 337 OFFCURVE",
"299 314 OFFCURVE",
"247 314 CURVE SMOOTH"
);
},
{
closed = 1;
nodes = (
"288 398 OFFCURVE",
"304 426 OFFCURVE",
"316 486 CURVE SMOOTH",
"326 536 LINE SMOOTH",
"329 553 OFFCURVE",
"331 566 OFFCURVE",
"331 576 CURVE SMOOTH",
"331 608 OFFCURVE",
"316 626 OFFCURVE",
"289 626 CURVE SMOOTH",
"254 626 OFFCURVE",
"238 598 OFFCURVE",
"226 538 CURVE SMOOTH",
"216 488 LINE SMOOTH",
"213 471 OFFCURVE",
"211 458 OFFCURVE",
"211 448 CURVE SMOOTH",
"211 416 OFFCURVE",
"226 398 OFFCURVE",
"253 398 CURVE SMOOTH"
);
},
{
closed = 1;
nodes = (
"586 -12 OFFCURVE",
"526 41 OFFCURVE",
"526 149 CURVE SMOOTH",
"526 221 OFFCURVE",
"551 280 OFFCURVE",
"589 321 CURVE SMOOTH",
"627 361 OFFCURVE",
"677 384 OFFCURVE",
"729 384 CURVE SMOOTH",
"824 384 OFFCURVE",
"884 331 OFFCURVE",
"884 223 CURVE SMOOTH",
"884 151 OFFCURVE",
"860 92 OFFCURVE",
"822 52 CURVE SMOOTH",
"784 11 OFFCURVE",
"733 -12 OFFCURVE",
"681 -12 CURVE SMOOTH"
);
},
{
closed = 1;
nodes = (
"722 72 OFFCURVE",
"738 100 OFFCURVE",
"750 160 CURVE SMOOTH",
"760 210 LINE SMOOTH",
"763 227 OFFCURVE",
"765 240 OFFCURVE",
"765 250 CURVE SMOOTH",
"765 282 OFFCURVE",
"750 300 OFFCURVE",
"723 300 CURVE SMOOTH",
"688 300 OFFCURVE",
"672 272 OFFCURVE",
"660 212 CURVE SMOOTH",
"650 162 LINE SMOOTH",
"647 145 OFFCURVE",
"645 132 OFFCURVE",
"645 122 CURVE SMOOTH",
"645 90 OFFCURVE",
"660 72 OFFCURVE",
"687 72 CURVE SMOOTH"
);
},
{
closed = 1;
nodes = (
"980 -10 OFFCURVE",
"920 43 OFFCURVE",
"920 151 CURVE SMOOTH",
"920 223 OFFCURVE",
"945 282 OFFCURVE",
"983 323 CURVE SMOOTH",
"1021 363 OFFCURVE",
"1071 386 OFFCURVE",
"1123 386 CURVE SMOOTH",
"1218 386 OFFCURVE",
"1278 333 OFFCURVE",
"1278 225 CURVE SMOOTH",
"1278 153 OFFCURVE",
"1254 94 OFFCURVE",
"1216 54 CURVE SMOOTH",
"1178 13 OFFCURVE",
"1127 -10 OFFCURVE",
"1075 -10 CURVE SMOOTH"
);
},
{
closed = 1;
nodes = (
"1116 74 OFFCURVE",
"1132 102 OFFCURVE",
"1144 162 CURVE SMOOTH",
"1154 212 LINE SMOOTH",
"1157 229 OFFCURVE",
"1159 242 OFFCURVE",
"1159 252 CURVE SMOOTH",
"1159 284 OFFCURVE",
"1144 302 OFFCURVE",
"1117 302 CURVE SMOOTH",
"1082 302 OFFCURVE",
"1066 274 OFFCURVE",
"1054 214 CURVE SMOOTH",
"1044 164 LINE SMOOTH",
"1041 147 OFFCURVE",
"1039 134 OFFCURVE",
"1039 124 CURVE SMOOTH",
"1039 92 OFFCURVE",
"1054 74 OFFCURVE",
"1081 74 CURVE SMOOTH"
);
}
);
width = 1333;
}
);
rightKerningGroup = perthousand;
unicode = 2030;
},
{
glyphname = bar;
layers = (
{
layerId = "05A52B16-A306-40FB-AA4D-96EE9622F9E6";
name = "Bold Italic";
paths = (
{
closed = 1;
nodes = (
"54 -138 LINE",
"234 760 LINE",
"360 760 LINE",
"180 -138 LINE"
);
}
);
width = 395;
}
);
unicode = 007C;
},
{
glyphname = brokenbar;
layers = (
{
layerId = "05A52B16-A306-40FB-AA4D-96EE9622F9E6";
name = "Bold Italic";
paths = (
{
closed = 1;
nodes = (
"162 401 LINE",
"234 760 LINE",
"360 760 LINE",
"288 401 LINE"
);
},
{
closed = 1;
nodes = (
"54 -138 LINE",
"126 221 LINE",
"252 221 LINE",
"180 -138 LINE"
);
}
);
width = 395;
}
);
unicode = 00A6;
},
{
glyphname = section;
layers = (
{
layerId = "05A52B16-A306-40FB-AA4D-96EE9622F9E6";
name = "Bold Italic";
paths = (
{
closed = 1;
nodes = (
"435 -21 OFFCURVE",
"412 -70 OFFCURVE",
"372 -105 CURVE SMOOTH",
"332 -141 OFFCURVE",
"275 -161 OFFCURVE",
"208 -161 CURVE SMOOTH",
"132 -161 OFFCURVE",
"57 -139 OFFCURVE",
"13 -86 CURVE",
"95 -4 LINE",
"122 -39 OFFCURVE",
"160 -59 OFFCURVE",
"221 -59 CURVE SMOOTH",
"272 -59 OFFCURVE",
"310 -26 OFFCURVE",
"310 15 CURVE SMOOTH",
"310 52 OFFCURVE",
"287 67 OFFCURVE",
"240 82 CURVE SMOOTH",
"171 103 LINE SMOOTH",
"87 130 OFFCURVE",
"53 180 OFFCURVE",
"53 236 CURVE SMOOTH",
"53 305 OFFCURVE",
"91 363 OFFCURVE",
"182 392 CURVE",
"184 402 LINE",
"145 433 OFFCURVE",
"129 469 OFFCURVE",
"129 514 CURVE SMOOTH",
"129 571 OFFCURVE",
"152 622 OFFCURVE",
"192 656 CURVE SMOOTH",
"232 690 OFFCURVE",
"289 710 OFFCURVE",
"356 710 CURVE SMOOTH",
"432 710 OFFCURVE",
"506 688 OFFCURVE",
"551 633 CURVE",
"469 553 LINE",
"442 588 OFFCURVE",
"404 608 OFFCURVE",
"343 608 CURVE SMOOTH",
"292 608 OFFCURVE",
"254 578 OFFCURVE",
"254 539 CURVE SMOOTH",
"254 504 OFFCURVE",
"277 488 OFFCURVE",
"324 473 CURVE SMOOTH",
"393 452 LINE SMOOTH",
"477 425 OFFCURVE",
"511 374 OFFCURVE",
"511 318 CURVE SMOOTH",
"511 249 OFFCURVE",
"474 190 OFFCURVE",
"382 162 CURVE",
"380 152 LINE",
"419 121 OFFCURVE",
"435 85 OFFCURVE",
"435 38 CURVE SMOOTH"
);
},
{
closed = 1;
nodes = (
"390 302 OFFCURVE",
"373 330 OFFCURVE",
"326 346 CURVE",
"257 366 LINE",
"250 369 OFFCURVE",
"243 371 OFFCURVE",
"238 373 CURVE",
"233 374 OFFCURVE",
"228 376 OFFCURVE",
"224 379 CURVE",
"185 350 OFFCURVE",
"174 319 OFFCURVE",
"174 284 CURVE SMOOTH",
"174 252 OFFCURVE",
"191 224 OFFCURVE",
"238 208 CURVE",
"307 188 LINE",
"314 185 OFFCURVE",
"321 183 OFFCURVE",
"326 182 CURVE",
"331 180 OFFCURVE",
"336 178 OFFCURVE",
"340 175 CURVE",
"379 204 OFFCURVE",
"390 235 OFFCURVE",
"390 270 CURVE SMOOTH"
);
}
);
width = 557;
}
);
unicode = 00A7;
},
{
glyphname = paragraph;
layers = (
{
layerId = "05A52B16-A306-40FB-AA4D-96EE9622F9E6";
name = "Bold Italic";
paths = (
{
closed = 1;
nodes = (
"225 263 LINE",
"180 263 OFFCURVE",
"139 284 OFFCURVE",
"111 319 CURVE SMOOTH",
"82 354 OFFCURVE",
"64 401 OFFCURVE",
"64 453 CURVE SMOOTH",
"64 518 OFFCURVE",
"90 579 OFFCURVE",
"136 624 CURVE SMOOTH",
"182 669 OFFCURVE",
"247 698 OFFCURVE",
"327 698 CURVE SMOOTH",
"673 698 LINE",
"652 594 LINE",
"592 594 LINE",
"443 -149 LINE",
"340 -149 LINE",
"489 594 LINE",
"394 594 LINE",
"245 -149 LINE",
"142 -149 LINE"
);
}
);
width = 646;
}
);
unicode = 00B6;
},
{
glyphname = copyright;
layers = (
{
layerId = "05A52B16-A306-40FB-AA4D-96EE9622F9E6";
name = "Bold Italic";
paths = (
{
closed = 1;
nodes = (
"261 -12 OFFCURVE",
"189 20 OFFCURVE",
"138 73 CURVE SMOOTH",
"87 126 OFFCURVE",
"58 202 OFFCURVE",
"58 293 CURVE SMOOTH",
"58 413 OFFCURVE",
"101 516 OFFCURVE",
"171 591 CURVE SMOOTH",
"241 666 OFFCURVE",
"340 710 OFFCURVE",
"452 710 CURVE SMOOTH",
"540 710 OFFCURVE",
"612 678 OFFCURVE",
"663 625 CURVE SMOOTH",
"714 572 OFFCURVE",
"743 494 OFFCURVE",
"743 405 CURVE SMOOTH",
"743 285 OFFCURVE",
"701 182 OFFCURVE",
"631 107 CURVE SMOOTH",
"561 32 OFFCURVE",
"461 -12 OFFCURVE",
"349 -12 CURVE SMOOTH"
);
},
{
closed = 1;
nodes = (
"428 51 OFFCURVE",
"497 79 OFFCURVE",
"551 123 CURVE SMOOTH",
"605 167 OFFCURVE",
"643 229 OFFCURVE",
"656 297 CURVE SMOOTH",
"665 340 OFFCURVE",
"671 380 OFFCURVE",
"671 405 CURVE SMOOTH",
"671 478 OFFCURVE",
"648 540 OFFCURVE",
"609 582 CURVE SMOOTH",
"569 624 OFFCURVE",
"513 647 OFFCURVE",
"448 647 CURVE SMOOTH",
"373 647 OFFCURVE",
"305 619 OFFCURVE",
"251 575 CURVE SMOOTH",
"197 531 OFFCURVE",
"158 469 OFFCURVE",
"145 401 CURVE SMOOTH",
"136 358 OFFCURVE",
"130 318 OFFCURVE",
"130 293 CURVE SMOOTH",
"130 218 OFFCURVE",
"153 159 OFFCURVE",
"193 117 CURVE SMOOTH",
"232 75 OFFCURVE",
"288 51 OFFCURVE",
"353 51 CURVE SMOOTH"
);
},
{
closed = 1;
nodes = (
"329 134 OFFCURVE",
"284 152 OFFCURVE",
"253 183 CURVE SMOOTH",
"222 214 OFFCURVE",
"204 258 OFFCURVE",
"204 313 CURVE SMOOTH",
"204 378 OFFCURVE",
"228 442 OFFCURVE",
"269 488 CURVE SMOOTH",
"309 534 OFFCURVE",
"365 564 OFFCURVE",
"429 564 CURVE SMOOTH",
"529 564 OFFCURVE",
"574 517 OFFCURVE",
"595 450 CURVE",
"496 406 LINE",
"488 441 OFFCURVE",
"469 463 OFFCURVE",
"430 463 CURVE SMOOTH",
"385 463 OFFCURVE",
"358 434 OFFCURVE",
"350 394 CURVE SMOOTH",
"335 317 LINE SMOOTH",
"334 312 OFFCURVE",
"333 307 OFFCURVE",
"333 304 CURVE SMOOTH",
"333 300 OFFCURVE",
"333 296 OFFCURVE",
"333 292 CURVE SMOOTH",
"333 257 OFFCURVE",
"355 234 OFFCURVE",
"398 234 CURVE SMOOTH",
"435 234 OFFCURVE",
"460 259 OFFCURVE",
"480 290 CURVE",
"570 244 LINE",
"553 215 OFFCURVE",
"530 187 OFFCURVE",
"499 167 CURVE SMOOTH",
"468 147 OFFCURVE",
"430 134 OFFCURVE",
"382 134 CURVE SMOOTH"
);
}
);
width = 771;
}
);
leftKerningGroup = copyright;
unicode = 00A9;
},
{
glyphname = registered;
layers = (
{
layerId = "05A52B16-A306-40FB-AA4D-96EE9622F9E6";
name = "Bold Italic";
paths = (
{
closed = 1;
nodes = (
"191 298 OFFCURVE",
"147 316 OFFCURVE",
"116 347 CURVE SMOOTH",
"85 378 OFFCURVE",
"67 420 OFFCURVE",
"67 471 CURVE SMOOTH",
"67 542 OFFCURVE",
"94 602 OFFCURVE",
"136 644 CURVE SMOOTH",
"178 686 OFFCURVE",
"235 710 OFFCURVE",
"298 710 CURVE SMOOTH",
"351 710 OFFCURVE",
"397 692 OFFCURVE",
"428 661 CURVE SMOOTH",
"459 630 OFFCURVE",
"477 588 OFFCURVE",
"477 537 CURVE SMOOTH",
"477 466 OFFCURVE",
"451 407 OFFCURVE",
"409 365 CURVE SMOOTH",
"367 323 OFFCURVE",
"309 298 OFFCURVE",
"246 298 CURVE SMOOTH"
);
},
{
closed = 1;
nodes = (
"289 342 OFFCURVE",
"328 355 OFFCURVE",
"358 379 CURVE SMOOTH",
"388 402 OFFCURVE",
"410 435 OFFCURVE",
"418 478 CURVE SMOOTH",
"422 498 OFFCURVE",
"425 512 OFFCURVE",
"426 521 CURVE SMOOTH",
"427 530 OFFCURVE",
"427 537 OFFCURVE",
"427 542 CURVE SMOOTH",
"427 622 OFFCURVE",
"371 666 OFFCURVE",
"292 666 CURVE SMOOTH",
"253 666 OFFCURVE",
"217 653 OFFCURVE",
"187 630 CURVE SMOOTH",
"157 606 OFFCURVE",
"134 573 OFFCURVE",
"126 530 CURVE SMOOTH",
"122 510 OFFCURVE",
"120 496 OFFCURVE",
"119 487 CURVE SMOOTH",
"118 478 OFFCURVE",
"117 471 OFFCURVE",
"117 466 CURVE SMOOTH",
"117 386 OFFCURVE",
"173 342 OFFCURVE",
"252 342 CURVE SMOOTH"
);
},
{
closed = 1;
nodes = (
"230 400 LINE",
"168 400 LINE",
"210 609 LINE",
"299 609 LINE SMOOTH",
"354 609 OFFCURVE",
"376 582 OFFCURVE",
"376 543 CURVE SMOOTH",
"376 515 OFFCURVE",
"357 484 OFFCURVE",
"321 473 CURVE",
"349 400 LINE",
"285 400 LINE",
"261 463 LINE",
"242 463 LINE"
);
},
{
closed = 1;
nodes = (
"277 506 LINE SMOOTH",
"296 506 OFFCURVE",
"307 514 OFFCURVE",
"310 529 CURVE",
"311 536 OFFCURVE",
"312 540 OFFCURVE",
"312 542 CURVE SMOOTH",
"312 556 OFFCURVE",
"304 563 OFFCURVE",
"287 563 CURVE SMOOTH",
"262 563 LINE",
"251 506 LINE"
);
}
);
width = 453;
}
);
leftKerningGroup = registered;
rightKerningGroup = registered;
unicode = 00AE;
},
{
glyphname = trademark;
layers = (
{
layerId = "05A52B16-A306-40FB-AA4D-96EE9622F9E6";
name = "Bold Italic";
paths = (
{
closed = 1;
nodes = (
"118 409 LINE",
"164 638 LINE",
"96 638 LINE",
"108 698 LINE",
"318 698 LINE",
"306 638 LINE",
"241 638 LINE",
"195 409 LINE"
);
},
{
closed = 1;
nodes = (
"293 409 LINE",
"351 698 LINE",
"432 698 LINE",
"469 588 LINE",
"475 588 LINE",
"550 698 LINE",
"638 698 LINE",
"580 409 LINE",
"509 409 LINE",
"528 506 LINE",
"556 599 LINE",
"552 599 LINE",
"447 461 LINE",
"398 599 LINE",
"394 599 LINE",
"385 507 LINE",
"365 409 LINE"
);
}
);
width = 603;
}
);
leftKerningGroup = trademark;
rightKerningGroup = trademark;
unicode = 2122;
},
{
glyphname = ordfeminine;
layers = (
{
layerId = "05A52B16-A306-40FB-AA4D-96EE9622F9E6";
name = "Bold Italic";
paths = (
{
closed = 1;
nodes = (
"417 340 LINE",
"358 340 LINE SMOOTH",
"319 340 OFFCURVE",
"298 359 OFFCURVE",
"298 394 CURVE SMOOTH",
"298 404 LINE",
"294 404 LINE",
"271 357 OFFCURVE",
"233 332 OFFCURVE",
"182 332 CURVE SMOOTH",
"126 332 OFFCURVE",
"79 364 OFFCURVE",
"79 427 CURVE SMOOTH",
"79 503 OFFCURVE",
"136 550 OFFCURVE",
"251 550 CURVE SMOOTH",
"316 550 LINE",
"320 570 LINE",
"323 581 OFFCURVE",
"323 582 OFFCURVE",
"323 589 CURVE SMOOTH",
"323 620 OFFCURVE",
"305 635 OFFCURVE",
"268 635 CURVE SMOOTH",
"227 635 OFFCURVE",
"205 616 OFFCURVE",
"180 589 CURVE",
"123 637 LINE",
"158 680 OFFCURVE",
"204 710 OFFCURVE",
"283 710 CURVE SMOOTH",
"367 710 OFFCURVE",
"428 675 OFFCURVE",
"428 604 CURVE SMOOTH",
"428 595 OFFCURVE",
"427 585 OFFCURVE",
"425 575 CURVE SMOOTH",
"393 414 LINE",
"432 414 LINE"
);
},
{
closed = 1;
nodes = (
"248 495 LINE SMOOTH",
"210 495 OFFCURVE",
"188 481 OFFCURVE",
"182 452 CURVE SMOOTH",
"181 447 OFFCURVE",
"180 442 OFFCURVE",
"180 439 CURVE SMOOTH",
"180 435 OFFCURVE",
"180 432 OFFCURVE",
"180 431 CURVE SMOOTH",
"180 410 OFFCURVE",
"199 399 OFFCURVE",
"226 399 CURVE SMOOTH",
"261 399 OFFCURVE",
"289 417 OFFCURVE",
"296 452 CURVE SMOOTH",
"305 495 LINE"
);
}
);
width = 444;
}
);
unicode = 00AA;
},
{
glyphname = ordmasculine;
layers = (
{
layerId = "05A52B16-A306-40FB-AA4D-96EE9622F9E6";
name = "Bold Italic";
paths = (
{
closed = 1;
nodes = (
"145 330 OFFCURVE",
"85 390 OFFCURVE",
"85 491 CURVE SMOOTH",
"85 550 OFFCURVE",
"104 604 OFFCURVE",
"140 644 CURVE SMOOTH",
"176 684 OFFCURVE",
"229 710 OFFCURVE",
"294 710 CURVE SMOOTH",
"385 710 OFFCURVE",
"445 651 OFFCURVE",
"445 550 CURVE SMOOTH",
"445 491 OFFCURVE",
"426 436 OFFCURVE",
"390 396 CURVE SMOOTH",
"354 356 OFFCURVE",
"301 330 OFFCURVE",
"236 330 CURVE SMOOTH"
);
},
{
closed = 1;
nodes = (
"289 407 OFFCURVE",
"319 438 OFFCURVE",
"330 494 CURVE SMOOTH",
"342 555 LINE SMOOTH",
"343 560 OFFCURVE",
"344 565 OFFCURVE",
"344 568 CURVE SMOOTH",
"344 571 OFFCURVE",
"344 573 OFFCURVE",
"344 576 CURVE SMOOTH",
"344 613 OFFCURVE",
"319 633 OFFCURVE",
"284 633 CURVE SMOOTH",
"241 633 OFFCURVE",
"211 603 OFFCURVE",
"200 547 CURVE SMOOTH",
"188 486 LINE SMOOTH",
"187 481 OFFCURVE",
"186 477 OFFCURVE",
"186 474 CURVE SMOOTH",
"186 471 OFFCURVE",
"186 468 OFFCURVE",
"186 465 CURVE SMOOTH",
"186 428 OFFCURVE",
"211 407 OFFCURVE",
"246 407 CURVE SMOOTH"
);
}
);
width = 427;
}
);
unicode = 00BA;
},
{
glyphname = degree;
layers = (
{
layerId = "05A52B16-A306-40FB-AA4D-96EE9622F9E6";
name = "Bold Italic";
paths = (
{
closed = 1;
nodes = (
"214 334 OFFCURVE",
"171 352 OFFCURVE",
"142 383 CURVE SMOOTH",
"113 414 OFFCURVE",
"96 457 OFFCURVE",
"96 505 CURVE SMOOTH",
"96 564 OFFCURVE",
"119 615 OFFCURVE",
"156 652 CURVE SMOOTH",
"193 688 OFFCURVE",
"245 710 OFFCURVE",
"301 710 CURVE SMOOTH",
"350 710 OFFCURVE",
"393 692 OFFCURVE",
"422 661 CURVE SMOOTH",
"451 630 OFFCURVE",
"468 587 OFFCURVE",
"468 539 CURVE SMOOTH",
"468 480 OFFCURVE",
"445 429 OFFCURVE",
"408 393 CURVE SMOOTH",
"371 356 OFFCURVE",
"319 334 OFFCURVE",
"263 334 CURVE SMOOTH"
);
},
{
closed = 1;
nodes = (
"329 426 OFFCURVE",
"367 475 OFFCURVE",
"367 538 CURVE SMOOTH",
"367 583 OFFCURVE",
"338 618 OFFCURVE",
"291 618 CURVE SMOOTH",
"235 618 OFFCURVE",
"197 569 OFFCURVE",
"197 506 CURVE SMOOTH",
"197 461 OFFCURVE",
"226 426 OFFCURVE",
"273 426 CURVE SMOOTH"
);
}
);
width = 459;
}
);
unicode = 00B0;
},
{
glyphname = asterisk;
layers = (
{
layerId = "05A52B16-A306-40FB-AA4D-96EE9622F9E6";
name = "Bold Italic";
paths = (
{
closed = 1;
nodes = (
"187 239 LINE",
"95 320 LINE",
"242 462 LINE",
"85 516 LINE",
"136 631 LINE",
"294 560 LINE",
"323 747 LINE",
"453 747 LINE",
"410 562 LINE",
"575 628 LINE",
"607 516 LINE",
"422 456 LINE",
"510 305 LINE",
"402 239 LINE",
"326 399 LINE"
);
}
);
width = 595;
}
);
leftKerningGroup = quotesingle;
rightKerningGroup = quotesingle;
unicode = 002A;
},
{
glyphname = dagger;
layers = (
{
layerId = "05A52B16-A306-40FB-AA4D-96EE9622F9E6";
name = "Bold Italic";
paths = (
{
closed = 1;
nodes = (
"100 -200 LINE",
"222 409 LINE",
"49 409 LINE",
"70 515 LINE",
"243 515 LINE",
"288 740 LINE",
"411 740 LINE",
"366 515 LINE",
"535 515 LINE",
"514 409 LINE",
"345 409 LINE",
"223 -200 LINE"
);
}
);
width = 509;
}
);
unicode = 2020;
},
{
glyphname = daggerdbl;
layers = (
{
layerId = "05A52B16-A306-40FB-AA4D-96EE9622F9E6";
name = "Bold Italic";
paths = (
{
closed = 1;
nodes = (
"111 -200 LINE",
"156 25 LINE",
"-14 25 LINE",
"7 131 LINE",
"177 131 LINE",
"233 409 LINE",
"60 409 LINE",
"81 515 LINE",
"254 515 LINE",
"299 740 LINE",
"422 740 LINE",
"377 515 LINE",
"546 515 LINE",
"525 409 LINE",
"356 409 LINE",
"300 131 LINE",
"471 131 LINE",
"450 25 LINE",
"279 25 LINE",
"234 -200 LINE"
);
}
);
width = 531;
}
);
unicode = 2021;
},
{
glyphname = numbersign;
layers = (
{
layerId = "05A52B16-A306-40FB-AA4D-96EE9622F9E6";
name = "Bold Italic";
paths = (
{
closed = 1;
nodes = (
"348 174 LINE",
"191 174 LINE",
"126 0 LINE",
"36 0 LINE",
"101 174 LINE",
"-7 174 LINE",
"11 262 LINE",
"134 262 LINE",
"199 436 LINE",
"90 436 LINE",
"108 524 LINE",
"231 524 LINE",
"296 698 LINE",
"386 698 LINE",
"321 524 LINE",
"478 524 LINE",
"543 698 LINE",
"633 698 LINE",
"568 524 LINE",
"676 524 LINE",
"658 436 LINE",
"535 436 LINE",
"470 262 LINE",
"579 262 LINE",
"561 174 LINE",
"438 174 LINE",
"373 0 LINE",
"283 0 LINE"
);
},
{
closed = 1;
nodes = (
"380 262 LINE",
"445 436 LINE",
"289 436 LINE",
"224 262 LINE"
);
}
);
width = 640;
}
);
unicode = 0023;
},
{
glyphname = asciicircum;
layers = (
{
layerId = "05A52B16-A306-40FB-AA4D-96EE9622F9E6";
name = "Bold Italic";
paths = (
{
closed = 1;
nodes = (
"466 280 LINE",
"364 551 LINE",
"353 551 LINE",
"154 280 LINE",
"49 343 LINE",
"313 698 LINE",
"444 698 LINE",
"584 325 LINE"
);
}
);
width = 600;
}
);
unicode = 005E;
},
{
glyphname = asciitilde;
layers = (
{
layerId = "05A52B16-A306-40FB-AA4D-96EE9622F9E6";
name = "Bold Italic";
paths = (
{
closed = 1;
nodes = (
"345 211 OFFCURVE",
"318 229 OFFCURVE",
"281 250 CURVE SMOOTH",
"248 269 OFFCURVE",
"219 284 OFFCURVE",
"179 284 CURVE SMOOTH",
"148 284 OFFCURVE",
"128 275 OFFCURVE",
"96 255 CURVE",
"59 342 LINE",
"87 373 OFFCURVE",
"132 400 OFFCURVE",
"200 400 CURVE SMOOTH",
"228 400 OFFCURVE",
"248 396 OFFCURVE",
"266 389 CURVE",
"284 381 OFFCURVE",
"300 372 OFFCURVE",
"319 361 CURVE SMOOTH",
"352 342 OFFCURVE",
"381 327 OFFCURVE",
"421 327 CURVE SMOOTH",
"452 327 OFFCURVE",
"472 336 OFFCURVE",
"504 356 CURVE",
"541 269 LINE",
"513 238 OFFCURVE",
"468 211 OFFCURVE",
"400 211 CURVE SMOOTH"
);
}
);
width = 600;
}
);
unicode = 007E;
},
{
glyphname = plus;
layers = (
{
layerId = "05A52B16-A306-40FB-AA4D-96EE9622F9E6";
name = "Bold Italic";
paths = (
{
closed = 1;
nodes = (
"196 63 LINE",
"233 248 LINE",
"64 248 LINE",
"87 364 LINE",
"256 364 LINE",
"292 549 LINE",
"418 549 LINE",
"381 364 LINE",
"550 364 LINE",
"527 248 LINE",
"358 248 LINE",
"322 63 LINE"
);
}
);
width = 600;
}
);
unicode = 002B;
},
{
glyphname = minus;
layers = (
{
layerId = "05A52B16-A306-40FB-AA4D-96EE9622F9E6";
name = "Bold Italic";
paths = (
{
closed = 1;
nodes = (
"64 248 LINE",
"87 364 LINE",
"550 364 LINE",
"527 248 LINE"
);
}
);
width = 600;
}
);
unicode = 2212;
},
{
glyphname = plusminus;
layers = (
{
layerId = "05A52B16-A306-40FB-AA4D-96EE9622F9E6";
name = "Bold Italic";
paths = (
{
closed = 1;
nodes = (
"221 184 LINE",
"254 351 LINE",
"85 351 LINE",
"108 467 LINE",
"277 467 LINE",
"310 634 LINE",
"435 634 LINE",
"402 467 LINE",
"571 467 LINE",
"548 351 LINE",
"379 351 LINE",
"346 184 LINE"
);
},
{
closed = 1;
nodes = (
"16 0 LINE",
"39 116 LINE",
"502 116 LINE",
"479 0 LINE"
);
}
);
width = 600;
}
);
unicode = 00B1;
},
{
glyphname = multiply;
layers = (
{
layerId = "05A52B16-A306-40FB-AA4D-96EE9622F9E6";
name = "Bold Italic";
paths = (
{
closed = 1;
nodes = (
"302 220 LINE",
"135 76 LINE",
"60 163 LINE",
"231 311 LINE",
"119 454 LINE",
"215 534 LINE",
"325 390 LINE",
"492 534 LINE",
"567 447 LINE",
"396 299 LINE",
"508 156 LINE",
"412 76 LINE"
);
}
);
width = 600;
}
);
unicode = 00D7;
},
{
glyphname = divide;
layers = (
{
layerId = "05A52B16-A306-40FB-AA4D-96EE9622F9E6";
name = "Bold Italic";
paths = (
{
closed = 1;
nodes = (
"66 248 LINE",
"89 364 LINE",
"552 364 LINE",
"529 248 LINE"
);
},
{
closed = 1;
nodes = (
"202 30 OFFCURVE",
"182 53 OFFCURVE",
"182 80 CURVE SMOOTH",
"182 91 OFFCURVE",
"185 112 OFFCURVE",
"188 124 CURVE SMOOTH",
"197 163 OFFCURVE",
"223 190 OFFCURVE",
"283 190 CURVE SMOOTH",
"339 190 OFFCURVE",
"359 167 OFFCURVE",
"359 140 CURVE SMOOTH",
"359 129 OFFCURVE",
"356 108 OFFCURVE",
"353 96 CURVE SMOOTH",
"344 57 OFFCURVE",
"318 30 OFFCURVE",
"258 30 CURVE SMOOTH"
);
},
{
closed = 1;
nodes = (
"279 422 OFFCURVE",
"259 445 OFFCURVE",
"259 472 CURVE SMOOTH",
"259 483 OFFCURVE",
"262 504 OFFCURVE",
"265 516 CURVE SMOOTH",
"274 555 OFFCURVE",
"300 582 OFFCURVE",
"360 582 CURVE SMOOTH",
"416 582 OFFCURVE",
"436 559 OFFCURVE",
"436 532 CURVE SMOOTH",
"436 521 OFFCURVE",
"433 500 OFFCURVE",
"430 488 CURVE SMOOTH",
"421 449 OFFCURVE",
"395 422 OFFCURVE",
"335 422 CURVE SMOOTH"
);
}
);
width = 600;
}
);
unicode = 00F7;
},
{
glyphname = equal;
layers = (
{
layerId = "05A52B16-A306-40FB-AA4D-96EE9622F9E6";
name = "Bold Italic";
paths = (
{
closed = 1;
nodes = (
"89 363 LINE",
"112 479 LINE",
"575 479 LINE",
"552 363 LINE"
);
},
{
closed = 1;
nodes = (
"43 132 LINE",
"66 248 LINE",
"529 248 LINE",
"506 132 LINE"
);
}
);
width = 600;
}
);
unicode = 003D;
},
{
glyphname = approxequal;
layers = (
{
layerId = "05A52B16-A306-40FB-AA4D-96EE9622F9E6";
name = "Bold Italic";
paths = (
{
closed = 1;
nodes = (
"363 326 OFFCURVE",
"336 344 OFFCURVE",
"299 365 CURVE SMOOTH",
"266 384 OFFCURVE",
"237 399 OFFCURVE",
"197 399 CURVE SMOOTH",
"166 399 OFFCURVE",
"146 390 OFFCURVE",
"114 370 CURVE",
"77 457 LINE",
"105 488 OFFCURVE",
"150 515 OFFCURVE",
"218 515 CURVE SMOOTH",
"246 515 OFFCURVE",
"266 511 OFFCURVE",
"284 504 CURVE",
"302 496 OFFCURVE",
"318 487 OFFCURVE",
"337 476 CURVE SMOOTH",
"370 457 OFFCURVE",
"399 442 OFFCURVE",
"439 442 CURVE SMOOTH",
"470 442 OFFCURVE",
"490 451 OFFCURVE",
"522 471 CURVE",
"559 384 LINE",
"531 353 OFFCURVE",
"486 326 OFFCURVE",
"418 326 CURVE SMOOTH"
);
},
{
closed = 1;
nodes = (
"328 97 OFFCURVE",
"301 115 OFFCURVE",
"264 136 CURVE SMOOTH",
"231 155 OFFCURVE",
"202 170 OFFCURVE",
"162 170 CURVE SMOOTH",
"131 170 OFFCURVE",
"111 161 OFFCURVE",
"79 141 CURVE",
"42 228 LINE",
"70 259 OFFCURVE",
"115 286 OFFCURVE",
"183 286 CURVE SMOOTH",
"211 286 OFFCURVE",
"231 282 OFFCURVE",
"249 275 CURVE",
"267 267 OFFCURVE",
"283 258 OFFCURVE",
"302 247 CURVE SMOOTH",
"335 228 OFFCURVE",
"364 213 OFFCURVE",
"404 213 CURVE SMOOTH",
"435 213 OFFCURVE",
"455 222 OFFCURVE",
"487 242 CURVE",
"524 155 LINE",
"496 124 OFFCURVE",
"451 97 OFFCURVE",
"383 97 CURVE SMOOTH"
);
}
);
width = 600;
}
);
unicode = 2248;
},
{
glyphname = notequal;
layers = (
{
layerId = "05A52B16-A306-40FB-AA4D-96EE9622F9E6";
name = "Bold Italic";
paths = (
{
closed = 1;
nodes = (
"52 37 LINE",
"121 132 LINE",
"43 132 LINE",
"66 247 LINE",
"210 247 LINE",
"292 365 LINE",
"89 365 LINE",
"112 480 LINE",
"372 480 LINE",
"441 575 LINE",
"566 575 LINE",
"497 480 LINE",
"575 480 LINE",
"552 365 LINE",
"408 365 LINE",
"326 247 LINE",
"529 247 LINE",
"506 132 LINE",
"246 132 LINE",
"177 37 LINE"
);
}
);
width = 600;
}
);
unicode = 2260;
},
{
glyphname = less;
layers = (
{
layerId = "05A52B16-A306-40FB-AA4D-96EE9622F9E6";
name = "Bold Italic";
paths = (
{
closed = 1;
nodes = (
"98 258 LINE",
"116 345 LINE",
"562 603 LINE",
"530 444 LINE",
"262 295 LINE",
"260 288 LINE",
"468 138 LINE",
"440 -1 LINE"
);
}
);
width = 600;
}
);
unicode = 003C;
},
{
glyphname = greater;
layers = (
{
layerId = "05A52B16-A306-40FB-AA4D-96EE9622F9E6";
name = "Bold Italic";
paths = (
{
closed = 1;
nodes = (
"87 158 LINE",
"355 307 LINE",
"357 314 LINE",
"149 464 LINE",
"177 603 LINE",
"519 344 LINE",
"501 257 LINE",
"55 -1 LINE"
);
}
);
width = 600;
}
);
unicode = 003E;
},
{
glyphname = lessequal;
layers = (
{
layerId = "05A52B16-A306-40FB-AA4D-96EE9622F9E6";
name = "Bold Italic";
paths = (
{
closed = 1;
nodes = (
"39 0 LINE",
"62 116 LINE",
"480 116 LINE",
"457 0 LINE"
);
},
{
closed = 1;
nodes = (
"550 468 LINE",
"266 369 LINE",
"265 362 LINE",
"509 264 LINE",
"485 143 LINE",
"102 315 LINE",
"124 423 LINE",
"576 595 LINE"
);
}
);
width = 600;
}
);
unicode = 2264;
},
{
glyphname = greaterequal;
layers = (
{
layerId = "05A52B16-A306-40FB-AA4D-96EE9622F9E6";
name = "Bold Italic";
paths = (
{
closed = 1;
nodes = (
"94 270 LINE",
"378 369 LINE",
"379 376 LINE",
"135 474 LINE",
"159 595 LINE",
"542 423 LINE",
"520 315 LINE",
"68 143 LINE"
);
},
{
closed = 1;
nodes = (
"63 116 LINE",
"481 116 LINE",
"458 0 LINE",
"40 0 LINE"
);
}
);
width = 600;
}
);
unicode = 2265;
},
{
glyphname = periodcentered;
layers = (
{
layerId = "05A52B16-A306-40FB-AA4D-96EE9622F9E6";
name = "Bold Italic";
paths = (
{
closed = 1;
nodes = (
"113 213 OFFCURVE",
"93 244 OFFCURVE",
"93 273 CURVE SMOOTH",
"93 278 OFFCURVE",
"94 286 OFFCURVE",
"96 295 CURVE",
"97 304 OFFCURVE",
"99 312 OFFCURVE",
"100 319 CURVE",
"108 363 OFFCURVE",
"141 393 OFFCURVE",
"197 393 CURVE SMOOTH",
"253 393 OFFCURVE",
"273 362 OFFCURVE",
"273 333 CURVE SMOOTH",
"273 328 OFFCURVE",
"272 321 OFFCURVE",
"271 312 CURVE",
"269 303 OFFCURVE",
"267 294 OFFCURVE",
"266 287 CURVE",
"258 243 OFFCURVE",
"225 213 OFFCURVE",
"169 213 CURVE SMOOTH"
);
}
);
width = 350;
}
);
unicode = 00B7;
},
{
glyphname = bullet;
layers = (
{
layerId = "05A52B16-A306-40FB-AA4D-96EE9622F9E6";
name = "Bold Italic";
paths = (
{
closed = 1;
nodes = (
"95 150 OFFCURVE",
"60 191 OFFCURVE",
"60 250 CURVE SMOOTH",
"60 253 OFFCURVE",
"61 259 OFFCURVE",
"62 270 CURVE SMOOTH",
"64 290 OFFCURVE",
"70 336 OFFCURVE",
"86 368 CURVE SMOOTH",
"102 400 OFFCURVE",
"129 425 OFFCURVE",
"169 438 CURVE",
"188 445 OFFCURVE",
"211 448 OFFCURVE",
"238 448 CURVE SMOOTH",
"341 448 OFFCURVE",
"377 408 OFFCURVE",
"377 349 CURVE SMOOTH",
"377 330 OFFCURVE",
"371 306 OFFCURVE",
"366 281 CURVE SMOOTH",
"351 202 OFFCURVE",
"302 150 OFFCURVE",
"198 150 CURVE SMOOTH"
);
}
);
width = 421;
}
);
unicode = 2022;
},
{
glyphname = lozenge;
layers = (
{
layerId = "05A52B16-A306-40FB-AA4D-96EE9622F9E6";
name = "Bold Italic";
paths = (
{
closed = 1;
nodes = (
"214 0 LINE",
"74 352 LINE",
"329 698 LINE",
"412 698 LINE",
"552 346 LINE",
"297 0 LINE"
);
},
{
closed = 1;
nodes = (
"281 143 LINE",
"429 352 LINE",
"351 555 LINE",
"345 555 LINE",
"197 346 LINE",
"275 143 LINE"
);
}
);
width = 599;
}
);
unicode = 25CA;
},
{
glyphname = logicalnot;
layers = (
{
layerId = "05A52B16-A306-40FB-AA4D-96EE9622F9E6";
name = "Bold Italic";
paths = (
{
closed = 1;
nodes = (
"358 79 LINE",
"392 248 LINE",
"66 248 LINE",
"89 364 LINE",
"534 364 LINE",
"477 79 LINE"
);
}
);
width = 600;
}
);
unicode = 00AC;
},
{
glyphname = radical;
layers = (
{
layerId = "05A52B16-A306-40FB-AA4D-96EE9622F9E6";
name = "Bold Italic";
paths = (
{
closed = 1;
nodes = (
"159 0 LINE",
"119 403 LINE",
"43 403 LINE",
"67 525 LINE",
"233 525 LINE",
"251 321 LINE",
"261 104 LINE",
"269 104 LINE",
"362 321 LINE",
"542 698 LINE",
"668 698 LINE",
"333 0 LINE"
);
}
);
width = 600;
}
);
unicode = 221A;
},
{
glyphname = integral;
layers = (
{
layerId = "05A52B16-A306-40FB-AA4D-96EE9622F9E6";
name = "Bold Italic";
paths = (
{
closed = 1;
nodes = (
"-35 -88 LINE",
"72 -88 LINE",
"208 590 LINE SMOOTH",
"228 690 OFFCURVE",
"292 740 OFFCURVE",
"400 740 CURVE SMOOTH",
"485 740 LINE",
"462 628 LINE",
"355 628 LINE",
"219 -50 LINE SMOOTH",
"199 -150 OFFCURVE",
"135 -200 OFFCURVE",
"27 -200 CURVE SMOOTH",
"-58 -200 LINE"
);
}
);
width = 443;
}
);
unicode = 222B;
},
{
glyphname = infinity;
layers = (
{
layerId = "05A52B16-A306-40FB-AA4D-96EE9622F9E6";
name = "Bold Italic";
paths = (
{
closed = 1;
nodes = (
"78 85 OFFCURVE",
"20 145 OFFCURVE",
"20 246 CURVE SMOOTH",
"20 319 OFFCURVE",
"46 382 OFFCURVE",
"89 426 CURVE SMOOTH",
"132 470 OFFCURVE",
"189 495 OFFCURVE",
"253 495 CURVE SMOOTH",
"340 495 OFFCURVE",
"402 456 OFFCURVE",
"426 357 CURVE",
"430 357 LINE",
"443 405 OFFCURVE",
"468 439 OFFCURVE",
"500 462 CURVE SMOOTH",
"531 485 OFFCURVE",
"568 495 OFFCURVE",
"604 495 CURVE SMOOTH",
"700 495 OFFCURVE",
"758 439 OFFCURVE",
"758 335 CURVE SMOOTH",
"758 260 OFFCURVE",
"732 198 OFFCURVE",
"689 154 CURVE SMOOTH",
"646 110 OFFCURVE",
"589 85 OFFCURVE",
"525 85 CURVE SMOOTH",
"440 85 OFFCURVE",
"376 124 OFFCURVE",
"352 224 CURVE",
"348 224 LINE",
"335 176 OFFCURVE",
"310 141 OFFCURVE",
"279 118 CURVE SMOOTH",
"247 95 OFFCURVE",
"210 85 OFFCURVE",
"174 85 CURVE SMOOTH"
);
},
{
closed = 1;
nodes = (
"265 197 OFFCURVE",
"308 236 OFFCURVE",
"331 279 CURVE",
"327 307 OFFCURVE",
"318 332 OFFCURVE",
"305 352 CURVE SMOOTH",
"292 371 OFFCURVE",
"273 383 OFFCURVE",
"246 383 CURVE SMOOTH",
"203 383 OFFCURVE",
"163 354 OFFCURVE",
"152 298 CURVE SMOOTH",
"151 293 OFFCURVE",
"147 274 OFFCURVE",
"147 262 CURVE SMOOTH",
"147 222 OFFCURVE",
"170 197 OFFCURVE",
"210 197 CURVE SMOOTH"
);
},
{
closed = 1;
nodes = (
"575 197 OFFCURVE",
"615 226 OFFCURVE",
"626 283 CURVE SMOOTH",
"627 288 OFFCURVE",
"631 307 OFFCURVE",
"631 319 CURVE SMOOTH",
"631 359 OFFCURVE",
"608 383 OFFCURVE",
"568 383 CURVE SMOOTH",
"513 383 OFFCURVE",
"470 343 OFFCURVE",
"447 302 CURVE",
"451 274 OFFCURVE",
"460 248 OFFCURVE",
"473 229 CURVE SMOOTH",
"486 209 OFFCURVE",
"505 197 OFFCURVE",
"532 197 CURVE SMOOTH"
);
}
);
width = 768;
}
);
unicode = 221E;
},
{
glyphname = uni212E;
layers = (
{
layerId = "05A52B16-A306-40FB-AA4D-96EE9622F9E6";
name = "Bold Italic";
paths = (
{
closed = 1;
nodes = (
"214 88 LINE",
"253 64 OFFCURVE",
"298 49 OFFCURVE",
"357 49 CURVE SMOOTH",
"477 49 OFFCURVE",
"553 109 OFFCURVE",
"601 198 CURVE",
"656 166 LINE",
"629 115 OFFCURVE",
"591 71 OFFCURVE",
"540 39 CURVE SMOOTH",
"489 7 OFFCURVE",
"428 -12 OFFCURVE",
"357 -12 CURVE SMOOTH",
"262 -12 OFFCURVE",
"182 23 OFFCURVE",
"123 86 CURVE SMOOTH",
"64 149 OFFCURVE",
"30 238 OFFCURVE",
"30 349 CURVE SMOOTH",
"30 458 OFFCURVE",
"64 549 OFFCURVE",
"123 612 CURVE SMOOTH",
"182 675 OFFCURVE",
"262 710 OFFCURVE",
"357 710 CURVE SMOOTH",
"450 710 OFFCURVE",
"532 675 OFFCURVE",
"591 612 CURVE SMOOTH",
"650 549 OFFCURVE",
"684 458 OFFCURVE",
"684 349 CURVE",
"214 349 LINE"
);
},
{
closed = 1;
nodes = (
"500 407 LINE",
"500 613 LINE",
"461 636 OFFCURVE",
"416 652 OFFCURVE",
"357 652 CURVE SMOOTH",
"298 652 OFFCURVE",
"253 636 OFFCURVE",
"214 613 CURVE",
"214 407 LINE"
);
}
);
width = 714;
}
);
unicode = 212E;
},
{
glyphname = uni2113;
layers = (
{
layerId = "05A52B16-A306-40FB-AA4D-96EE9622F9E6";
name = "Bold Italic";
paths = (
{
closed = 1;
nodes = (
"249 -12 OFFCURVE",
"206 4 OFFCURVE",
"175 33 CURVE SMOOTH",
"143 62 OFFCURVE",
"124 104 OFFCURVE",
"124 159 CURVE SMOOTH",
"124 177 LINE",
"120 174 OFFCURVE",
"109 168 OFFCURVE",
"98 161 CURVE",
"92 158 OFFCURVE",
"86 155 OFFCURVE",
"81 152 CURVE SMOOTH",
"76 149 OFFCURVE",
"72 146 OFFCURVE",
"69 144 CURVE",
"16 233 LINE",
"53 253 OFFCURVE",
"103 280 OFFCURVE",
"124 296 CURVE",
"124 539 LINE SMOOTH",
"124 616 OFFCURVE",
"142 670 OFFCURVE",
"173 704 CURVE SMOOTH",
"204 738 OFFCURVE",
"246 752 OFFCURVE",
"297 752 CURVE SMOOTH",
"405 752 OFFCURVE",
"465 686 OFFCURVE",
"465 575 CURVE SMOOTH",
"465 454 OFFCURVE",
"390 351 OFFCURVE",
"241 238 CURVE",
"241 172 LINE SMOOTH",
"241 121 OFFCURVE",
"264 101 OFFCURVE",
"303 101 CURVE SMOOTH",
"323 101 OFFCURVE",
"343 107 OFFCURVE",
"361 125 CURVE SMOOTH",
"379 143 OFFCURVE",
"396 172 OFFCURVE",
"413 219 CURVE",
"511 177 LINE",
"495 125 OFFCURVE",
"469 78 OFFCURVE",
"433 44 CURVE SMOOTH",
"397 10 OFFCURVE",
"352 -12 OFFCURVE",
"297 -12 CURVE SMOOTH"
);
},
{
closed = 1;
nodes = (
"265 636 OFFCURVE",
"241 613 OFFCURVE",
"241 566 CURVE SMOOTH",
"241 367 LINE",
"302 420 OFFCURVE",
"343 485 OFFCURVE",
"343 550 CURVE SMOOTH",
"343 567 LINE SMOOTH",
"343 616 OFFCURVE",
"321 636 OFFCURVE",
"294 636 CURVE SMOOTH"
);
}
);
width = 532;
}
);
unicode = 2113;
},
{
glyphname = uni2116;
layers = (
{
layerId = "05A52B16-A306-40FB-AA4D-96EE9622F9E6";
name = "Bold Italic";
paths = (
{
closed = 1;
nodes = (
"777 358 OFFCURVE",
"716 406 OFFCURVE",
"716 505 CURVE SMOOTH",
"716 557 OFFCURVE",
"735 609 OFFCURVE",
"768 647 CURVE SMOOTH",
"801 685 OFFCURVE",
"849 710 OFFCURVE",
"906 710 CURVE SMOOTH",
"986 710 OFFCURVE",
"1047 661 OFFCURVE",
"1047 562 CURVE SMOOTH",
"1047 510 OFFCURVE",
"1028 459 OFFCURVE",
"995 421 CURVE SMOOTH",
"962 383 OFFCURVE",
"914 358 OFFCURVE",
"857 358 CURVE SMOOTH"
);
},
{
closed = 1;
nodes = (
"22 0 LINE",
"162 698 LINE",
"330 698 LINE",
"421 362 LINE",
"453 223 LINE",
"459 223 LINE",
"554 698 LINE",
"689 698 LINE",
"549 0 LINE",
"380 0 LINE",
"291 336 LINE",
"258 475 LINE",
"252 475 LINE",
"157 0 LINE"
);
},
{
closed = 1;
nodes = (
"899 436 OFFCURVE",
"923 462 OFFCURVE",
"932 507 CURVE SMOOTH",
"942 557 LINE SMOOTH",
"944 567 OFFCURVE",
"945 576 OFFCURVE",
"945 584 CURVE SMOOTH",
"945 613 OFFCURVE",
"930 632 OFFCURVE",
"899 632 CURVE SMOOTH",
"864 632 OFFCURVE",
"840 605 OFFCURVE",
"831 560 CURVE SMOOTH",
"821 510 LINE SMOOTH",
"819 500 OFFCURVE",
"818 491 OFFCURVE",
"818 483 CURVE SMOOTH",
"818 454 OFFCURVE",
"833 436 OFFCURVE",
"864 436 CURVE SMOOTH"
);
},
{
closed = 1;
nodes = (
"661 218 LINE",
"677 297 LINE",
"993 297 LINE",
"977 218 LINE"
);
}
);
width = 1028;
}
);
unicode = 2116;
},
{
glyphname = partialdiff;
layers = (
{
layerId = "05A52B16-A306-40FB-AA4D-96EE9622F9E6";
name = "Bold Italic";
paths = (
{
closed = 1;
nodes = (
"103 -12 OFFCURVE",
"30 70 OFFCURVE",
"30 211 CURVE SMOOTH",
"30 294 OFFCURVE",
"56 367 OFFCURVE",
"97 420 CURVE SMOOTH",
"138 472 OFFCURVE",
"196 504 OFFCURVE",
"263 504 CURVE SMOOTH",
"338 504 OFFCURVE",
"383 461 OFFCURVE",
"402 398 CURVE",
"410 398 LINE",
"398 474 OFFCURVE",
"356 537 OFFCURVE",
"308 587 CURVE SMOOTH",
"260 637 OFFCURVE",
"206 674 OFFCURVE",
"173 698 CURVE",
"369 698 LINE",
"481 607 OFFCURVE",
"534 500 OFFCURVE",
"534 347 CURVE SMOOTH",
"534 247 OFFCURVE",
"511 157 OFFCURVE",
"463 93 CURVE SMOOTH",
"415 28 OFFCURVE",
"343 -12 OFFCURVE",
"244 -12 CURVE SMOOTH"
);
},
{
closed = 1;
nodes = (
"315 96 OFFCURVE",
"351 141 OFFCURVE",
"363 205 CURVE SMOOTH",
"376 273 LINE",
"379 284 OFFCURVE",
"380 300 OFFCURVE",
"380 313 CURVE SMOOTH",
"380 365 OFFCURVE",
"349 394 OFFCURVE",
"298 394 CURVE SMOOTH",
"235 394 OFFCURVE",
"200 349 OFFCURVE",
"188 285 CURVE SMOOTH",
"175 217 LINE",
"172 206 OFFCURVE",
"171 190 OFFCURVE",
"171 177 CURVE SMOOTH",
"171 125 OFFCURVE",
"201 96 OFFCURVE",
"252 96 CURVE SMOOTH"
);
}
);
width = 571;
}
);
unicode = 2202;
},
{
glyphname = cent;
layers = (
{
layerId = "05A52B16-A306-40FB-AA4D-96EE9622F9E6";
name = "Bold Italic";
paths = (
{
closed = 1;
nodes = (
"182 -4 LINE",
"91 20 OFFCURVE",
"33 101 OFFCURVE",
"33 222 CURVE SMOOTH",
"33 297 OFFCURVE",
"57 368 OFFCURVE",
"101 422 CURVE SMOOTH",
"145 476 OFFCURVE",
"208 514 OFFCURVE",
"287 525 CURVE",
"308 630 LINE",
"418 630 LINE",
"396 521 LINE",
"464 504 OFFCURVE",
"511 458 OFFCURVE",
"527 399 CURVE",
"419 346 LINE",
"412 375 OFFCURVE",
"394 400 OFFCURVE",
"365 412 CURVE",
"303 103 LINE",
"339 115 OFFCURVE",
"368 142 OFFCURVE",
"391 173 CURVE",
"483 114 LINE",
"439 50 OFFCURVE",
"379 5 OFFCURVE",
"291 -8 CURVE",
"270 -114 LINE",
"160 -114 LINE"
);
},
{
closed = 1;
nodes = (
"168 147 OFFCURVE",
"183 120 OFFCURVE",
"213 106 CURVE",
"274 410 LINE",
"230 393 OFFCURVE",
"200 355 OFFCURVE",
"189 303 CURVE SMOOTH",
"171 213 LINE SMOOTH",
"169 203 OFFCURVE",
"168 194 OFFCURVE",
"168 186 CURVE SMOOTH"
);
}
);
width = 532;
}
);
unicode = 00A2;
},
{
glyphname = Euro;
layers = (
{
layerId = "05A52B16-A306-40FB-AA4D-96EE9622F9E6";
name = "Bold Italic";
paths = (
{
closed = 1;
nodes = (
"233 -12 OFFCURVE",
"171 12 OFFCURVE",
"127 61 CURVE SMOOTH",
"83 109 OFFCURVE",
"56 181 OFFCURVE",
"56 280 CURVE SMOOTH",
"56 411 OFFCURVE",
"101 518 OFFCURVE",
"169 593 CURVE SMOOTH",
"236 668 OFFCURVE",
"324 710 OFFCURVE",
"412 710 CURVE SMOOTH",
"523 710 OFFCURVE",
"601 666 OFFCURVE",
"633 586 CURVE",
"521 516 LINE",
"504 563 OFFCURVE",
"472 591 OFFCURVE",
"404 591 CURVE SMOOTH",
"336 591 OFFCURVE",
"280 551 OFFCURVE",
"249 472 CURVE",
"474 472 LINE",
"456 384 LINE",
"225 384 LINE",
"211 314 LINE",
"442 314 LINE",
"424 226 LINE",
"201 226 LINE",
"205 151 OFFCURVE",
"250 107 OFFCURVE",
"314 107 CURVE SMOOTH",
"351 107 OFFCURVE",
"381 119 OFFCURVE",
"405 136 CURVE SMOOTH",
"429 152 OFFCURVE",
"447 174 OFFCURVE",
"460 194 CURVE",
"549 116 LINE",
"496 44 OFFCURVE",
"413 -12 OFFCURVE",
"301 -12 CURVE SMOOTH"
);
}
);
width = 617;
}
);
unicode = 20AC;
},
{
glyphname = florin;
layers = (
{
layerId = "05A52B16-A306-40FB-AA4D-96EE9622F9E6";
name = "Bold Italic";
paths = (
{
closed = 1;
nodes = (
"-32 -22 LINE",
"83 -22 LINE",
"159 256 LINE",
"61 256 LINE",
"84 370 LINE",
"190 370 LINE",
"240 554 LINE SMOOTH",
"264 642 OFFCURVE",
"327 698 OFFCURVE",
"432 698 CURVE SMOOTH",
"534 698 LINE",
"511 586 LINE",
"390 586 LINE",
"332 370 LINE",
"465 370 LINE",
"442 256 LINE",
"302 256 LINE",
"235 9 LINE SMOOTH",
"211 -79 OFFCURVE",
"146 -134 OFFCURVE",
"42 -134 CURVE SMOOTH",
"-55 -134 LINE"
);
}
);
width = 472;
}
);
unicode = 0192;
},
{
glyphname = sterling;
layers = (
{
layerId = "05A52B16-A306-40FB-AA4D-96EE9622F9E6";
name = "Bold Italic";
paths = (
{
closed = 1;
nodes = (
"30 0 LINE",
"57 134 LINE",
"121 161 OFFCURVE",
"159 220 OFFCURVE",
"159 291 CURVE",
"56 291 LINE",
"80 408 LINE",
"144 408 LINE",
"142 423 OFFCURVE",
"141 438 OFFCURVE",
"141 455 CURVE SMOOTH",
"141 526 OFFCURVE",
"167 590 OFFCURVE",
"215 636 CURVE SMOOTH",
"262 682 OFFCURVE",
"329 710 OFFCURVE",
"410 710 CURVE SMOOTH",
"515 710 OFFCURVE",
"580 670 OFFCURVE",
"627 590 CURVE",
"512 514 LINE",
"485 563 OFFCURVE",
"454 582 OFFCURVE",
"399 582 CURVE SMOOTH",
"327 582 OFFCURVE",
"285 530 OFFCURVE",
"285 447 CURVE SMOOTH",
"285 433 OFFCURVE",
"286 420 OFFCURVE",
"288 408 CURVE",
"479 408 LINE",
"455 291 LINE",
"305 291 LINE",
"302 250 OFFCURVE",
"289 216 OFFCURVE",
"270 190 CURVE SMOOTH",
"250 164 OFFCURVE",
"226 146 OFFCURVE",
"205 134 CURVE",
"203 125 LINE",
"528 125 LINE",
"503 0 LINE"
);
}
);
width = 591;
}
);
unicode = 00A3;
},
{
glyphname = dollar;
layers = (
{
layerId = "05A52B16-A306-40FB-AA4D-96EE9622F9E6";
name = "Bold Italic";
paths = (
{
closed = 1;
nodes = (
"173 13 LINE",
"93 28 OFFCURVE",
"27 62 OFFCURVE",
"-5 111 CURVE",
"88 196 LINE",
"112 157 OFFCURVE",
"158 132 OFFCURVE",
"207 121 CURVE",
"244 304 LINE",
"127 331 OFFCURVE",
"74 387 OFFCURVE",
"74 479 CURVE SMOOTH",
"74 538 OFFCURVE",
"96 588 OFFCURVE",
"137 625 CURVE SMOOTH",
"177 662 OFFCURVE",
"236 686 OFFCURVE",
"309 690 CURVE",
"327 780 LINE",
"437 780 LINE",
"417 684 LINE",
"485 671 OFFCURVE",
"539 641 OFFCURVE",
"568 596 CURVE",
"475 514 LINE",
"456 542 OFFCURVE",
"426 565 OFFCURVE",
"383 576 CURVE",
"349 408 LINE",
"457 381 OFFCURVE",
"516 329 OFFCURVE",
"516 236 CURVE SMOOTH",
"516 183 OFFCURVE",
"497 130 OFFCURVE",
"458 89 CURVE SMOOTH",
"418 48 OFFCURVE",
"359 17 OFFCURVE",
"282 9 CURVE",
"265 -82 LINE",
"155 -82 LINE"
);
},
{
closed = 1;
nodes = (
"380 244 OFFCURVE",
"368 270 OFFCURVE",
"325 285 CURVE",
"294 120 LINE",
"361 133 OFFCURVE",
"380 173 OFFCURVE",
"380 213 CURVE SMOOTH"
);
},
{
closed = 1;
nodes = (
"210 463 OFFCURVE",
"229 441 OFFCURVE",
"268 428 CURVE",
"297 579 LINE",
"233 570 OFFCURVE",
"210 533 OFFCURVE",
"210 496 CURVE SMOOTH"
);
}
);
width = 561;
}
);
unicode = 0024;
},
{
glyphname = yen;
layers = (
{
layerId = "05A52B16-A306-40FB-AA4D-96EE9622F9E6";
name = "Bold Italic";
paths = (
{
closed = 1;
nodes = (
"360 134 LINE",
"333 0 LINE",
"187 0 LINE",
"213 134 LINE",
"52 134 LINE",
"70 222 LINE",
"231 222 LINE",
"245 293 LINE",
"84 293 LINE",
"102 381 LINE",
"207 381 LINE",
"108 698 LINE",
"263 698 LINE",
"342 426 LINE",
"346 426 LINE",
"530 698 LINE",
"698 698 LINE",
"469 381 LINE",
"574 381 LINE",
"556 293 LINE",
"392 293 LINE",
"378 222 LINE",
"542 222 LINE",
"524 134 LINE"
);
}
);
width = 626;
}
);
unicode = 00A5;
},
{
glyphname = uni0E3F;
layers = (
{
layerId = "05A52B16-A306-40FB-AA4D-96EE9622F9E6";
name = "Bold Italic";
paths = (
{
closed = 1;
nodes = (
"307 -90 LINE",
"198 -90 LINE",
"219 20 LINE",
"26 20 LINE",
"158 678 LINE",
"351 678 LINE",
"372 780 LINE",
"481 780 LINE",
"460 678 LINE",
"516 675 OFFCURVE",
"560 660 OFFCURVE",
"589 633 CURVE SMOOTH",
"617 606 OFFCURVE",
"633 570 OFFCURVE",
"633 529 CURVE SMOOTH",
"633 445 OFFCURVE",
"575 389 OFFCURVE",
"492 370 CURVE",
"491 365 LINE",
"556 352 OFFCURVE",
"597 298 OFFCURVE",
"597 231 CURVE SMOOTH",
"597 175 OFFCURVE",
"573 123 OFFCURVE",
"530 84 CURVE SMOOTH",
"487 44 OFFCURVE",
"426 20 OFFCURVE",
"353 20 CURVE SMOOTH",
"329 20 LINE"
);
},
{
closed = 1;
nodes = (
"306 407 LINE",
"336 560 LINE",
"271 560 LINE",
"241 407 LINE"
);
},
{
closed = 1;
nodes = (
"396 407 LINE",
"406 407 LINE SMOOTH",
"446 407 OFFCURVE",
"473 430 OFFCURVE",
"481 470 CURVE SMOOTH",
"484 485 OFFCURVE",
"486 496 OFFCURVE",
"487 501 CURVE SMOOTH",
"488 506 OFFCURVE",
"488 511 OFFCURVE",
"488 514 CURVE SMOOTH",
"488 545 OFFCURVE",
"467 560 OFFCURVE",
"434 560 CURVE SMOOTH",
"427 560 LINE"
);
},
{
closed = 1;
nodes = (
"252 138 LINE",
"283 294 LINE",
"218 294 LINE",
"187 138 LINE"
);
},
{
closed = 1;
nodes = (
"343 138 LINE",
"376 138 LINE SMOOTH",
"415 138 OFFCURVE",
"443 160 OFFCURVE",
"451 200 CURVE SMOOTH",
"454 217 OFFCURVE",
"456 229 OFFCURVE",
"457 235 CURVE SMOOTH",
"458 240 OFFCURVE",
"458 244 OFFCURVE",
"458 247 CURVE SMOOTH",
"458 278 OFFCURVE",
"439 294 OFFCURVE",
"404 294 CURVE SMOOTH",
"374 294 LINE"
);
}
);
width = 644;
}
);
unicode = 0E3F;
},
{
glyphname = uni20A1;
layers = (
{
layerId = "05A52B16-A306-40FB-AA4D-96EE9622F9E6";
name = "Bold Italic";
paths = (
{
closed = 1;
nodes = (
"129 -82 LINE",
"164 39 LINE",
"99 80 OFFCURVE",
"56 162 OFFCURVE",
"56 290 CURVE SMOOTH",
"56 389 OFFCURVE",
"85 480 OFFCURVE",
"137 551 CURVE SMOOTH",
"189 622 OFFCURVE",
"265 671 OFFCURVE",
"358 686 CURVE",
"386 780 LINE",
"454 780 LINE",
"428 691 LINE",
"441 691 OFFCURVE",
"456 690 OFFCURVE",
"469 687 CURVE",
"496 780 LINE",
"563 780 LINE",
"529 668 LINE",
"576 647 OFFCURVE",
"609 613 OFFCURVE",
"629 574 CURVE",
"522 508 LINE",
"517 523 OFFCURVE",
"507 537 OFFCURVE",
"492 549 CURVE",
"369 133 LINE",
"401 146 OFFCURVE",
"431 169 OFFCURVE",
"454 202 CURVE",
"539 129 LINE",
"488 61 OFFCURVE",
"426 22 OFFCURVE",
"333 10 CURVE",
"306 -82 LINE",
"239 -82 LINE",
"265 7 LINE",
"249 8 OFFCURVE",
"238 10 OFFCURVE",
"225 13 CURVE",
"197 -82 LINE"
);
},
{
closed = 1;
nodes = (
"258 128 LINE",
"272 123 OFFCURVE",
"286 120 OFFCURVE",
"299 120 CURVE",
"435 573 LINE",
"420 577 OFFCURVE",
"407 578 OFFCURVE",
"392 578 CURVE"
);
},
{
closed = 1;
nodes = (
"192 217 OFFCURVE",
"197 195 OFFCURVE",
"207 176 CURVE",
"322 564 LINE",
"273 541 OFFCURVE",
"237 490 OFFCURVE",
"221 410 CURVE SMOOTH",
"198 294 LINE SMOOTH",
"195 279 OFFCURVE",
"192 263 OFFCURVE",
"192 244 CURVE SMOOTH"
);
}
);
width = 613;
}
);
unicode = 20A1;
},
{
glyphname = uni20A4;
layers = (
{
layerId = "05A52B16-A306-40FB-AA4D-96EE9622F9E6";
name = "Bold Italic";
paths = (
{
closed = 1;
nodes = (
"503 0 LINE",
"30 0 LINE",
"57 134 LINE",
"100 153 OFFCURVE",
"130 186 OFFCURVE",
"147 227 CURVE",
"42 227 LINE",
"60 315 LINE",
"158 315 LINE",
"157 326 OFFCURVE",
"155 338 OFFCURVE",
"153 350 CURVE SMOOTH",
"151 361 OFFCURVE",
"149 373 OFFCURVE",
"148 385 CURVE",
"74 385 LINE",
"91 473 LINE",
"142 473 LINE",
"146 540 OFFCURVE",
"174 599 OFFCURVE",
"221 642 CURVE SMOOTH",
"268 685 OFFCURVE",
"333 710 OFFCURVE",
"410 710 CURVE SMOOTH",
"515 710 OFFCURVE",
"580 670 OFFCURVE",
"627 590 CURVE",
"512 514 LINE",
"485 563 OFFCURVE",
"454 584 OFFCURVE",
"399 584 CURVE SMOOTH",
"335 584 OFFCURVE",
"294 541 OFFCURVE",
"286 473 CURVE",
"471 473 LINE",
"454 385 LINE",
"293 385 LINE",
"295 374 OFFCURVE",
"297 362 OFFCURVE",
"300 351 CURVE",
"302 339 OFFCURVE",
"303 327 OFFCURVE",
"304 315 CURVE",
"440 315 LINE",
"422 227 LINE",
"290 227 LINE",
"271 182 OFFCURVE",
"236 149 OFFCURVE",
"205 133 CURVE",
"203 121 LINE",
"528 121 LINE"
);
}
);
width = 591;
}
);
unicode = 20A4;
},
{
glyphname = uni20A6;
layers = (
{
layerId = "05A52B16-A306-40FB-AA4D-96EE9622F9E6";
name = "Bold Italic";
paths = (
{
closed = 1;
nodes = (
"376 229 LINE",
"236 229 LINE",
"191 0 LINE",
"63 0 LINE",
"108 228 LINE",
"22 228 LINE",
"39 316 LINE",
"126 316 LINE",
"140 387 LINE",
"54 387 LINE",
"71 475 LINE",
"158 475 LINE",
"202 698 LINE",
"368 698 LINE",
"432 475 LINE",
"576 475 LINE",
"620 698 LINE",
"746 698 LINE",
"702 475 LINE",
"788 475 LINE",
"770 387 LINE",
"684 387 LINE",
"670 316 LINE",
"755 316 LINE",
"738 228 LINE",
"653 228 LINE",
"608 0 LINE",
"440 0 LINE"
);
},
{
closed = 1;
nodes = (
"352 313 LINE",
"325 409 LINE",
"297 521 LINE",
"292 521 LINE",
"252 313 LINE"
);
},
{
closed = 1;
nodes = (
"482 301 LINE",
"514 178 LINE",
"518 178 LINE",
"559 391 LINE",
"456 391 LINE"
);
}
);
width = 765;
}
);
unicode = 20A6;
},
{
glyphname = uni20A8;
layers = (
{
layerId = "05A52B16-A306-40FB-AA4D-96EE9622F9E6";
name = "Bold Italic";
paths = (
{
closed = 1;
nodes = (
"162 698 LINE",
"358 698 LINE SMOOTH",
"487 698 OFFCURVE",
"555 638 OFFCURVE",
"555 534 CURVE SMOOTH",
"555 429 OFFCURVE",
"504 351 OFFCURVE",
"432 312 CURVE",
"477 189 LINE SMOOTH",
"501 124 OFFCURVE",
"529 98 OFFCURVE",
"581 98 CURVE SMOOTH",
"632 98 OFFCURVE",
"655 124 OFFCURVE",
"655 155 CURVE SMOOTH",
"655 174 OFFCURVE",
"646 189 OFFCURVE",
"627 213 CURVE SMOOTH",
"612 233 LINE SMOOTH",
"580 276 OFFCURVE",
"558 311 OFFCURVE",
"558 366 CURVE SMOOTH",
"558 413 OFFCURVE",
"577 454 OFFCURVE",
"610 485 CURVE SMOOTH",
"642 516 OFFCURVE",
"688 535 OFFCURVE",
"741 535 CURVE SMOOTH",
"784 535 OFFCURVE",
"835 528 OFFCURVE",
"868 505 CURVE",
"804 409 LINE",
"785 422 OFFCURVE",
"769 428 OFFCURVE",
"746 428 CURVE SMOOTH",
"715 428 OFFCURVE",
"692 407 OFFCURVE",
"692 375 CURVE SMOOTH",
"692 352 OFFCURVE",
"708 336 OFFCURVE",
"727 312 CURVE SMOOTH",
"741 294 LINE SMOOTH",
"777 250 OFFCURVE",
"798 218 OFFCURVE",
"798 171 CURVE SMOOTH",
"798 123 OFFCURVE",
"782 78 OFFCURVE",
"743 44 CURVE SMOOTH",
"704 10 OFFCURVE",
"643 -12 OFFCURVE",
"551 -12 CURVE SMOOTH",
"459 -12 OFFCURVE",
"388 29 OFFCURVE",
"353 130 CURVE SMOOTH",
"302 276 LINE",
"223 276 LINE",
"168 0 LINE",
"22 0 LINE"
);
},
{
closed = 1;
nodes = (
"309 396 LINE SMOOTH",
"356 396 OFFCURVE",
"385 423 OFFCURVE",
"394 468 CURVE SMOOTH",
"403 512 LINE",
"404 519 OFFCURVE",
"405 525 OFFCURVE",
"405 531 CURVE SMOOTH",
"405 562 OFFCURVE",
"383 578 OFFCURVE",
"344 578 CURVE SMOOTH",
"284 578 LINE",
"247 396 LINE"
);
}
);
width = 868;
}
);
unicode = 20A8;
},
{
glyphname = uni20A9;
layers = (
{
layerId = "05A52B16-A306-40FB-AA4D-96EE9622F9E6";
name = "Bold Italic";
paths = (
{
closed = 1;
nodes = (
"556 229 LINE",
"416 229 LINE",
"318 0 LINE",
"151 0 LINE",
"146 228 LINE",
"30 228 LINE",
"47 316 LINE",
"144 316 LINE",
"143 387 LINE",
"62 387 LINE",
"79 475 LINE",
"141 475 LINE",
"136 698 LINE",
"278 698 LINE",
"277 475 LINE",
"406 475 LINE",
"501 698 LINE",
"657 698 LINE",
"663 475 LINE",
"794 475 LINE",
"882 698 LINE",
"1025 698 LINE",
"930 475 LINE",
"993 475 LINE",
"975 387 LINE",
"893 387 LINE",
"863 316 LINE",
"959 316 LINE",
"943 228 LINE",
"825 228 LINE",
"728 0 LINE",
"562 0 LINE"
);
},
{
closed = 1;
nodes = (
"279 169 LINE",
"371 391 LINE",
"277 391 LINE",
"275 169 LINE"
);
},
{
closed = 1;
nodes = (
"675 167 LINE",
"761 391 LINE",
"665 391 LINE",
"671 167 LINE"
);
},
{
closed = 1;
nodes = (
"553 312 LINE",
"548 534 LINE",
"544 534 LINE",
"452 312 LINE"
);
}
);
width = 984;
}
);
unicode = 20A9;
},
{
glyphname = uni20AA;
layers = (
{
layerId = "05A52B16-A306-40FB-AA4D-96EE9622F9E6";
name = "Bold Italic";
paths = (
{
closed = 1;
nodes = (
"325 509 LINE",
"455 509 LINE",
"377 120 LINE",
"522 120 LINE SMOOTH",
"573 120 OFFCURVE",
"606 127 OFFCURVE",
"630 146 CURVE SMOOTH",
"653 165 OFFCURVE",
"665 197 OFFCURVE",
"676 245 CURVE SMOOTH",
"767 698 LINE",
"897 698 LINE",
"807 249 LINE SMOOTH",
"788 162 OFFCURVE",
"766 100 OFFCURVE",
"720 60 CURVE SMOOTH",
"674 19 OFFCURVE",
"605 0 OFFCURVE",
"498 0 CURVE SMOOTH",
"222 0 LINE"
);
},
{
closed = 1;
nodes = (
"22 0 LINE",
"162 698 LINE",
"468 698 LINE SMOOTH",
"588 698 OFFCURVE",
"655 632 OFFCURVE",
"655 524 CURVE SMOOTH",
"655 505 OFFCURVE",
"653 480 OFFCURVE",
"648 457 CURVE SMOOTH",
"594 189 LINE",
"464 189 LINE",
"520 469 LINE SMOOTH",
"523 484 OFFCURVE",
"525 499 OFFCURVE",
"525 512 CURVE SMOOTH",
"525 556 OFFCURVE",
"502 578 OFFCURVE",
"455 578 CURVE SMOOTH",
"268 578 LINE",
"152 0 LINE"
);
}
);
width = 885;
}
);
unicode = 20AA;
},
{
glyphname = uni20AB;
layers = (
{
layerId = "05A52B16-A306-40FB-AA4D-96EE9622F9E6";
name = "Bold Italic";
paths = (
{
closed = 1;
nodes = (
"339 238 LINE",
"332 238 LINE",
"304 194 OFFCURVE",
"265 157 OFFCURVE",
"196 157 CURVE SMOOTH",
"160 157 OFFCURVE",
"127 168 OFFCURVE",
"103 193 CURVE SMOOTH",
"79 217 OFFCURVE",
"65 255 OFFCURVE",
"65 310 CURVE SMOOTH",
"65 381 OFFCURVE",
"87 438 OFFCURVE",
"120 478 CURVE SMOOTH",
"153 518 OFFCURVE",
"198 541 OFFCURVE",
"246 541 CURVE SMOOTH",
"330 541 OFFCURVE",
"364 507 OFFCURVE",
"376 460 CURVE",
"383 460 LINE",
"410 594 LINE",
"287 594 LINE",
"305 683 LINE",
"428 683 LINE",
"439 740 LINE",
"577 740 LINE",
"566 683 LINE",
"620 683 LINE",
"602 594 LINE",
"548 594 LINE",
"461 165 LINE",
"324 165 LINE"
);
},
{
closed = 1;
nodes = (
"318 257 OFFCURVE",
"347 286 OFFCURVE",
"354 315 CURVE",
"367 380 LINE",
"374 408 OFFCURVE",
"352 441 OFFCURVE",
"293 441 CURVE SMOOTH",
"244 441 OFFCURVE",
"218 411 OFFCURVE",
"209 366 CURVE SMOOTH",
"206 351 OFFCURVE",
"204 340 OFFCURVE",
"203 333 CURVE SMOOTH",
"202 326 OFFCURVE",
"202 321 OFFCURVE",
"202 318 CURVE SMOOTH",
"202 281 OFFCURVE",
"224 257 OFFCURVE",
"271 257 CURVE SMOOTH"
);
},
{
closed = 1;
nodes = (
"17 0 LINE",
"38 103 LINE",
"472 103 LINE",
"451 0 LINE"
);
}
);
width = 569;
}
);
unicode = 20AB;
},
{
glyphname = uni20AD;
layers = (
{
layerId = "05A52B16-A306-40FB-AA4D-96EE9622F9E6";
name = "Bold Italic";
paths = (
{
closed = 1;
nodes = (
"188 0 LINE",
"43 0 LINE",
"101 293 LINE",
"15 293 LINE",
"39 410 LINE",
"125 410 LINE",
"183 698 LINE",
"328 698 LINE",
"270 410 LINE",
"310 410 LINE",
"551 698 LINE",
"718 698 LINE",
"466 410 LINE",
"636 410 LINE",
"612 293 LINE",
"440 293 LINE",
"590 0 LINE",
"432 0 LINE",
"289 293 LINE",
"246 293 LINE"
);
}
);
width = 665;
}
);
unicode = 20AD;
},
{
glyphname = uni20AE;
layers = (
{
layerId = "05A52B16-A306-40FB-AA4D-96EE9622F9E6";
name = "Bold Italic";
paths = (
{
closed = 1;
nodes = (
"356 207 LINE",
"315 0 LINE",
"170 0 LINE",
"197 136 LINE",
"70 80 LINE",
"88 170 LINE",
"215 226 LINE",
"229 294 LINE",
"102 238 LINE",
"120 328 LINE",
"247 384 LINE",
"286 578 LINE",
"101 578 LINE",
"125 698 LINE",
"639 698 LINE",
"615 578 LINE",
"431 578 LINE",
"406 454 LINE",
"537 513 LINE",
"519 423 LINE",
"388 364 LINE",
"374 297 LINE",
"505 355 LINE",
"487 265 LINE"
);
}
);
width = 589;
}
);
unicode = 20AE;
},
{
glyphname = uni20B1;
layers = (
{
layerId = "05A52B16-A306-40FB-AA4D-96EE9622F9E6";
name = "Bold Italic";
paths = (
{
closed = 1;
nodes = (
"125 312 LINE",
"38 312 LINE",
"54 391 LINE",
"141 391 LINE",
"155 459 LINE",
"68 459 LINE",
"84 538 LINE",
"171 538 LINE",
"202 698 LINE",
"437 698 LINE SMOOTH",
"484 698 OFFCURVE",
"527 688 OFFCURVE",
"560 662 CURVE SMOOTH",
"592 636 OFFCURVE",
"616 595 OFFCURVE",
"624 538 CURVE",
"725 538 LINE",
"709 459 LINE",
"625 459 LINE",
"622 434 OFFCURVE",
"619 414 OFFCURVE",
"614 391 CURVE",
"695 391 LINE",
"679 312 LINE",
"584 312 LINE",
"533 215 OFFCURVE",
"448 152 OFFCURVE",
"352 152 CURVE SMOOTH",
"237 152 LINE",
"207 0 LINE",
"62 0 LINE"
);
},
{
closed = 1;
nodes = (
"314 533 LINE",
"492 533 LINE",
"491 572 OFFCURVE",
"471 598 OFFCURVE",
"434 598 CURVE SMOOTH",
"326 598 LINE"
);
},
{
closed = 1;
nodes = (
"284 387 LINE",
"465 387 LINE",
"481 463 LINE",
"300 463 LINE"
);
},
{
closed = 1;
nodes = (
"366 252 LINE SMOOTH",
"405 252 OFFCURVE",
"434 276 OFFCURVE",
"449 317 CURVE",
"270 317 LINE",
"257 252 LINE"
);
}
);
width = 696;
}
);
unicode = 20B1;
},
{
glyphname = uni20B2;
layers = (
{
layerId = "05A52B16-A306-40FB-AA4D-96EE9622F9E6";
name = "Bold Italic";
paths = (
{
closed = 1;
nodes = (
"167 41 LINE",
"103 82 OFFCURVE",
"57 160 OFFCURVE",
"57 284 CURVE SMOOTH",
"57 397 OFFCURVE",
"92 499 OFFCURVE",
"153 572 CURVE SMOOTH",
"213 645 OFFCURVE",
"300 691 OFFCURVE",
"404 691 CURVE SMOOTH",
"408 691 LINE",
"440 780 LINE",
"550 780 LINE",
"511 672 LINE",
"572 648 OFFCURVE",
"619 603 OFFCURVE",
"638 538 CURVE",
"521 487 LINE",
"514 522 OFFCURVE",
"495 550 OFFCURVE",
"462 565 CURVE",
"396 386 LINE",
"619 386 LINE",
"592 250 LINE SMOOTH",
"573 161 OFFCURVE",
"527 100 OFFCURVE",
"470 62 CURVE SMOOTH",
"413 24 OFFCURVE",
"344 7 OFFCURVE",
"284 7 CURVE SMOOTH",
"265 7 LINE",
"231 -82 LINE",
"121 -82 LINE"
);
},
{
closed = 1;
nodes = (
"194 207 OFFCURVE",
"203 178 OFFCURVE",
"218 158 CURVE",
"374 576 LINE",
"373 576 LINE",
"289 565 OFFCURVE",
"241 502 OFFCURVE",
"221 403 CURVE SMOOTH",
"200 298 LINE SMOOTH",
"196 280 OFFCURVE",
"194 263 OFFCURVE",
"194 248 CURVE SMOOTH"
);
},
{
closed = 1;
nodes = (
"298 120 LINE",
"305 120 LINE SMOOTH",
"377 120 OFFCURVE",
"439 159 OFFCURVE",
"456 243 CURVE SMOOTH",
"462 273 LINE",
"354 273 LINE"
);
}
);
width = 663;
}
);
unicode = 20B2;
},
{
glyphname = uni20B4;
layers = (
{
layerId = "05A52B16-A306-40FB-AA4D-96EE9622F9E6";
name = "Bold Italic";
paths = (
{
closed = 1;
nodes = (
"205 -12 OFFCURVE",
"157 7 OFFCURVE",
"126 37 CURVE SMOOTH",
"94 67 OFFCURVE",
"80 107 OFFCURVE",
"80 154 CURVE SMOOTH",
"80 181 OFFCURVE",
"84 206 OFFCURVE",
"92 229 CURVE",
"23 229 LINE",
"41 317 LINE",
"165 317 LINE",
"294 388 LINE",
"54 388 LINE",
"72 476 LINE",
"419 476 LINE",
"430 495 OFFCURVE",
"435 514 OFFCURVE",
"435 531 CURVE SMOOTH",
"435 574 OFFCURVE",
"409 595 OFFCURVE",
"356 595 CURVE SMOOTH",
"313 595 OFFCURVE",
"270 575 OFFCURVE",
"234 540 CURVE",
"161 627 LINE",
"212 679 OFFCURVE",
"295 710 OFFCURVE",
"375 710 CURVE SMOOTH",
"440 710 OFFCURVE",
"489 693 OFFCURVE",
"522 666 CURVE SMOOTH",
"554 639 OFFCURVE",
"570 602 OFFCURVE",
"570 561 CURVE SMOOTH",
"570 534 OFFCURVE",
"562 503 OFFCURVE",
"550 476 CURVE",
"622 476 LINE",
"604 388 LINE",
"478 388 LINE",
"356 317 LINE",
"589 317 LINE",
"572 229 LINE",
"220 229 LINE",
"211 212 OFFCURVE",
"209 194 OFFCURVE",
"209 179 CURVE SMOOTH",
"209 127 OFFCURVE",
"243 100 OFFCURVE",
"300 100 CURVE SMOOTH",
"341 100 OFFCURVE",
"381 116 OFFCURVE",
"437 171 CURVE",
"509 84 LINE",
"452 21 OFFCURVE",
"368 -12 OFFCURVE",
"272 -12 CURVE SMOOTH"
);
}
);
width = 607;
}
);
unicode = 20B4;
},
{
glyphname = uni20B5;
layers = (
{
layerId = "05A52B16-A306-40FB-AA4D-96EE9622F9E6";
name = "Bold Italic";
paths = (
{
closed = 1;
nodes = (
"167 40 LINE",
"99 83 OFFCURVE",
"56 165 OFFCURVE",
"56 290 CURVE SMOOTH",
"56 397 OFFCURVE",
"89 498 OFFCURVE",
"149 571 CURVE SMOOTH",
"209 644 OFFCURVE",
"296 691 OFFCURVE",
"403 691 CURVE SMOOTH",
"406 691 LINE",
"440 780 LINE",
"550 780 LINE",
"510 673 LINE",
"566 653 OFFCURVE",
"606 617 OFFCURVE",
"629 574 CURVE",
"522 508 LINE",
"506 537 OFFCURVE",
"485 555 OFFCURVE",
"460 566 CURVE",
"297 120 LINE",
"301 120 LINE SMOOTH",
"356 120 OFFCURVE",
"417 146 OFFCURVE",
"454 202 CURVE",
"539 129 LINE",
"479 50 OFFCURVE",
"406 7 OFFCURVE",
"287 7 CURVE SMOOTH",
"284 7 OFFCURVE",
"280 7 OFFCURVE",
"277 7 CURVE SMOOTH",
"273 7 OFFCURVE",
"269 7 OFFCURVE",
"265 8 CURVE",
"233 -82 LINE",
"123 -82 LINE"
);
},
{
closed = 1;
nodes = (
"193 209 OFFCURVE",
"203 180 OFFCURVE",
"219 159 CURVE",
"373 577 LINE",
"372 577 LINE",
"296 569 OFFCURVE",
"243 514 OFFCURVE",
"222 409 CURVE SMOOTH",
"199 294 LINE SMOOTH",
"196 279 OFFCURVE",
"193 263 OFFCURVE",
"193 244 CURVE SMOOTH"
);
}
);
width = 613;
}
);
unicode = 20B5;
},
{
glyphname = uni20B8;
layers = (
{
layerId = "05A52B16-A306-40FB-AA4D-96EE9622F9E6";
name = "Bold Italic";
paths = (
{
closed = 1;
nodes = (
"104 595 LINE",
"124 698 LINE",
"638 698 LINE",
"617 595 LINE"
);
},
{
closed = 1;
nodes = (
"398 409 LINE",
"316 0 LINE",
"170 0 LINE",
"252 409 LINE",
"66 409 LINE",
"87 512 LINE",
"601 512 LINE",
"580 409 LINE"
);
}
);
width = 590;
}
);
unicode = 20B8;
},
{
glyphname = uni20B9;
layers = (
{
layerId = "05A52B16-A306-40FB-AA4D-96EE9622F9E6";
name = "Bold Italic";
paths = (
{
closed = 1;
nodes = (
"328 0 LINE",
"187 223 LINE",
"52 223 LINE",
"73 326 LINE",
"230 326 LINE SMOOTH",
"295 326 OFFCURVE",
"330 361 OFFCURVE",
"349 409 CURVE",
"90 409 LINE",
"110 512 LINE",
"365 512 LINE",
"364 576 OFFCURVE",
"338 595 OFFCURVE",
"275 595 CURVE SMOOTH",
"127 595 LINE",
"148 698 LINE",
"662 698 LINE",
"641 595 LINE",
"444 595 LINE",
"443 589 LINE",
"468 581 OFFCURVE",
"489 555 OFFCURVE",
"497 512 CURVE",
"624 512 LINE",
"603 409 LINE",
"496 409 LINE",
"479 330 OFFCURVE",
"423 262 OFFCURVE",
"326 235 CURVE",
"478 0 LINE"
);
}
);
width = 606;
}
);
unicode = 20B9;
},
{
glyphname = uni20BA;
layers = (
{
layerId = "05A52B16-A306-40FB-AA4D-96EE9622F9E6";
name = "Bold Italic";
paths = (
{
closed = 1;
nodes = (
"102 214 LINE",
"9 172 LINE",
"27 261 LINE",
"120 304 LINE",
"134 373 LINE",
"40 331 LINE",
"58 419 LINE",
"151 461 LINE",
"199 698 LINE",
"345 698 LINE",
"312 532 LINE",
"474 605 LINE",
"456 516 LINE",
"294 443 LINE",
"280 375 LINE",
"443 449 LINE",
"425 360 LINE",
"262 286 LINE",
"229 120 LINE",
"270 120 LINE SMOOTH",
"317 120 OFFCURVE",
"353 131 OFFCURVE",
"382 160 CURVE SMOOTH",
"410 188 OFFCURVE",
"431 234 OFFCURVE",
"446 305 CURVE",
"585 305 LINE",
"550 106 OFFCURVE",
"446 0 OFFCURVE",
"263 0 CURVE SMOOTH",
"59 0 LINE"
);
}
);
width = 605;
}
);
unicode = 20BA;
},
{
glyphname = uni20BD;
layers = (
{
layerId = "05A52B16-A306-40FB-AA4D-96EE9622F9E6";
name = "Bold Italic";
paths = (
{
closed = 1;
nodes = (
"228 105 LINE",
"207 0 LINE",
"62 0 LINE",
"83 105 LINE",
"-5 105 LINE",
"16 208 LINE",
"103 208 LINE",
"120 292 LINE",
"32 292 LINE",
"53 395 LINE",
"141 395 LINE",
"202 698 LINE",
"464 698 LINE SMOOTH",
"596 698 OFFCURVE",
"667 636 OFFCURVE",
"667 528 CURVE SMOOTH",
"667 469 OFFCURVE",
"644 410 OFFCURVE",
"601 366 CURVE SMOOTH",
"558 322 OFFCURVE",
"495 292 OFFCURVE",
"418 292 CURVE SMOOTH",
"265 292 LINE",
"248 208 LINE",
"456 208 LINE",
"435 105 LINE"
);
},
{
closed = 1;
nodes = (
"286 395 LINE",
"423 395 LINE SMOOTH",
"468 395 OFFCURVE",
"498 423 OFFCURVE",
"507 468 CURVE SMOOTH",
"510 485 OFFCURVE",
"513 497 OFFCURVE",
"515 504 CURVE",
"516 511 OFFCURVE",
"517 517 OFFCURVE",
"517 522 CURVE SMOOTH",
"517 561 OFFCURVE",
"491 578 OFFCURVE",
"448 578 CURVE SMOOTH",
"322 578 LINE"
);
}
);
width = 664;
}
);
unicode = 20BD;
},
{
glyphname = uni20BF;
layers = (
{
layerId = "05A52B16-A306-40FB-AA4D-96EE9622F9E6";
name = "Bold Italic";
paths = (
{
closed = 1;
nodes = (
"296 20 LINE",
"230 20 LINE",
"210 -82 LINE",
"105 -82 LINE",
"125 20 LINE",
"26 20 LINE",
"158 678 LINE",
"257 678 LINE",
"278 780 LINE",
"383 780 LINE",
"362 678 LINE",
"427 678 LINE",
"448 780 LINE",
"553 780 LINE",
"530 666 LINE",
"598 645 OFFCURVE",
"633 597 OFFCURVE",
"633 536 CURVE SMOOTH",
"633 455 OFFCURVE",
"581 388 OFFCURVE",
"496 367 CURVE",
"496 362 LINE",
"560 346 OFFCURVE",
"597 301 OFFCURVE",
"597 233 CURVE SMOOTH",
"597 113 OFFCURVE",
"520 43 OFFCURVE",
"401 24 CURVE",
"381 -82 LINE",
"275 -82 LINE"
);
},
{
closed = 1;
nodes = (
"242 407 LINE",
"406 407 LINE SMOOTH",
"443 407 OFFCURVE",
"472 426 OFFCURVE",
"480 466 CURVE SMOOTH",
"483 481 OFFCURVE",
"486 492 OFFCURVE",
"487 499 CURVE SMOOTH",
"488 505 OFFCURVE",
"488 510 OFFCURVE",
"488 513 CURVE SMOOTH",
"488 545 OFFCURVE",
"467 560 OFFCURVE",
"434 560 CURVE SMOOTH",
"273 560 LINE"
);
},
{
closed = 1;
nodes = (
"188 138 LINE",
"376 138 LINE SMOOTH",
"415 138 OFFCURVE",
"442 157 OFFCURVE",
"451 202 CURVE SMOOTH",
"454 219 OFFCURVE",
"456 231 OFFCURVE",
"457 236 CURVE",
"457 241 OFFCURVE",
"457 244 OFFCURVE",
"457 247 CURVE SMOOTH",
"457 278 OFFCURVE",
"439 294 OFFCURVE",
"404 294 CURVE SMOOTH",
"220 294 LINE"
);
}
);
width = 660;
}
);
unicode = 20BF;
},
{
glyphname = fi;
layers = (
{
layerId = "05A52B16-A306-40FB-AA4D-96EE9622F9E6";
name = "Bold Italic";
paths = (
{
closed = 1;
nodes = (
"86 525 LINE",
"155 525 LINE",
"168 590 LINE SMOOTH",
"189 689 OFFCURVE",
"245 740 OFFCURVE",
"344 740 CURVE SMOOTH",
"428 740 LINE",
"404 628 LINE",
"315 628 LINE",
"295 525 LINE",
"610 525 LINE",
"529 112 LINE",
"588 112 LINE",
"566 0 LINE",
"469 0 LINE SMOOTH",
"418 0 OFFCURVE",
"383 31 OFFCURVE",
"383 78 CURVE SMOOTH",
"383 89 OFFCURVE",
"385 100 OFFCURVE",
"386 105 CURVE SMOOTH",
"448 413 LINE",
"273 413 LINE",
"181 -50 LINE SMOOTH",
"161 -151 OFFCURVE",
"94 -200 OFFCURVE",
"-3 -200 CURVE SMOOTH",
"-87 -200 LINE",
"-63 -88 LINE",
"34 -88 LINE",
"133 413 LINE",
"64 413 LINE"
);
},
{
closed = 1;
nodes = (
"504 584 OFFCURVE",
"483 607 OFFCURVE",
"483 639 CURVE SMOOTH",
"483 642 OFFCURVE",
"483 646 OFFCURVE",
"484 651 CURVE SMOOTH",
"485 656 OFFCURVE",
"486 664 OFFCURVE",
"489 677 CURVE SMOOTH",
"497 718 OFFCURVE",
"526 749 OFFCURVE",
"583 749 CURVE SMOOTH",
"632 749 OFFCURVE",
"653 726 OFFCURVE",
"653 694 CURVE SMOOTH",
"653 691 OFFCURVE",
"653 687 OFFCURVE",
"652 682 CURVE SMOOTH",
"651 677 OFFCURVE",
"650 668 OFFCURVE",
"647 656 CURVE SMOOTH",
"636 615 OFFCURVE",
"610 584 OFFCURVE",
"553 584 CURVE SMOOTH"
);
}
);
width = 633;
}
);
leftKerningGroup = f;
rightKerningGroup = i;
unicode = FB01;
},
{
glyphname = fl;
layers = (
{
layerId = "05A52B16-A306-40FB-AA4D-96EE9622F9E6";
name = "Bold Italic";
paths = (
{
closed = 1;
nodes = (
"86 525 LINE",
"155 525 LINE",
"168 590 LINE SMOOTH",
"188 690 OFFCURVE",
"252 740 OFFCURVE",
"360 740 CURVE SMOOTH",
"436 740 LINE",
"412 628 LINE",
"316 628 LINE",
"296 525 LINE",
"398 525 LINE",
"376 413 LINE",
"273 413 LINE",
"181 -50 LINE SMOOTH",
"161 -150 OFFCURVE",
"108 -200 OFFCURVE",
"-1 -200 CURVE SMOOTH",
"-87 -200 LINE",
"-63 -88 LINE",
"33 -88 LINE",
"133 413 LINE",
"64 413 LINE"
);
},
{
closed = 1;
nodes = (
"474 0 LINE SMOOTH",
"419 0 OFFCURVE",
"384 32 OFFCURVE",
"384 80 CURVE SMOOTH",
"384 87 OFFCURVE",
"385 95 OFFCURVE",
"387 105 CURVE SMOOTH",
"514 740 LINE",
"654 740 LINE",
"528 112 LINE",
"590 112 LINE",
"568 0 LINE"
);
}
);
width = 633;
}
);
leftKerningGroup = f;
rightKerningGroup = d;
unicode = FB02;
},
{
glyphname = aacute;
layers = (
{
layerId = "05A52B16-A306-40FB-AA4D-96EE9622F9E6";
name = "Bold Italic";
paths = (
{
closed = 1;
nodes = (
"430 0 LINE SMOOTH",
"379 0 OFFCURVE",
"342 28 OFFCURVE",
"342 77 CURVE SMOOTH",
"342 88 OFFCURVE",
"344 102 OFFCURVE",
"345 107 CURVE SMOOTH",
"348 122 LINE",
"342 122 LINE",
"301 37 OFFCURVE",
"254 -12 OFFCURVE",
"171 -12 CURVE SMOOTH",
"122 -12 OFFCURVE",
"87 7 OFFCURVE",
"64 40 CURVE SMOOTH",
"41 72 OFFCURVE",
"31 118 OFFCURVE",
"31 170 CURVE SMOOTH",
"31 282 OFFCURVE",
"59 373 OFFCURVE",
"103 437 CURVE SMOOTH",
"147 501 OFFCURVE",
"208 537 OFFCURVE",
"275 537 CURVE SMOOTH",
"348 537 OFFCURVE",
"399 491 OFFCURVE",
"406 434 CURVE",
"411 434 LINE",
"429 525 LINE",
"569 525 LINE",
"486 112 LINE",
"545 112 LINE",
"523 0 LINE"
);
},
{
closed = 1;
nodes = (
"276 103 OFFCURVE",
"306 124 OFFCURVE",
"327 151 CURVE",
"350 178 OFFCURVE",
"367 216 OFFCURVE",
"375 255 CURVE SMOOTH",
"391 335 LINE SMOOTH",
"402 384 OFFCURVE",
"368 422 OFFCURVE",
"309 422 CURVE SMOOTH",
"248 422 OFFCURVE",
"210 383 OFFCURVE",
"194 305 CURVE SMOOTH",
"180 235 LINE SMOOTH",
"177 220 OFFCURVE",
"174 194 OFFCURVE",
"174 178 CURVE SMOOTH",
"174 131 OFFCURVE",
"199 103 OFFCURVE",
"240 103 CURVE SMOOTH"
);
},
{
closed = 1;
nodes = (
"361 579 LINE",
"277 625 LINE",
"396 815 LINE",
"508 755 LINE"
);
}
);
width = 591;
}
);
leftKerningGroup = a;
rightKerningGroup = a;
unicode = 00E1;
},
{
glyphname = abreve;
layers = (
{
layerId = "05A52B16-A306-40FB-AA4D-96EE9622F9E6";
name = "Bold Italic";
paths = (
{
closed = 1;
nodes = (
"430 0 LINE SMOOTH",
"379 0 OFFCURVE",
"342 28 OFFCURVE",
"342 77 CURVE SMOOTH",
"342 88 OFFCURVE",
"344 102 OFFCURVE",
"345 107 CURVE SMOOTH",
"348 122 LINE",
"342 122 LINE",
"301 37 OFFCURVE",
"254 -12 OFFCURVE",
"171 -12 CURVE SMOOTH",
"122 -12 OFFCURVE",
"87 7 OFFCURVE",
"64 40 CURVE SMOOTH",
"41 72 OFFCURVE",
"31 118 OFFCURVE",
"31 170 CURVE SMOOTH",
"31 282 OFFCURVE",
"59 373 OFFCURVE",
"103 437 CURVE SMOOTH",
"147 501 OFFCURVE",
"208 537 OFFCURVE",
"275 537 CURVE SMOOTH",
"348 537 OFFCURVE",
"399 491 OFFCURVE",
"406 434 CURVE",
"411 434 LINE",
"429 525 LINE",
"569 525 LINE",
"486 112 LINE",
"545 112 LINE",
"523 0 LINE"
);
},
{
closed = 1;
nodes = (
"276 103 OFFCURVE",
"306 124 OFFCURVE",
"327 151 CURVE",
"350 178 OFFCURVE",
"367 216 OFFCURVE",
"375 255 CURVE SMOOTH",
"391 335 LINE SMOOTH",
"402 384 OFFCURVE",
"368 422 OFFCURVE",
"309 422 CURVE SMOOTH",
"248 422 OFFCURVE",
"210 383 OFFCURVE",
"194 305 CURVE SMOOTH",
"180 235 LINE SMOOTH",
"177 220 OFFCURVE",
"174 194 OFFCURVE",
"174 178 CURVE SMOOTH",
"174 131 OFFCURVE",
"199 103 OFFCURVE",
"240 103 CURVE SMOOTH"
);
},
{
closed = 1;
nodes = (
"289 579 OFFCURVE",
"251 601 OFFCURVE",
"224 633 CURVE SMOOTH",
"197 665 OFFCURVE",
"183 708 OFFCURVE",
"175 749 CURVE",
"255 791 LINE",
"273 752 LINE SMOOTH",
"294 707 OFFCURVE",
"310 680 OFFCURVE",
"353 680 CURVE SMOOTH",
"389 680 OFFCURVE",
"414 705 OFFCURVE",
"451 754 CURVE SMOOTH",
"479 791 LINE",
"562 745 LINE",
"538 702 OFFCURVE",
"511 661 OFFCURVE",
"476 630 CURVE SMOOTH",
"441 599 OFFCURVE",
"400 579 OFFCURVE",
"345 579 CURVE SMOOTH"
);
}
);
width = 591;
}
);
leftKerningGroup = a;
rightKerningGroup = a;
unicode = 0103;
},
{
glyphname = acircumflex;
layers = (
{
layerId = "05A52B16-A306-40FB-AA4D-96EE9622F9E6";
name = "Bold Italic";
paths = (
{
closed = 1;
nodes = (
"430 0 LINE SMOOTH",
"379 0 OFFCURVE",
"342 28 OFFCURVE",
"342 77 CURVE SMOOTH",
"342 88 OFFCURVE",
"344 102 OFFCURVE",
"345 107 CURVE SMOOTH",
"348 122 LINE",
"342 122 LINE",
"301 37 OFFCURVE",
"254 -12 OFFCURVE",
"171 -12 CURVE SMOOTH",
"122 -12 OFFCURVE",
"87 7 OFFCURVE",
"64 40 CURVE SMOOTH",
"41 72 OFFCURVE",
"31 118 OFFCURVE",
"31 170 CURVE SMOOTH",
"31 282 OFFCURVE",
"59 373 OFFCURVE",
"103 437 CURVE SMOOTH",
"147 501 OFFCURVE",
"208 537 OFFCURVE",
"275 537 CURVE SMOOTH",
"348 537 OFFCURVE",
"399 491 OFFCURVE",
"406 434 CURVE",
"411 434 LINE",
"429 525 LINE",
"569 525 LINE",
"486 112 LINE",
"545 112 LINE",
"523 0 LINE"
);
},
{
closed = 1;
nodes = (
"276 103 OFFCURVE",
"306 124 OFFCURVE",
"327 151 CURVE",
"350 178 OFFCURVE",
"367 216 OFFCURVE",
"375 255 CURVE SMOOTH",
"391 335 LINE SMOOTH",
"402 384 OFFCURVE",
"368 422 OFFCURVE",
"309 422 CURVE SMOOTH",
"248 422 OFFCURVE",
"210 383 OFFCURVE",
"194 305 CURVE SMOOTH",
"180 235 LINE SMOOTH",
"177 220 OFFCURVE",
"174 194 OFFCURVE",
"174 178 CURVE SMOOTH",
"174 131 OFFCURVE",
"199 103 OFFCURVE",
"240 103 CURVE SMOOTH"
);
},
{
closed = 1;
nodes = (
"436 794 LINE",
"536 636 LINE",
"461 579 LINE",
"362 694 LINE",
"228 579 LINE",
"158 636 LINE",
"314 794 LINE"
);
}
);
width = 591;
}
);
leftKerningGroup = a;
rightKerningGroup = a;
unicode = 00E2;
},
{
glyphname = adieresis;
layers = (
{
layerId = "05A52B16-A306-40FB-AA4D-96EE9622F9E6";
name = "Bold Italic";
paths = (
{
closed = 1;
nodes = (
"430 0 LINE SMOOTH",
"379 0 OFFCURVE",
"342 28 OFFCURVE",
"342 77 CURVE SMOOTH",
"342 88 OFFCURVE",
"344 102 OFFCURVE",
"345 107 CURVE SMOOTH",
"348 122 LINE",
"342 122 LINE",
"301 37 OFFCURVE",
"254 -12 OFFCURVE",
"171 -12 CURVE SMOOTH",
"122 -12 OFFCURVE",
"87 7 OFFCURVE",
"64 40 CURVE SMOOTH",
"41 72 OFFCURVE",
"31 118 OFFCURVE",
"31 170 CURVE SMOOTH",
"31 282 OFFCURVE",
"59 373 OFFCURVE",
"103 437 CURVE SMOOTH",
"147 501 OFFCURVE",
"208 537 OFFCURVE",
"275 537 CURVE SMOOTH",
"348 537 OFFCURVE",
"399 491 OFFCURVE",
"406 434 CURVE",
"411 434 LINE",
"429 525 LINE",
"569 525 LINE",
"486 112 LINE",
"545 112 LINE",
"523 0 LINE"
);
},
{
closed = 1;
nodes = (
"276 103 OFFCURVE",
"306 124 OFFCURVE",
"327 151 CURVE",
"350 178 OFFCURVE",
"367 216 OFFCURVE",
"375 255 CURVE SMOOTH",
"391 335 LINE SMOOTH",
"402 384 OFFCURVE",
"368 422 OFFCURVE",
"309 422 CURVE SMOOTH",
"248 422 OFFCURVE",
"210 383 OFFCURVE",
"194 305 CURVE SMOOTH",
"180 235 LINE SMOOTH",
"177 220 OFFCURVE",
"174 194 OFFCURVE",
"174 178 CURVE SMOOTH",
"174 131 OFFCURVE",
"199 103 OFFCURVE",
"240 103 CURVE SMOOTH"
);
},
{
closed = 1;
nodes = (
"200 600 OFFCURVE",
"182 621 OFFCURVE",
"182 648 CURVE SMOOTH",
"182 651 OFFCURVE",
"183 656 OFFCURVE",
"184 662 CURVE SMOOTH",
"185 668 OFFCURVE",
"186 677 OFFCURVE",
"188 688 CURVE SMOOTH",
"195 723 OFFCURVE",
"217 751 OFFCURVE",
"273 751 CURVE SMOOTH",
"320 751 OFFCURVE",
"338 730 OFFCURVE",
"338 703 CURVE SMOOTH",
"338 700 OFFCURVE",
"338 695 OFFCURVE",
"337 689 CURVE SMOOTH",
"336 683 OFFCURVE",
"334 674 OFFCURVE",
"332 663 CURVE SMOOTH",
"325 628 OFFCURVE",
"303 600 OFFCURVE",
"247 600 CURVE SMOOTH"
);
},
{
closed = 1;
nodes = (
"400 600 OFFCURVE",
"382 621 OFFCURVE",
"382 648 CURVE SMOOTH",
"382 651 OFFCURVE",
"383 656 OFFCURVE",
"384 662 CURVE SMOOTH",
"385 668 OFFCURVE",
"386 677 OFFCURVE",
"388 688 CURVE SMOOTH",
"395 723 OFFCURVE",
"417 751 OFFCURVE",
"473 751 CURVE SMOOTH",
"520 751 OFFCURVE",
"538 730 OFFCURVE",
"538 703 CURVE SMOOTH",
"538 700 OFFCURVE",
"538 695 OFFCURVE",
"537 689 CURVE SMOOTH",
"536 683 OFFCURVE",
"534 674 OFFCURVE",
"532 663 CURVE SMOOTH",
"525 628 OFFCURVE",
"503 600 OFFCURVE",
"447 600 CURVE SMOOTH"
);
}
);
width = 591;
}
);
leftKerningGroup = a;
rightKerningGroup = a;
unicode = 00E4;
},
{
glyphname = uni1EA1;
layers = (
{
layerId = "05A52B16-A306-40FB-AA4D-96EE9622F9E6";
name = "Bold Italic";
paths = (
{
closed = 1;
nodes = (
"430 0 LINE SMOOTH",
"379 0 OFFCURVE",
"342 28 OFFCURVE",
"342 77 CURVE SMOOTH",
"342 88 OFFCURVE",
"344 102 OFFCURVE",
"345 107 CURVE SMOOTH",
"348 122 LINE",
"342 122 LINE",
"301 37 OFFCURVE",
"254 -12 OFFCURVE",
"171 -12 CURVE SMOOTH",
"122 -12 OFFCURVE",
"87 7 OFFCURVE",
"64 40 CURVE SMOOTH",
"41 72 OFFCURVE",
"31 118 OFFCURVE",
"31 170 CURVE SMOOTH",
"31 282 OFFCURVE",
"59 373 OFFCURVE",
"103 437 CURVE SMOOTH",
"147 501 OFFCURVE",
"208 537 OFFCURVE",
"275 537 CURVE SMOOTH",
"348 537 OFFCURVE",
"399 491 OFFCURVE",
"406 434 CURVE",
"411 434 LINE",
"429 525 LINE",
"569 525 LINE",
"486 112 LINE",
"545 112 LINE",
"523 0 LINE"
);
},
{
closed = 1;
nodes = (
"276 103 OFFCURVE",
"306 124 OFFCURVE",
"327 151 CURVE",
"350 178 OFFCURVE",
"367 216 OFFCURVE",
"375 255 CURVE SMOOTH",
"391 335 LINE SMOOTH",
"402 384 OFFCURVE",
"368 422 OFFCURVE",
"309 422 CURVE SMOOTH",
"248 422 OFFCURVE",
"210 383 OFFCURVE",
"194 305 CURVE SMOOTH",
"180 235 LINE SMOOTH",
"177 220 OFFCURVE",
"174 194 OFFCURVE",
"174 178 CURVE SMOOTH",
"174 131 OFFCURVE",
"199 103 OFFCURVE",
"240 103 CURVE SMOOTH"
);
},
{
closed = 1;
nodes = (
"168 -202 OFFCURVE",
"149 -181 OFFCURVE",
"149 -150 CURVE SMOOTH",
"149 -147 OFFCURVE",
"150 -142 OFFCURVE",
"151 -137 CURVE SMOOTH",
"152 -132 OFFCURVE",
"153 -124 OFFCURVE",
"155 -112 CURVE SMOOTH",
"162 -77 OFFCURVE",
"183 -54 OFFCURVE",
"239 -54 CURVE SMOOTH",
"288 -54 OFFCURVE",
"308 -75 OFFCURVE",
"308 -106 CURVE SMOOTH",
"308 -109 OFFCURVE",
"308 -113 OFFCURVE",
"307 -118 CURVE SMOOTH",
"306 -123 OFFCURVE",
"304 -132 OFFCURVE",
"302 -144 CURVE SMOOTH",
"295 -179 OFFCURVE",
"274 -202 OFFCURVE",
"219 -202 CURVE SMOOTH"
);
}
);
width = 591;
}
);
leftKerningGroup = a;
rightKerningGroup = a;
unicode = 1EA1;
},
{
glyphname = agrave;
layers = (
{
layerId = "05A52B16-A306-40FB-AA4D-96EE9622F9E6";
name = "Bold Italic";
paths = (
{
closed = 1;
nodes = (
"430 0 LINE SMOOTH",
"379 0 OFFCURVE",
"342 28 OFFCURVE",
"342 77 CURVE SMOOTH",
"342 88 OFFCURVE",
"344 102 OFFCURVE",
"345 107 CURVE SMOOTH",
"348 122 LINE",
"342 122 LINE",
"301 37 OFFCURVE",
"254 -12 OFFCURVE",
"171 -12 CURVE SMOOTH",
"122 -12 OFFCURVE",
"87 7 OFFCURVE",
"64 40 CURVE SMOOTH",
"41 72 OFFCURVE",
"31 118 OFFCURVE",
"31 170 CURVE SMOOTH",
"31 282 OFFCURVE",
"59 373 OFFCURVE",
"103 437 CURVE SMOOTH",
"147 501 OFFCURVE",
"208 537 OFFCURVE",
"275 537 CURVE SMOOTH",
"348 537 OFFCURVE",
"399 491 OFFCURVE",
"406 434 CURVE",
"411 434 LINE",
"429 525 LINE",
"569 525 LINE",
"486 112 LINE",
"545 112 LINE",
"523 0 LINE"
);
},
{
closed = 1;
nodes = (
"276 103 OFFCURVE",
"306 124 OFFCURVE",
"327 151 CURVE",
"350 178 OFFCURVE",
"367 216 OFFCURVE",
"375 255 CURVE SMOOTH",
"391 335 LINE SMOOTH",
"402 384 OFFCURVE",
"368 422 OFFCURVE",
"309 422 CURVE SMOOTH",
"248 422 OFFCURVE",
"210 383 OFFCURVE",
"194 305 CURVE SMOOTH",
"180 235 LINE SMOOTH",
"177 220 OFFCURVE",
"174 194 OFFCURVE",
"174 178 CURVE SMOOTH",
"174 131 OFFCURVE",
"199 103 OFFCURVE",
"240 103 CURVE SMOOTH"
);
},
{
closed = 1;
nodes = (
"214 756 LINE",
"340 815 LINE",
"408 619 LINE",
"319 580 LINE"
);
}
);
width = 591;
}
);
leftKerningGroup = a;
rightKerningGroup = a;
unicode = 00E0;
},
{
glyphname = uni1EA3;
layers = (
{
layerId = "05A52B16-A306-40FB-AA4D-96EE9622F9E6";
name = "Bold Italic";
paths = (
{
closed = 1;
nodes = (
"430 0 LINE SMOOTH",
"379 0 OFFCURVE",
"342 28 OFFCURVE",
"342 77 CURVE SMOOTH",
"342 88 OFFCURVE",
"344 102 OFFCURVE",
"345 107 CURVE SMOOTH",
"348 122 LINE",
"342 122 LINE",
"301 37 OFFCURVE",
"254 -12 OFFCURVE",
"171 -12 CURVE SMOOTH",
"122 -12 OFFCURVE",
"87 7 OFFCURVE",
"64 40 CURVE SMOOTH",
"41 72 OFFCURVE",
"31 118 OFFCURVE",
"31 170 CURVE SMOOTH",
"31 282 OFFCURVE",
"59 373 OFFCURVE",
"103 437 CURVE SMOOTH",
"147 501 OFFCURVE",
"208 537 OFFCURVE",
"275 537 CURVE SMOOTH",
"348 537 OFFCURVE",
"399 491 OFFCURVE",
"406 434 CURVE",
"411 434 LINE",
"429 525 LINE",
"569 525 LINE",
"486 112 LINE",
"545 112 LINE",
"523 0 LINE"
);
},
{
closed = 1;
nodes = (
"276 103 OFFCURVE",
"306 124 OFFCURVE",
"327 151 CURVE",
"350 178 OFFCURVE",
"367 216 OFFCURVE",
"375 255 CURVE SMOOTH",
"391 335 LINE SMOOTH",
"402 384 OFFCURVE",
"368 422 OFFCURVE",
"309 422 CURVE SMOOTH",
"248 422 OFFCURVE",
"210 383 OFFCURVE",
"194 305 CURVE SMOOTH",
"180 235 LINE SMOOTH",
"177 220 OFFCURVE",
"174 194 OFFCURVE",
"174 178 CURVE SMOOTH",
"174 131 OFFCURVE",
"199 103 OFFCURVE",
"240 103 CURVE SMOOTH"
);
},
{
closed = 1;
nodes = (
"269 802 LINE",
"415 802 LINE SMOOTH",
"467 802 OFFCURVE",
"493 777 OFFCURVE",
"493 745 CURVE SMOOTH",
"493 702 OFFCURVE",
"470 673 OFFCURVE",
"442 637 CURVE",
"386 571 LINE",
"317 605 LINE",
"366 698 LINE",
"249 698 LINE"
);
}
);
width = 591;
}
);
leftKerningGroup = a;
rightKerningGroup = a;
unicode = 1EA3;
},
{
glyphname = amacron;
layers = (
{
layerId = "05A52B16-A306-40FB-AA4D-96EE9622F9E6";
name = "Bold Italic";
paths = (
{
closed = 1;
nodes = (
"430 0 LINE SMOOTH",
"379 0 OFFCURVE",
"342 28 OFFCURVE",
"342 77 CURVE SMOOTH",
"342 88 OFFCURVE",
"344 102 OFFCURVE",
"345 107 CURVE SMOOTH",
"348 122 LINE",
"342 122 LINE",
"301 37 OFFCURVE",
"254 -12 OFFCURVE",
"171 -12 CURVE SMOOTH",
"122 -12 OFFCURVE",
"87 7 OFFCURVE",
"64 40 CURVE SMOOTH",
"41 72 OFFCURVE",
"31 118 OFFCURVE",
"31 170 CURVE SMOOTH",
"31 282 OFFCURVE",
"59 373 OFFCURVE",
"103 437 CURVE SMOOTH",
"147 501 OFFCURVE",
"208 537 OFFCURVE",
"275 537 CURVE SMOOTH",
"348 537 OFFCURVE",
"399 491 OFFCURVE",
"406 434 CURVE",
"411 434 LINE",
"429 525 LINE",
"569 525 LINE",
"486 112 LINE",
"545 112 LINE",
"523 0 LINE"
);
},
{
closed = 1;
nodes = (
"276 103 OFFCURVE",
"306 124 OFFCURVE",
"327 151 CURVE",
"350 178 OFFCURVE",
"367 216 OFFCURVE",
"375 255 CURVE SMOOTH",
"391 335 LINE SMOOTH",
"402 384 OFFCURVE",
"368 422 OFFCURVE",
"309 422 CURVE SMOOTH",
"248 422 OFFCURVE",
"210 383 OFFCURVE",
"194 305 CURVE SMOOTH",
"180 235 LINE SMOOTH",
"177 220 OFFCURVE",
"174 194 OFFCURVE",
"174 178 CURVE SMOOTH",
"174 131 OFFCURVE",
"199 103 OFFCURVE",
"240 103 CURVE SMOOTH"
);
},
{
closed = 1;
nodes = (
"231 727 LINE",
"509 727 LINE",
"489 625 LINE",
"211 625 LINE"
);
}
);
width = 591;
}
);
leftKerningGroup = a;
rightKerningGroup = a;
unicode = 0101;
},
{
glyphname = aogonek;
layers = (
{
layerId = "05A52B16-A306-40FB-AA4D-96EE9622F9E6";
name = "Bold Italic";
paths = (
{
closed = 1;
nodes = (
"523 0 LINE",
"468 -33 OFFCURVE",
"438 -56 OFFCURVE",
"422 -73 CURVE SMOOTH",
"406 -90 OFFCURVE",
"404 -102 OFFCURVE",
"404 -111 CURVE SMOOTH",
"404 -127 OFFCURVE",
"412 -140 OFFCURVE",
"439 -140 CURVE SMOOTH",
"460 -140 OFFCURVE",
"480 -134 OFFCURVE",
"493 -113 CURVE",
"545 -162 LINE",
"520 -193 OFFCURVE",
"484 -212 OFFCURVE",
"420 -212 CURVE SMOOTH",
"353 -212 OFFCURVE",
"301 -184 OFFCURVE",
"301 -129 CURVE SMOOTH",
"301 -78 OFFCURVE",
"342 -31 OFFCURVE",
"439 -4 CURVE",
"438 0 LINE",
"430 0 LINE SMOOTH",
"379 0 OFFCURVE",
"342 28 OFFCURVE",
"342 77 CURVE SMOOTH",
"342 88 OFFCURVE",
"344 102 OFFCURVE",
"345 107 CURVE SMOOTH",
"348 122 LINE",
"342 122 LINE",
"301 37 OFFCURVE",
"254 -12 OFFCURVE",
"171 -12 CURVE SMOOTH",
"122 -12 OFFCURVE",
"87 7 OFFCURVE",
"64 40 CURVE SMOOTH",
"41 72 OFFCURVE",
"31 118 OFFCURVE",
"31 170 CURVE SMOOTH",
"31 282 OFFCURVE",
"59 373 OFFCURVE",
"103 437 CURVE SMOOTH",
"147 501 OFFCURVE",
"208 537 OFFCURVE",
"275 537 CURVE SMOOTH",
"348 537 OFFCURVE",
"399 491 OFFCURVE",
"406 434 CURVE",
"411 434 LINE",
"429 525 LINE",
"569 525 LINE",
"486 112 LINE",
"545 112 LINE"
);
},
{
closed = 1;
nodes = (
"276 103 OFFCURVE",
"306 124 OFFCURVE",
"327 151 CURVE",
"350 178 OFFCURVE",
"367 216 OFFCURVE",
"375 255 CURVE SMOOTH",
"391 335 LINE SMOOTH",
"402 384 OFFCURVE",
"368 422 OFFCURVE",
"309 422 CURVE SMOOTH",
"248 422 OFFCURVE",
"210 383 OFFCURVE",
"194 305 CURVE SMOOTH",
"180 235 LINE SMOOTH",
"177 220 OFFCURVE",
"174 194 OFFCURVE",
"174 178 CURVE SMOOTH",
"174 131 OFFCURVE",
"199 103 OFFCURVE",
"240 103 CURVE SMOOTH"
);
}
);
width = 591;
}
);
leftKerningGroup = a;
rightKerningGroup = a;
unicode = 0105;
},
{
glyphname = aring;
layers = (
{
layerId = "05A52B16-A306-40FB-AA4D-96EE9622F9E6";
name = "Bold Italic";
paths = (
{
closed = 1;
nodes = (
"430 0 LINE SMOOTH",
"379 0 OFFCURVE",
"342 28 OFFCURVE",
"342 77 CURVE SMOOTH",
"342 88 OFFCURVE",
"344 102 OFFCURVE",
"345 107 CURVE SMOOTH",
"348 122 LINE",
"342 122 LINE",
"301 37 OFFCURVE",
"254 -12 OFFCURVE",
"171 -12 CURVE SMOOTH",
"122 -12 OFFCURVE",
"87 7 OFFCURVE",
"64 40 CURVE SMOOTH",
"41 72 OFFCURVE",
"31 118 OFFCURVE",
"31 170 CURVE SMOOTH",
"31 282 OFFCURVE",
"59 373 OFFCURVE",
"103 437 CURVE SMOOTH",
"147 501 OFFCURVE",
"208 537 OFFCURVE",
"275 537 CURVE SMOOTH",
"348 537 OFFCURVE",
"399 491 OFFCURVE",
"406 434 CURVE",
"411 434 LINE",
"429 525 LINE",
"569 525 LINE",
"486 112 LINE",
"545 112 LINE",
"523 0 LINE"
);
},
{
closed = 1;
nodes = (
"276 103 OFFCURVE",
"306 124 OFFCURVE",
"327 151 CURVE",
"350 178 OFFCURVE",
"367 216 OFFCURVE",
"375 255 CURVE SMOOTH",
"391 335 LINE SMOOTH",
"402 384 OFFCURVE",
"368 422 OFFCURVE",
"309 422 CURVE SMOOTH",
"248 422 OFFCURVE",
"210 383 OFFCURVE",
"194 305 CURVE SMOOTH",
"180 235 LINE SMOOTH",
"177 220 OFFCURVE",
"174 194 OFFCURVE",
"174 178 CURVE SMOOTH",
"174 131 OFFCURVE",
"199 103 OFFCURVE",
"240 103 CURVE SMOOTH"
);
},
{
closed = 1;
nodes = (
"263 558 OFFCURVE",
"210 609 OFFCURVE",
"210 680 CURVE SMOOTH",
"210 729 OFFCURVE",
"230 771 OFFCURVE",
"260 800 CURVE SMOOTH",
"290 828 OFFCURVE",
"331 844 OFFCURVE",
"375 844 CURVE SMOOTH",
"450 844 OFFCURVE",
"503 793 OFFCURVE",
"503 722 CURVE SMOOTH",
"503 671 OFFCURVE",
"484 631 OFFCURVE",
"454 603 CURVE SMOOTH",
"424 574 OFFCURVE",
"382 558 OFFCURVE",
"338 558 CURVE SMOOTH"
);
},
{
closed = 1;
nodes = (
"375 632 OFFCURVE",
"395 652 OFFCURVE",
"402 684 CURVE SMOOTH",
"407 709 OFFCURVE",
"410 720 OFFCURVE",
"410 731 CURVE SMOOTH",
"410 757 OFFCURVE",
"396 770 OFFCURVE",
"369 770 CURVE SMOOTH",
"338 770 OFFCURVE",
"318 750 OFFCURVE",
"311 718 CURVE SMOOTH",
"306 693 OFFCURVE",
"303 682 OFFCURVE",
"303 671 CURVE SMOOTH",
"303 645 OFFCURVE",
"317 632 OFFCURVE",
"344 632 CURVE SMOOTH"
);
}
);
width = 591;
}
);
leftKerningGroup = a;
rightKerningGroup = a;
unicode = 00E5;
},
{
glyphname = aringacute;
layers = (
{
layerId = "05A52B16-A306-40FB-AA4D-96EE9622F9E6";
name = "Bold Italic";
paths = (
{
closed = 1;
nodes = (
"430 0 LINE SMOOTH",
"379 0 OFFCURVE",
"342 28 OFFCURVE",
"342 77 CURVE SMOOTH",
"342 88 OFFCURVE",
"344 102 OFFCURVE",
"345 107 CURVE SMOOTH",
"348 122 LINE",
"342 122 LINE",
"301 37 OFFCURVE",
"254 -12 OFFCURVE",
"171 -12 CURVE SMOOTH",
"122 -12 OFFCURVE",
"87 7 OFFCURVE",
"64 40 CURVE SMOOTH",
"41 72 OFFCURVE",
"31 118 OFFCURVE",
"31 170 CURVE SMOOTH",
"31 282 OFFCURVE",
"59 373 OFFCURVE",
"103 437 CURVE SMOOTH",
"147 501 OFFCURVE",
"208 537 OFFCURVE",
"275 537 CURVE SMOOTH",
"348 537 OFFCURVE",
"399 491 OFFCURVE",
"406 434 CURVE",
"411 434 LINE",
"429 525 LINE",
"569 525 LINE",
"486 112 LINE",
"545 112 LINE",
"523 0 LINE"
);
},
{
closed = 1;
nodes = (
"276 103 OFFCURVE",
"306 124 OFFCURVE",
"327 151 CURVE",
"350 178 OFFCURVE",
"367 216 OFFCURVE",
"375 255 CURVE SMOOTH",
"391 335 LINE SMOOTH",
"402 384 OFFCURVE",
"368 422 OFFCURVE",
"309 422 CURVE SMOOTH",
"248 422 OFFCURVE",
"210 383 OFFCURVE",
"194 305 CURVE SMOOTH",
"180 235 LINE SMOOTH",
"177 220 OFFCURVE",
"174 194 OFFCURVE",
"174 178 CURVE SMOOTH",
"174 131 OFFCURVE",
"199 103 OFFCURVE",
"240 103 CURVE SMOOTH"
);
},
{
closed = 1;
nodes = (
"388 815 LINE",
"342 871 LINE",
"487 988 LINE",
"548 909 LINE"
);
},
{
closed = 1;
nodes = (
"268 564 OFFCURVE",
"214 602 OFFCURVE",
"214 667 CURVE SMOOTH",
"214 710 OFFCURVE",
"233 744 OFFCURVE",
"264 768 CURVE SMOOTH",
"295 791 OFFCURVE",
"336 804 OFFCURVE",
"383 804 CURVE SMOOTH",
"456 804 OFFCURVE",
"510 766 OFFCURVE",
"510 702 CURVE SMOOTH",
"510 658 OFFCURVE",
"491 624 OFFCURVE",
"460 601 CURVE SMOOTH",
"429 577 OFFCURVE",
"386 564 OFFCURVE",
"341 564 CURVE SMOOTH"
);
},
{
closed = 1;
nodes = (
"385 633 OFFCURVE",
"405 648 OFFCURVE",
"411 678 CURVE",
"414 689 OFFCURVE",
"415 697 OFFCURVE",
"415 702 CURVE SMOOTH",
"415 724 OFFCURVE",
"401 735 OFFCURVE",
"372 735 CURVE SMOOTH",
"339 735 OFFCURVE",
"319 720 OFFCURVE",
"313 691 CURVE",
"310 680 OFFCURVE",
"309 672 OFFCURVE",
"309 667 CURVE SMOOTH",
"309 644 OFFCURVE",
"323 633 OFFCURVE",
"352 633 CURVE SMOOTH"
);
}
);
width = 591;
}
);
leftKerningGroup = a;
rightKerningGroup = a;
unicode = 01FB;
},
{
glyphname = atilde;
layers = (
{
layerId = "05A52B16-A306-40FB-AA4D-96EE9622F9E6";
name = "Bold Italic";
paths = (
{
closed = 1;
nodes = (
"430 0 LINE SMOOTH",
"379 0 OFFCURVE",
"342 28 OFFCURVE",
"342 77 CURVE SMOOTH",
"342 88 OFFCURVE",
"344 102 OFFCURVE",
"345 107 CURVE SMOOTH",
"348 122 LINE",
"342 122 LINE",
"301 37 OFFCURVE",
"254 -12 OFFCURVE",
"171 -12 CURVE SMOOTH",
"122 -12 OFFCURVE",
"87 7 OFFCURVE",
"64 40 CURVE SMOOTH",
"41 72 OFFCURVE",
"31 118 OFFCURVE",
"31 170 CURVE SMOOTH",
"31 282 OFFCURVE",
"59 373 OFFCURVE",
"103 437 CURVE SMOOTH",
"147 501 OFFCURVE",
"208 537 OFFCURVE",
"275 537 CURVE SMOOTH",
"348 537 OFFCURVE",
"399 491 OFFCURVE",
"406 434 CURVE",
"411 434 LINE",
"429 525 LINE",
"569 525 LINE",
"486 112 LINE",
"545 112 LINE",
"523 0 LINE"
);
},
{
closed = 1;
nodes = (
"276 103 OFFCURVE",
"306 124 OFFCURVE",
"327 151 CURVE",
"350 178 OFFCURVE",
"367 216 OFFCURVE",
"375 255 CURVE SMOOTH",
"391 335 LINE SMOOTH",
"402 384 OFFCURVE",
"368 422 OFFCURVE",
"309 422 CURVE SMOOTH",
"248 422 OFFCURVE",
"210 383 OFFCURVE",
"194 305 CURVE SMOOTH",
"180 235 LINE SMOOTH",
"177 220 OFFCURVE",
"174 194 OFFCURVE",
"174 178 CURVE SMOOTH",
"174 131 OFFCURVE",
"199 103 OFFCURVE",
"240 103 CURVE SMOOTH"
);
},
{
closed = 1;
nodes = (
"398 601 OFFCURVE",
"378 610 OFFCURVE",
"351 622 CURVE SMOOTH",
"326 634 OFFCURVE",
"306 644 OFFCURVE",
"279 644 CURVE SMOOTH",
"256 644 OFFCURVE",
"244 636 OFFCURVE",
"221 619 CURVE",
"178 688 LINE",
"209 727 OFFCURVE",
"246 750 OFFCURVE",
"293 750 CURVE SMOOTH",
"322 750 OFFCURVE",
"342 741 OFFCURVE",
"369 729 CURVE SMOOTH",
"394 717 OFFCURVE",
"414 707 OFFCURVE",
"441 707 CURVE SMOOTH",
"464 707 OFFCURVE",
"476 715 OFFCURVE",
"499 732 CURVE",
"542 663 LINE",
"511 624 OFFCURVE",
"474 601 OFFCURVE",
"427 601 CURVE SMOOTH"
);
}
);
width = 591;
}
);
leftKerningGroup = a;
rightKerningGroup = a;
unicode = 00E3;
},
{
glyphname = uni1EAF;
layers = (
{
layerId = "05A52B16-A306-40FB-AA4D-96EE9622F9E6";
name = "Bold Italic";
paths = (
{
closed = 1;
nodes = (
"430 0 LINE SMOOTH",
"379 0 OFFCURVE",
"342 28 OFFCURVE",
"342 77 CURVE SMOOTH",
"342 88 OFFCURVE",
"344 102 OFFCURVE",
"345 107 CURVE SMOOTH",
"348 122 LINE",
"342 122 LINE",
"301 37 OFFCURVE",
"254 -12 OFFCURVE",
"171 -12 CURVE SMOOTH",
"122 -12 OFFCURVE",
"87 7 OFFCURVE",
"64 40 CURVE SMOOTH",
"41 72 OFFCURVE",
"31 118 OFFCURVE",
"31 170 CURVE SMOOTH",
"31 282 OFFCURVE",
"59 373 OFFCURVE",
"103 437 CURVE SMOOTH",
"147 501 OFFCURVE",
"208 537 OFFCURVE",
"275 537 CURVE SMOOTH",
"348 537 OFFCURVE",
"399 491 OFFCURVE",
"406 434 CURVE",
"411 434 LINE",
"429 525 LINE",
"569 525 LINE",
"486 112 LINE",
"545 112 LINE",
"523 0 LINE"
);
},
{
closed = 1;
nodes = (
"276 103 OFFCURVE",
"306 124 OFFCURVE",
"327 151 CURVE",
"350 178 OFFCURVE",
"367 216 OFFCURVE",
"375 255 CURVE SMOOTH",
"391 335 LINE SMOOTH",
"402 384 OFFCURVE",
"368 422 OFFCURVE",
"309 422 CURVE SMOOTH",
"248 422 OFFCURVE",
"210 383 OFFCURVE",
"194 305 CURVE SMOOTH",
"180 235 LINE SMOOTH",
"177 220 OFFCURVE",
"174 194 OFFCURVE",
"174 178 CURVE SMOOTH",
"174 131 OFFCURVE",
"199 103 OFFCURVE",
"240 103 CURVE SMOOTH"
);
},
{
closed = 1;
nodes = (
"288 572 OFFCURVE",
"246 591 OFFCURVE",
"218 619 CURVE SMOOTH",
"189 647 OFFCURVE",
"173 684 OFFCURVE",
"165 723 CURVE",
"240 768 LINE",
"256 739 LINE",
"271 714 OFFCURVE",
"283 697 OFFCURVE",
"297 686 CURVE SMOOTH",
"311 675 OFFCURVE",
"328 671 OFFCURVE",
"352 671 CURVE SMOOTH",
"372 671 OFFCURVE",
"389 676 OFFCURVE",
"407 686 CURVE SMOOTH",
"425 696 OFFCURVE",
"444 712 OFFCURVE",
"468 739 CURVE SMOOTH",
"495 768 LINE",
"568 719 LINE",
"541 676 OFFCURVE",
"515 641 OFFCURVE",
"480 614 CURVE SMOOTH",
"445 587 OFFCURVE",
"403 572 OFFCURVE",
"348 572 CURVE SMOOTH"
);
},
{
closed = 1;
nodes = (
"384 733 LINE",
"308 773 LINE",
"415 967 LINE",
"522 909 LINE"
);
}
);
width = 591;
}
);
leftKerningGroup = a;
rightKerningGroup = a;
unicode = 1EAF;
},
{
glyphname = uni1EB7;
layers = (
{
layerId = "05A52B16-A306-40FB-AA4D-96EE9622F9E6";
name = "Bold Italic";
paths = (
{
closed = 1;
nodes = (
"430 0 LINE SMOOTH",
"379 0 OFFCURVE",
"342 28 OFFCURVE",
"342 77 CURVE SMOOTH",
"342 88 OFFCURVE",
"344 102 OFFCURVE",
"345 107 CURVE SMOOTH",
"348 122 LINE",
"342 122 LINE",
"301 37 OFFCURVE",
"254 -12 OFFCURVE",
"171 -12 CURVE SMOOTH",
"122 -12 OFFCURVE",
"87 7 OFFCURVE",
"64 40 CURVE SMOOTH",
"41 72 OFFCURVE",
"31 118 OFFCURVE",
"31 170 CURVE SMOOTH",
"31 282 OFFCURVE",
"59 373 OFFCURVE",
"103 437 CURVE SMOOTH",
"147 501 OFFCURVE",
"208 537 OFFCURVE",
"275 537 CURVE SMOOTH",
"348 537 OFFCURVE",
"399 491 OFFCURVE",
"406 434 CURVE",
"411 434 LINE",
"429 525 LINE",
"569 525 LINE",
"486 112 LINE",
"545 112 LINE",
"523 0 LINE"
);
},
{
closed = 1;
nodes = (
"276 103 OFFCURVE",
"306 124 OFFCURVE",
"327 151 CURVE",
"350 178 OFFCURVE",
"367 216 OFFCURVE",
"375 255 CURVE SMOOTH",
"391 335 LINE SMOOTH",
"402 384 OFFCURVE",
"368 422 OFFCURVE",
"309 422 CURVE SMOOTH",
"248 422 OFFCURVE",
"210 383 OFFCURVE",
"194 305 CURVE SMOOTH",
"180 235 LINE SMOOTH",
"177 220 OFFCURVE",
"174 194 OFFCURVE",
"174 178 CURVE SMOOTH",
"174 131 OFFCURVE",
"199 103 OFFCURVE",
"240 103 CURVE SMOOTH"
);
},
{
closed = 1;
nodes = (
"289 579 OFFCURVE",
"251 601 OFFCURVE",
"224 633 CURVE SMOOTH",
"197 665 OFFCURVE",
"183 708 OFFCURVE",
"175 749 CURVE",
"255 791 LINE",
"273 752 LINE SMOOTH",
"294 707 OFFCURVE",
"310 680 OFFCURVE",
"353 680 CURVE SMOOTH",
"389 680 OFFCURVE",
"414 705 OFFCURVE",
"451 754 CURVE SMOOTH",
"479 791 LINE",
"562 745 LINE",
"538 702 OFFCURVE",
"511 661 OFFCURVE",
"476 630 CURVE SMOOTH",
"441 599 OFFCURVE",
"400 579 OFFCURVE",
"345 579 CURVE SMOOTH"
);
},
{
closed = 1;
nodes = (
"168 -202 OFFCURVE",
"149 -181 OFFCURVE",
"149 -150 CURVE SMOOTH",
"149 -147 OFFCURVE",
"150 -142 OFFCURVE",
"151 -137 CURVE SMOOTH",
"152 -132 OFFCURVE",
"153 -124 OFFCURVE",
"155 -112 CURVE SMOOTH",
"162 -77 OFFCURVE",
"183 -54 OFFCURVE",
"239 -54 CURVE SMOOTH",
"288 -54 OFFCURVE",
"308 -75 OFFCURVE",
"308 -106 CURVE SMOOTH",
"308 -109 OFFCURVE",
"308 -113 OFFCURVE",
"307 -118 CURVE SMOOTH",
"306 -123 OFFCURVE",
"304 -132 OFFCURVE",
"302 -144 CURVE SMOOTH",
"295 -179 OFFCURVE",
"274 -202 OFFCURVE",
"219 -202 CURVE SMOOTH"
);
}
);
width = 591;
}
);
leftKerningGroup = a;
rightKerningGroup = a;
unicode = 1EB7;
},
{
glyphname = uni1EB1;
layers = (
{
layerId = "05A52B16-A306-40FB-AA4D-96EE9622F9E6";
name = "Bold Italic";
paths = (
{
closed = 1;
nodes = (
"430 0 LINE SMOOTH",
"379 0 OFFCURVE",
"342 28 OFFCURVE",
"342 77 CURVE SMOOTH",
"342 88 OFFCURVE",
"344 102 OFFCURVE",
"345 107 CURVE SMOOTH",
"348 122 LINE",
"342 122 LINE",
"301 37 OFFCURVE",
"254 -12 OFFCURVE",
"171 -12 CURVE SMOOTH",
"122 -12 OFFCURVE",
"87 7 OFFCURVE",
"64 40 CURVE SMOOTH",
"41 72 OFFCURVE",
"31 118 OFFCURVE",
"31 170 CURVE SMOOTH",
"31 282 OFFCURVE",
"59 373 OFFCURVE",
"103 437 CURVE SMOOTH",
"147 501 OFFCURVE",
"208 537 OFFCURVE",
"275 537 CURVE SMOOTH",
"348 537 OFFCURVE",
"399 491 OFFCURVE",
"406 434 CURVE",
"411 434 LINE",
"429 525 LINE",
"569 525 LINE",
"486 112 LINE",
"545 112 LINE",
"523 0 LINE"
);
},
{
closed = 1;
nodes = (
"276 103 OFFCURVE",
"306 124 OFFCURVE",
"327 151 CURVE",
"350 178 OFFCURVE",
"367 216 OFFCURVE",
"375 255 CURVE SMOOTH",
"391 335 LINE SMOOTH",
"402 384 OFFCURVE",
"368 422 OFFCURVE",
"309 422 CURVE SMOOTH",
"248 422 OFFCURVE",
"210 383 OFFCURVE",
"194 305 CURVE SMOOTH",
"180 235 LINE SMOOTH",
"177 220 OFFCURVE",
"174 194 OFFCURVE",
"174 178 CURVE SMOOTH",
"174 131 OFFCURVE",
"199 103 OFFCURVE",
"240 103 CURVE SMOOTH"
);
},
{
closed = 1;
nodes = (
"288 572 OFFCURVE",
"246 591 OFFCURVE",
"218 619 CURVE SMOOTH",
"189 647 OFFCURVE",
"173 684 OFFCURVE",
"165 723 CURVE",
"240 768 LINE",
"256 739 LINE",
"271 714 OFFCURVE",
"283 697 OFFCURVE",
"297 686 CURVE SMOOTH",
"311 675 OFFCURVE",
"328 671 OFFCURVE",
"352 671 CURVE SMOOTH",
"372 671 OFFCURVE",
"389 676 OFFCURVE",
"407 686 CURVE SMOOTH",
"425 696 OFFCURVE",
"444 712 OFFCURVE",
"468 739 CURVE SMOOTH",
"495 768 LINE",
"568 719 LINE",
"541 676 OFFCURVE",
"515 641 OFFCURVE",
"480 614 CURVE SMOOTH",
"445 587 OFFCURVE",
"403 572 OFFCURVE",
"348 572 CURVE SMOOTH"
);
},
{
closed = 1;
nodes = (
"248 910 LINE",
"368 965 LINE",
"428 772 LINE",
"345 734 LINE"
);
}
);
width = 591;
}
);
leftKerningGroup = a;
rightKerningGroup = a;
unicode = 1EB1;
},
{
glyphname = uni1EB3;
layers = (
{
layerId = "05A52B16-A306-40FB-AA4D-96EE9622F9E6";
name = "Bold Italic";
paths = (
{
closed = 1;
nodes = (
"430 0 LINE SMOOTH",
"379 0 OFFCURVE",
"342 28 OFFCURVE",
"342 77 CURVE SMOOTH",
"342 88 OFFCURVE",
"344 102 OFFCURVE",
"345 107 CURVE SMOOTH",
"348 122 LINE",
"342 122 LINE",
"301 37 OFFCURVE",
"254 -12 OFFCURVE",
"171 -12 CURVE SMOOTH",
"122 -12 OFFCURVE",
"87 7 OFFCURVE",
"64 40 CURVE SMOOTH",
"41 72 OFFCURVE",
"31 118 OFFCURVE",
"31 170 CURVE SMOOTH",
"31 282 OFFCURVE",
"59 373 OFFCURVE",
"103 437 CURVE SMOOTH",
"147 501 OFFCURVE",
"208 537 OFFCURVE",
"275 537 CURVE SMOOTH",
"348 537 OFFCURVE",
"399 491 OFFCURVE",
"406 434 CURVE",
"411 434 LINE",
"429 525 LINE",
"569 525 LINE",
"486 112 LINE",
"545 112 LINE",
"523 0 LINE"
);
},
{
closed = 1;
nodes = (
"276 103 OFFCURVE",
"306 124 OFFCURVE",
"327 151 CURVE",
"350 178 OFFCURVE",
"367 216 OFFCURVE",
"375 255 CURVE SMOOTH",
"391 335 LINE SMOOTH",
"402 384 OFFCURVE",
"368 422 OFFCURVE",
"309 422 CURVE SMOOTH",
"248 422 OFFCURVE",
"210 383 OFFCURVE",
"194 305 CURVE SMOOTH",
"180 235 LINE SMOOTH",
"177 220 OFFCURVE",
"174 194 OFFCURVE",
"174 178 CURVE SMOOTH",
"174 131 OFFCURVE",
"199 103 OFFCURVE",
"240 103 CURVE SMOOTH"
);
},
{
closed = 1;
nodes = (
"288 572 OFFCURVE",
"246 591 OFFCURVE",
"218 619 CURVE SMOOTH",
"189 647 OFFCURVE",
"173 684 OFFCURVE",
"165 723 CURVE",
"240 768 LINE",
"256 739 LINE",
"271 714 OFFCURVE",
"283 697 OFFCURVE",
"297 686 CURVE SMOOTH",
"311 675 OFFCURVE",
"328 671 OFFCURVE",
"352 671 CURVE SMOOTH",
"372 671 OFFCURVE",
"389 676 OFFCURVE",
"407 686 CURVE SMOOTH",
"425 696 OFFCURVE",
"444 712 OFFCURVE",
"468 739 CURVE SMOOTH",
"495 768 LINE",
"568 719 LINE",
"541 676 OFFCURVE",
"515 641 OFFCURVE",
"480 614 CURVE SMOOTH",
"445 587 OFFCURVE",
"403 572 OFFCURVE",
"348 572 CURVE SMOOTH"
);
},
{
closed = 1;
nodes = (
"278 952 LINE",
"412 952 LINE SMOOTH",
"464 952 OFFCURVE",
"489 927 OFFCURVE",
"489 895 CURVE SMOOTH",
"489 852 OFFCURVE",
"467 823 OFFCURVE",
"439 787 CURVE",
"382 721 LINE",
"314 755 LINE",
"365 851 LINE",
"258 851 LINE"
);
}
);
width = 591;
}
);
leftKerningGroup = a;
rightKerningGroup = a;
unicode = 1EB3;
},
{
glyphname = uni1EB5;
layers = (
{
layerId = "05A52B16-A306-40FB-AA4D-96EE9622F9E6";
name = "Bold Italic";
paths = (
{
closed = 1;
nodes = (
"430 0 LINE SMOOTH",
"379 0 OFFCURVE",
"342 28 OFFCURVE",
"342 77 CURVE SMOOTH",
"342 88 OFFCURVE",
"344 102 OFFCURVE",
"345 107 CURVE SMOOTH",
"348 122 LINE",
"342 122 LINE",
"301 37 OFFCURVE",
"254 -12 OFFCURVE",
"171 -12 CURVE SMOOTH",
"122 -12 OFFCURVE",
"87 7 OFFCURVE",
"64 40 CURVE SMOOTH",
"41 72 OFFCURVE",
"31 118 OFFCURVE",
"31 170 CURVE SMOOTH",
"31 282 OFFCURVE",
"59 373 OFFCURVE",
"103 437 CURVE SMOOTH",
"147 501 OFFCURVE",
"208 537 OFFCURVE",
"275 537 CURVE SMOOTH",
"348 537 OFFCURVE",
"399 491 OFFCURVE",
"406 434 CURVE",
"411 434 LINE",
"429 525 LINE",
"569 525 LINE",
"486 112 LINE",
"545 112 LINE",
"523 0 LINE"
);
},
{
closed = 1;
nodes = (
"276 103 OFFCURVE",
"306 124 OFFCURVE",
"327 151 CURVE",
"350 178 OFFCURVE",
"367 216 OFFCURVE",
"375 255 CURVE SMOOTH",
"391 335 LINE SMOOTH",
"402 384 OFFCURVE",
"368 422 OFFCURVE",
"309 422 CURVE SMOOTH",
"248 422 OFFCURVE",
"210 383 OFFCURVE",
"194 305 CURVE SMOOTH",
"180 235 LINE SMOOTH",
"177 220 OFFCURVE",
"174 194 OFFCURVE",
"174 178 CURVE SMOOTH",
"174 131 OFFCURVE",
"199 103 OFFCURVE",
"240 103 CURVE SMOOTH"
);
},
{
closed = 1;
nodes = (
"288 572 OFFCURVE",
"246 591 OFFCURVE",
"218 619 CURVE SMOOTH",
"189 647 OFFCURVE",
"173 684 OFFCURVE",
"165 723 CURVE",
"240 768 LINE",
"256 739 LINE",
"271 714 OFFCURVE",
"283 697 OFFCURVE",
"297 686 CURVE SMOOTH",
"311 675 OFFCURVE",
"328 671 OFFCURVE",
"352 671 CURVE SMOOTH",
"372 671 OFFCURVE",
"389 676 OFFCURVE",
"407 686 CURVE SMOOTH",
"425 696 OFFCURVE",
"444 712 OFFCURVE",
"468 739 CURVE SMOOTH",
"495 768 LINE",
"568 719 LINE",
"541 676 OFFCURVE",
"515 641 OFFCURVE",
"480 614 CURVE SMOOTH",
"445 587 OFFCURVE",
"403 572 OFFCURVE",
"348 572 CURVE SMOOTH"
);
},
{
closed = 1;
nodes = (
"407 787 OFFCURVE",
"389 796 OFFCURVE",
"366 807 CURVE SMOOTH",
"341 820 OFFCURVE",
"323 829 OFFCURVE",
"298 829 CURVE SMOOTH",
"277 829 OFFCURVE",
"260 821 OFFCURVE",
"236 804 CURVE",
"202 869 LINE",
"230 904 OFFCURVE",
"272 931 OFFCURVE",
"323 931 CURVE SMOOTH",
"350 931 OFFCURVE",
"368 922 OFFCURVE",
"391 911 CURVE SMOOTH",
"416 898 OFFCURVE",
"434 889 OFFCURVE",
"459 889 CURVE SMOOTH",
"480 889 OFFCURVE",
"497 897 OFFCURVE",
"521 914 CURVE",
"555 849 LINE",
"527 814 OFFCURVE",
"485 787 OFFCURVE",
"434 787 CURVE SMOOTH"
);
}
);
width = 591;
}
);
leftKerningGroup = a;
rightKerningGroup = a;
unicode = 1EB5;
},
{
glyphname = uni1EA5;
layers = (
{
layerId = "05A52B16-A306-40FB-AA4D-96EE9622F9E6";
name = "Bold Italic";
paths = (
{
closed = 1;
nodes = (
"430 0 LINE SMOOTH",
"379 0 OFFCURVE",
"342 28 OFFCURVE",
"342 77 CURVE SMOOTH",
"342 88 OFFCURVE",
"344 102 OFFCURVE",
"345 107 CURVE SMOOTH",
"348 122 LINE",
"342 122 LINE",
"301 37 OFFCURVE",
"254 -12 OFFCURVE",
"171 -12 CURVE SMOOTH",
"122 -12 OFFCURVE",
"87 7 OFFCURVE",
"64 40 CURVE SMOOTH",
"41 72 OFFCURVE",
"31 118 OFFCURVE",
"31 170 CURVE SMOOTH",
"31 282 OFFCURVE",
"59 373 OFFCURVE",
"103 437 CURVE SMOOTH",
"147 501 OFFCURVE",
"208 537 OFFCURVE",
"275 537 CURVE SMOOTH",
"348 537 OFFCURVE",
"399 491 OFFCURVE",
"406 434 CURVE",
"411 434 LINE",
"429 525 LINE",
"569 525 LINE",
"486 112 LINE",
"545 112 LINE",
"523 0 LINE"
);
},
{
closed = 1;
nodes = (
"276 103 OFFCURVE",
"306 124 OFFCURVE",
"327 151 CURVE",
"350 178 OFFCURVE",
"367 216 OFFCURVE",
"375 255 CURVE SMOOTH",
"391 335 LINE SMOOTH",
"402 384 OFFCURVE",
"368 422 OFFCURVE",
"309 422 CURVE SMOOTH",
"248 422 OFFCURVE",
"210 383 OFFCURVE",
"194 305 CURVE SMOOTH",
"180 235 LINE SMOOTH",
"177 220 OFFCURVE",
"174 194 OFFCURVE",
"174 178 CURVE SMOOTH",
"174 131 OFFCURVE",
"199 103 OFFCURVE",
"240 103 CURVE SMOOTH"
);
},
{
closed = 1;
nodes = (
"546 735 LINE",
"470 775 LINE",
"574 965 LINE",
"682 910 LINE"
);
},
{
closed = 1;
nodes = (
"426 780 LINE",
"539 632 LINE",
"468 569 LINE",
"370 674 LINE",
"228 569 LINE",
"165 632 LINE",
"336 780 LINE"
);
}
);
width = 591;
}
);
leftKerningGroup = a;
rightKerningGroup = a;
unicode = 1EA5;
},
{
glyphname = uni1EAD;
layers = (
{
layerId = "05A52B16-A306-40FB-AA4D-96EE9622F9E6";
name = "Bold Italic";
paths = (
{
closed = 1;
nodes = (
"430 0 LINE SMOOTH",
"379 0 OFFCURVE",
"342 28 OFFCURVE",
"342 77 CURVE SMOOTH",
"342 88 OFFCURVE",
"344 102 OFFCURVE",
"345 107 CURVE SMOOTH",
"348 122 LINE",
"342 122 LINE",
"301 37 OFFCURVE",
"254 -12 OFFCURVE",
"171 -12 CURVE SMOOTH",
"122 -12 OFFCURVE",
"87 7 OFFCURVE",
"64 40 CURVE SMOOTH",
"41 72 OFFCURVE",
"31 118 OFFCURVE",
"31 170 CURVE SMOOTH",
"31 282 OFFCURVE",
"59 373 OFFCURVE",
"103 437 CURVE SMOOTH",
"147 501 OFFCURVE",
"208 537 OFFCURVE",
"275 537 CURVE SMOOTH",
"348 537 OFFCURVE",
"399 491 OFFCURVE",
"406 434 CURVE",
"411 434 LINE",
"429 525 LINE",
"569 525 LINE",
"486 112 LINE",
"545 112 LINE",
"523 0 LINE"
);
},
{
closed = 1;
nodes = (
"276 103 OFFCURVE",
"306 124 OFFCURVE",
"327 151 CURVE",
"350 178 OFFCURVE",
"367 216 OFFCURVE",
"375 255 CURVE SMOOTH",
"391 335 LINE SMOOTH",
"402 384 OFFCURVE",
"368 422 OFFCURVE",
"309 422 CURVE SMOOTH",
"248 422 OFFCURVE",
"210 383 OFFCURVE",
"194 305 CURVE SMOOTH",
"180 235 LINE SMOOTH",
"177 220 OFFCURVE",
"174 194 OFFCURVE",
"174 178 CURVE SMOOTH",
"174 131 OFFCURVE",
"199 103 OFFCURVE",
"240 103 CURVE SMOOTH"
);
},
{
closed = 1;
nodes = (
"436 794 LINE",
"536 636 LINE",
"461 579 LINE",
"362 694 LINE",
"228 579 LINE",
"158 636 LINE",
"314 794 LINE"
);
},
{
closed = 1;
nodes = (
"168 -202 OFFCURVE",
"149 -181 OFFCURVE",
"149 -150 CURVE SMOOTH",
"149 -147 OFFCURVE",
"150 -142 OFFCURVE",
"151 -137 CURVE SMOOTH",
"152 -132 OFFCURVE",
"153 -124 OFFCURVE",
"155 -112 CURVE SMOOTH",
"162 -77 OFFCURVE",
"183 -54 OFFCURVE",
"239 -54 CURVE SMOOTH",
"288 -54 OFFCURVE",
"308 -75 OFFCURVE",
"308 -106 CURVE SMOOTH",
"308 -109 OFFCURVE",
"308 -113 OFFCURVE",
"307 -118 CURVE SMOOTH",
"306 -123 OFFCURVE",
"304 -132 OFFCURVE",
"302 -144 CURVE SMOOTH",
"295 -179 OFFCURVE",
"274 -202 OFFCURVE",
"219 -202 CURVE SMOOTH"
);
}
);
width = 591;
}
);
leftKerningGroup = a;
rightKerningGroup = a;
unicode = 1EAD;
},
{
glyphname = uni1EA7;
layers = (
{
layerId = "05A52B16-A306-40FB-AA4D-96EE9622F9E6";
name = "Bold Italic";
paths = (
{
closed = 1;
nodes = (
"430 0 LINE SMOOTH",
"379 0 OFFCURVE",
"342 28 OFFCURVE",
"342 77 CURVE SMOOTH",
"342 88 OFFCURVE",
"344 102 OFFCURVE",
"345 107 CURVE SMOOTH",
"348 122 LINE",
"342 122 LINE",
"301 37 OFFCURVE",
"254 -12 OFFCURVE",
"171 -12 CURVE SMOOTH",
"122 -12 OFFCURVE",
"87 7 OFFCURVE",
"64 40 CURVE SMOOTH",
"41 72 OFFCURVE",
"31 118 OFFCURVE",
"31 170 CURVE SMOOTH",
"31 282 OFFCURVE",
"59 373 OFFCURVE",
"103 437 CURVE SMOOTH",
"147 501 OFFCURVE",
"208 537 OFFCURVE",
"275 537 CURVE SMOOTH",
"348 537 OFFCURVE",
"399 491 OFFCURVE",
"406 434 CURVE",
"411 434 LINE",
"429 525 LINE",
"569 525 LINE",
"486 112 LINE",
"545 112 LINE",
"523 0 LINE"
);
},
{
closed = 1;
nodes = (
"276 103 OFFCURVE",
"306 124 OFFCURVE",
"327 151 CURVE",
"350 178 OFFCURVE",
"367 216 OFFCURVE",
"375 255 CURVE SMOOTH",
"391 335 LINE SMOOTH",
"402 384 OFFCURVE",
"368 422 OFFCURVE",
"309 422 CURVE SMOOTH",
"248 422 OFFCURVE",
"210 383 OFFCURVE",
"194 305 CURVE SMOOTH",
"180 235 LINE SMOOTH",
"177 220 OFFCURVE",
"174 194 OFFCURVE",
"174 178 CURVE SMOOTH",
"174 131 OFFCURVE",
"199 103 OFFCURVE",
"240 103 CURVE SMOOTH"
);
},
{
closed = 1;
nodes = (
"94 910 LINE",
"206 965 LINE",
"279 772 LINE",
"206 734 LINE"
);
},
{
closed = 1;
nodes = (
"426 780 LINE",
"539 632 LINE",
"468 569 LINE",
"370 674 LINE",
"228 569 LINE",
"165 632 LINE",
"336 780 LINE"
);
}
);
width = 591;
}
);
leftKerningGroup = a;
rightKerningGroup = a;
unicode = 1EA7;
},
{
glyphname = uni1EA9;
layers = (
{
layerId = "05A52B16-A306-40FB-AA4D-96EE9622F9E6";
name = "Bold Italic";
paths = (
{
closed = 1;
nodes = (
"430 0 LINE SMOOTH",
"379 0 OFFCURVE",
"342 28 OFFCURVE",
"342 77 CURVE SMOOTH",
"342 88 OFFCURVE",
"344 102 OFFCURVE",
"345 107 CURVE SMOOTH",
"348 122 LINE",
"342 122 LINE",
"301 37 OFFCURVE",
"254 -12 OFFCURVE",
"171 -12 CURVE SMOOTH",
"122 -12 OFFCURVE",
"87 7 OFFCURVE",
"64 40 CURVE SMOOTH",
"41 72 OFFCURVE",
"31 118 OFFCURVE",
"31 170 CURVE SMOOTH",
"31 282 OFFCURVE",
"59 373 OFFCURVE",
"103 437 CURVE SMOOTH",
"147 501 OFFCURVE",
"208 537 OFFCURVE",
"275 537 CURVE SMOOTH",
"348 537 OFFCURVE",
"399 491 OFFCURVE",
"406 434 CURVE",
"411 434 LINE",
"429 525 LINE",
"569 525 LINE",
"486 112 LINE",
"545 112 LINE",
"523 0 LINE"
);
},
{
closed = 1;
nodes = (
"276 103 OFFCURVE",
"306 124 OFFCURVE",
"327 151 CURVE",
"350 178 OFFCURVE",
"367 216 OFFCURVE",
"375 255 CURVE SMOOTH",
"391 335 LINE SMOOTH",
"402 384 OFFCURVE",
"368 422 OFFCURVE",
"309 422 CURVE SMOOTH",
"248 422 OFFCURVE",
"210 383 OFFCURVE",
"194 305 CURVE SMOOTH",
"180 235 LINE SMOOTH",
"177 220 OFFCURVE",
"174 194 OFFCURVE",
"174 178 CURVE SMOOTH",
"174 131 OFFCURVE",
"199 103 OFFCURVE",
"240 103 CURVE SMOOTH"
);
},
{
closed = 1;
nodes = (
"444 952 LINE",
"579 952 LINE SMOOTH",
"631 952 OFFCURVE",
"655 927 OFFCURVE",
"655 895 CURVE SMOOTH",
"655 852 OFFCURVE",
"634 823 OFFCURVE",
"605 787 CURVE SMOOTH",
"548 721 LINE",
"480 755 LINE",
"532 851 LINE",
"424 851 LINE"
);
},
{
closed = 1;
nodes = (
"426 780 LINE",
"539 632 LINE",
"468 569 LINE",
"370 674 LINE",
"228 569 LINE",
"165 632 LINE",
"336 780 LINE"
);
}
);
width = 591;
}
);
leftKerningGroup = a;
rightKerningGroup = a;
unicode = 1EA9;
},
{
glyphname = uni1EAB;
layers = (
{
layerId = "05A52B16-A306-40FB-AA4D-96EE9622F9E6";
name = "Bold Italic";
paths = (
{
closed = 1;
nodes = (
"430 0 LINE SMOOTH",
"379 0 OFFCURVE",
"342 28 OFFCURVE",
"342 77 CURVE SMOOTH",
"342 88 OFFCURVE",
"344 102 OFFCURVE",
"345 107 CURVE SMOOTH",
"348 122 LINE",
"342 122 LINE",
"301 37 OFFCURVE",
"254 -12 OFFCURVE",
"171 -12 CURVE SMOOTH",
"122 -12 OFFCURVE",
"87 7 OFFCURVE",
"64 40 CURVE SMOOTH",
"41 72 OFFCURVE",
"31 118 OFFCURVE",
"31 170 CURVE SMOOTH",
"31 282 OFFCURVE",
"59 373 OFFCURVE",
"103 437 CURVE SMOOTH",
"147 501 OFFCURVE",
"208 537 OFFCURVE",
"275 537 CURVE SMOOTH",
"348 537 OFFCURVE",
"399 491 OFFCURVE",
"406 434 CURVE",
"411 434 LINE",
"429 525 LINE",
"569 525 LINE",
"486 112 LINE",
"545 112 LINE",
"523 0 LINE"
);
},
{
closed = 1;
nodes = (
"276 103 OFFCURVE",
"306 124 OFFCURVE",
"327 151 CURVE",
"350 178 OFFCURVE",
"367 216 OFFCURVE",
"375 255 CURVE SMOOTH",
"391 335 LINE SMOOTH",
"402 384 OFFCURVE",
"368 422 OFFCURVE",
"309 422 CURVE SMOOTH",
"248 422 OFFCURVE",
"210 383 OFFCURVE",
"194 305 CURVE SMOOTH",
"180 235 LINE SMOOTH",
"177 220 OFFCURVE",
"174 194 OFFCURVE",
"174 178 CURVE SMOOTH",
"174 131 OFFCURVE",
"199 103 OFFCURVE",
"240 103 CURVE SMOOTH"
);
},
{
closed = 1;
nodes = (
"365 941 OFFCURVE",
"381 932 OFFCURVE",
"404 921 CURVE SMOOTH",
"431 908 OFFCURVE",
"448 899 OFFCURVE",
"471 899 CURVE SMOOTH",
"490 899 OFFCURVE",
"505 907 OFFCURVE",
"528 924 CURVE",
"563 859 LINE",
"532 824 OFFCURVE",
"492 797 OFFCURVE",
"444 797 CURVE SMOOTH",
"419 797 OFFCURVE",
"403 806 OFFCURVE",
"380 817 CURVE SMOOTH",
"353 830 OFFCURVE",
"336 839 OFFCURVE",
"313 839 CURVE SMOOTH",
"294 839 OFFCURVE",
"279 831 OFFCURVE",
"256 814 CURVE",
"221 879 LINE",
"252 914 OFFCURVE",
"292 941 OFFCURVE",
"340 941 CURVE SMOOTH"
);
},
{
closed = 1;
nodes = (
"421 768 LINE",
"536 634 LINE",
"464 571 LINE",
"361 675 LINE",
"226 571 LINE",
"162 634 LINE",
"330 768 LINE"
);
}
);
width = 591;
}
);
leftKerningGroup = a;
rightKerningGroup = a;
unicode = 1EAB;
},
{
glyphname = ae;
layers = (
{
layerId = "05A52B16-A306-40FB-AA4D-96EE9622F9E6";
name = "Bold Italic";
paths = (
{
closed = 1;
nodes = (
"276 89 OFFCURVE",
"320 112 OFFCURVE",
"331 160 CURVE SMOOTH",
"343 217 LINE",
"262 213 LINE SMOOTH",
"221 210 OFFCURVE",
"186 204 OFFCURVE",
"175 165 CURVE SMOOTH",
"173 158 OFFCURVE",
"172 151 OFFCURVE",
"172 145 CURVE",
"171 138 OFFCURVE",
"171 135 OFFCURVE",
"171 134 CURVE SMOOTH",
"171 103 OFFCURVE",
"195 89 OFFCURVE",
"231 89 CURVE SMOOTH"
);
},
{
closed = 1;
nodes = (
"560 430 OFFCURVE",
"515 388 OFFCURVE",
"503 320 CURVE SMOOTH",
"499 301 LINE",
"574 305 OFFCURVE",
"619 315 OFFCURVE",
"646 328 CURVE SMOOTH",
"673 340 OFFCURVE",
"680 357 OFFCURVE",
"680 377 CURVE SMOOTH",
"680 400 OFFCURVE",
"671 413 OFFCURVE",
"659 421 CURVE",
"647 428 OFFCURVE",
"632 430 OFFCURVE",
"620 430 CURVE SMOOTH"
);
},
{
closed = 1;
nodes = (
"78 -12 OFFCURVE",
"25 41 OFFCURVE",
"25 125 CURVE SMOOTH",
"25 234 OFFCURVE",
"115 287 OFFCURVE",
"268 294 CURVE SMOOTH",
"359 298 LINE",
"364 325 LINE SMOOTH",
"366 337 OFFCURVE",
"367 347 OFFCURVE",
"367 355 CURVE SMOOTH",
"367 402 OFFCURVE",
"340 425 OFFCURVE",
"286 425 CURVE SMOOTH",
"255 425 OFFCURVE",
"231 417 OFFCURVE",
"212 405 CURVE SMOOTH",
"192 393 OFFCURVE",
"177 376 OFFCURVE",
"164 357 CURVE",
"82 436 LINE",
"131 500 OFFCURVE",
"205 537 OFFCURVE",
"297 537 CURVE SMOOTH",
"373 537 OFFCURVE",
"425 512 OFFCURVE",
"454 461 CURVE",
"461 461 LINE",
"504 508 OFFCURVE",
"558 537 OFFCURVE",
"630 537 CURVE SMOOTH",
"669 537 OFFCURVE",
"715 529 OFFCURVE",
"752 507 CURVE SMOOTH",
"789 485 OFFCURVE",
"816 448 OFFCURVE",
"816 392 CURVE SMOOTH",
"816 339 OFFCURVE",
"790 297 OFFCURVE",
"738 267 CURVE SMOOTH",
"685 236 OFFCURVE",
"601 219 OFFCURVE",
"484 216 CURVE",
"483 208 OFFCURVE",
"482 202 OFFCURVE",
"482 197 CURVE SMOOTH",
"482 192 OFFCURVE",
"482 188 OFFCURVE",
"482 185 CURVE SMOOTH",
"482 134 OFFCURVE",
"505 101 OFFCURVE",
"576 101 CURVE SMOOTH",
"621 101 OFFCURVE",
"656 115 OFFCURVE",
"703 174 CURVE",
"789 106 LINE",
"724 19 OFFCURVE",
"656 -12 OFFCURVE",
"565 -12 CURVE SMOOTH",
"465 -12 OFFCURVE",
"401 25 OFFCURVE",
"368 92 CURVE",
"361 92 LINE",
"326 17 OFFCURVE",
"261 -12 OFFCURVE",
"182 -12 CURVE SMOOTH"
);
}
);
width = 827;
}
);
leftKerningGroup = ae;
rightKerningGroup = e;
unicode = 00E6;
},
{
glyphname = aeacute;
layers = (
{
layerId = "05A52B16-A306-40FB-AA4D-96EE9622F9E6";
name = "Bold Italic";
paths = (
{
closed = 1;
nodes = (
"276 89 OFFCURVE",
"320 112 OFFCURVE",
"331 160 CURVE SMOOTH",
"343 217 LINE",
"262 213 LINE SMOOTH",
"221 210 OFFCURVE",
"186 204 OFFCURVE",
"175 165 CURVE SMOOTH",
"173 158 OFFCURVE",
"172 151 OFFCURVE",
"172 145 CURVE",
"171 138 OFFCURVE",
"171 135 OFFCURVE",
"171 134 CURVE SMOOTH",
"171 103 OFFCURVE",
"195 89 OFFCURVE",
"231 89 CURVE SMOOTH"
);
},
{
closed = 1;
nodes = (
"560 430 OFFCURVE",
"515 388 OFFCURVE",
"503 320 CURVE SMOOTH",
"499 301 LINE",
"574 305 OFFCURVE",
"619 315 OFFCURVE",
"646 328 CURVE SMOOTH",
"673 340 OFFCURVE",
"680 357 OFFCURVE",
"680 377 CURVE SMOOTH",
"680 400 OFFCURVE",
"671 413 OFFCURVE",
"659 421 CURVE",
"647 428 OFFCURVE",
"632 430 OFFCURVE",
"620 430 CURVE SMOOTH"
);
},
{
closed = 1;
nodes = (
"78 -12 OFFCURVE",
"25 41 OFFCURVE",
"25 125 CURVE SMOOTH",
"25 234 OFFCURVE",
"115 287 OFFCURVE",
"268 294 CURVE SMOOTH",
"359 298 LINE",
"364 325 LINE SMOOTH",
"366 337 OFFCURVE",
"367 347 OFFCURVE",
"367 355 CURVE SMOOTH",
"367 402 OFFCURVE",
"340 425 OFFCURVE",
"286 425 CURVE SMOOTH",
"255 425 OFFCURVE",
"231 417 OFFCURVE",
"212 405 CURVE SMOOTH",
"192 393 OFFCURVE",
"177 376 OFFCURVE",
"164 357 CURVE",
"82 436 LINE",
"131 500 OFFCURVE",
"205 537 OFFCURVE",
"297 537 CURVE SMOOTH",
"373 537 OFFCURVE",
"425 512 OFFCURVE",
"454 461 CURVE",
"461 461 LINE",
"504 508 OFFCURVE",
"558 537 OFFCURVE",
"630 537 CURVE SMOOTH",
"669 537 OFFCURVE",
"715 529 OFFCURVE",
"752 507 CURVE SMOOTH",
"789 485 OFFCURVE",
"816 448 OFFCURVE",
"816 392 CURVE SMOOTH",
"816 339 OFFCURVE",
"790 297 OFFCURVE",
"738 267 CURVE SMOOTH",
"685 236 OFFCURVE",
"601 219 OFFCURVE",
"484 216 CURVE",
"483 208 OFFCURVE",
"482 202 OFFCURVE",
"482 197 CURVE SMOOTH",
"482 192 OFFCURVE",
"482 188 OFFCURVE",
"482 185 CURVE SMOOTH",
"482 134 OFFCURVE",
"505 101 OFFCURVE",
"576 101 CURVE SMOOTH",
"621 101 OFFCURVE",
"656 115 OFFCURVE",
"703 174 CURVE",
"789 106 LINE",
"724 19 OFFCURVE",
"656 -12 OFFCURVE",
"565 -12 CURVE SMOOTH",
"465 -12 OFFCURVE",
"401 25 OFFCURVE",
"368 92 CURVE",
"361 92 LINE",
"326 17 OFFCURVE",
"261 -12 OFFCURVE",
"182 -12 CURVE SMOOTH"
);
},
{
closed = 1;
nodes = (
"511 579 LINE",
"427 625 LINE",
"546 815 LINE",
"658 755 LINE"
);
}
);
width = 827;
}
);
leftKerningGroup = ae;
rightKerningGroup = e;
unicode = 01FD;
},
{
glyphname = cacute;
layers = (
{
layerId = "05A52B16-A306-40FB-AA4D-96EE9622F9E6";
name = "Bold Italic";
paths = (
{
closed = 1;
nodes = (
"180 -12 OFFCURVE",
"128 4 OFFCURVE",
"91 41 CURVE SMOOTH",
"54 77 OFFCURVE",
"31 134 OFFCURVE",
"31 215 CURVE SMOOTH",
"31 308 OFFCURVE",
"61 389 OFFCURVE",
"111 446 CURVE SMOOTH",
"161 503 OFFCURVE",
"230 537 OFFCURVE",
"310 537 CURVE SMOOTH",
"359 537 OFFCURVE",
"404 524 OFFCURVE",
"437 500 CURVE SMOOTH",
"469 476 OFFCURVE",
"491 442 OFFCURVE",
"498 401 CURVE",
"380 356 LINE",
"368 397 OFFCURVE",
"353 424 OFFCURVE",
"302 424 CURVE SMOOTH",
"244 424 OFFCURVE",
"208 387 OFFCURVE",
"193 314 CURVE SMOOTH",
"175 225 LINE SMOOTH",
"172 210 OFFCURVE",
"170 196 OFFCURVE",
"170 183 CURVE SMOOTH",
"170 134 OFFCURVE",
"193 101 OFFCURVE",
"249 101 CURVE SMOOTH",
"276 101 OFFCURVE",
"295 109 OFFCURVE",
"311 124 CURVE SMOOTH",
"326 139 OFFCURVE",
"338 159 OFFCURVE",
"353 184 CURVE",
"460 134 LINE",
"413 37 OFFCURVE",
"337 -12 OFFCURVE",
"237 -12 CURVE SMOOTH"
);
},
{
closed = 1;
nodes = (
"341 579 LINE",
"257 625 LINE",
"376 815 LINE",
"488 755 LINE"
);
}
);
width = 494;
}
);
leftKerningGroup = c;
rightKerningGroup = c;
unicode = 0107;
},
{
glyphname = ccaron;
layers = (
{
layerId = "05A52B16-A306-40FB-AA4D-96EE9622F9E6";
name = "Bold Italic";
paths = (
{
closed = 1;
nodes = (
"180 -12 OFFCURVE",
"128 4 OFFCURVE",
"91 41 CURVE SMOOTH",
"54 77 OFFCURVE",
"31 134 OFFCURVE",
"31 215 CURVE SMOOTH",
"31 308 OFFCURVE",
"61 389 OFFCURVE",
"111 446 CURVE SMOOTH",
"161 503 OFFCURVE",
"230 537 OFFCURVE",
"310 537 CURVE SMOOTH",
"359 537 OFFCURVE",
"404 524 OFFCURVE",
"437 500 CURVE SMOOTH",
"469 476 OFFCURVE",
"491 442 OFFCURVE",
"498 401 CURVE",
"380 356 LINE",
"368 397 OFFCURVE",
"353 424 OFFCURVE",
"302 424 CURVE SMOOTH",
"244 424 OFFCURVE",
"208 387 OFFCURVE",
"193 314 CURVE SMOOTH",
"175 225 LINE SMOOTH",
"172 210 OFFCURVE",
"170 196 OFFCURVE",
"170 183 CURVE SMOOTH",
"170 134 OFFCURVE",
"193 101 OFFCURVE",
"249 101 CURVE SMOOTH",
"276 101 OFFCURVE",
"295 109 OFFCURVE",
"311 124 CURVE SMOOTH",
"326 139 OFFCURVE",
"338 159 OFFCURVE",
"353 184 CURVE",
"460 134 LINE",
"413 37 OFFCURVE",
"337 -12 OFFCURVE",
"237 -12 CURVE SMOOTH"
);
},
{
closed = 1;
nodes = (
"261 588 LINE",
"160 746 LINE",
"234 803 LINE",
"330 688 LINE",
"467 803 LINE",
"539 746 LINE",
"384 588 LINE"
);
}
);
width = 494;
}
);
leftKerningGroup = c;
rightKerningGroup = c;
unicode = 010D;
},
{
glyphname = ccedilla;
layers = (
{
layerId = "05A52B16-A306-40FB-AA4D-96EE9622F9E6";
name = "Bold Italic";
paths = (
{
closed = 1;
nodes = (
"359 537 OFFCURVE",
"404 524 OFFCURVE",
"437 500 CURVE SMOOTH",
"469 476 OFFCURVE",
"491 442 OFFCURVE",
"498 401 CURVE",
"380 356 LINE",
"368 397 OFFCURVE",
"353 424 OFFCURVE",
"302 424 CURVE SMOOTH",
"244 424 OFFCURVE",
"208 387 OFFCURVE",
"193 314 CURVE SMOOTH",
"175 225 LINE SMOOTH",
"172 210 OFFCURVE",
"170 196 OFFCURVE",
"170 183 CURVE SMOOTH",
"170 134 OFFCURVE",
"193 101 OFFCURVE",
"249 101 CURVE SMOOTH",
"276 101 OFFCURVE",
"295 109 OFFCURVE",
"311 124 CURVE SMOOTH",
"326 139 OFFCURVE",
"338 159 OFFCURVE",
"353 184 CURVE",
"460 134 LINE",
"417 46 OFFCURVE",
"352 -2 OFFCURVE",
"265 -10 CURVE",
"247 -55 LINE",
"249 -59 LINE",
"264 -54 OFFCURVE",
"278 -52 OFFCURVE",
"292 -52 CURVE SMOOTH",
"327 -52 OFFCURVE",
"354 -73 OFFCURVE",
"354 -108 CURVE SMOOTH",
"354 -143 OFFCURVE",
"338 -169 OFFCURVE",
"312 -186 CURVE SMOOTH",
"286 -203 OFFCURVE",
"250 -212 OFFCURVE",
"210 -212 CURVE SMOOTH",
"154 -212 OFFCURVE",
"116 -191 OFFCURVE",
"99 -166 CURVE",
"151 -114 LINE",
"159 -126 OFFCURVE",
"180 -142 OFFCURVE",
"209 -142 CURVE SMOOTH",
"237 -142 OFFCURVE",
"259 -134 OFFCURVE",
"259 -111 CURVE SMOOTH",
"259 -103 OFFCURVE",
"254 -96 OFFCURVE",
"245 -89 CURVE SMOOTH",
"236 -82 OFFCURVE",
"218 -78 OFFCURVE",
"193 -75 CURVE SMOOTH",
"171 -73 LINE",
"198 -9 LINE",
"150 -2 OFFCURVE",
"109 18 OFFCURVE",
"79 54 CURVE SMOOTH",
"49 90 OFFCURVE",
"31 143 OFFCURVE",
"31 215 CURVE SMOOTH",
"31 308 OFFCURVE",
"61 389 OFFCURVE",
"111 446 CURVE SMOOTH",
"161 503 OFFCURVE",
"230 537 OFFCURVE",
"310 537 CURVE SMOOTH"
);
}
);
width = 494;
}
);
leftKerningGroup = c;
rightKerningGroup = c;
unicode = 00E7;
},
{
glyphname = ccircumflex;
layers = (
{
layerId = "05A52B16-A306-40FB-AA4D-96EE9622F9E6";
name = "Bold Italic";
paths = (
{
closed = 1;
nodes = (
"180 -12 OFFCURVE",
"128 4 OFFCURVE",
"91 41 CURVE SMOOTH",
"54 77 OFFCURVE",
"31 134 OFFCURVE",
"31 215 CURVE SMOOTH",
"31 308 OFFCURVE",
"61 389 OFFCURVE",
"111 446 CURVE SMOOTH",
"161 503 OFFCURVE",
"230 537 OFFCURVE",
"310 537 CURVE SMOOTH",
"359 537 OFFCURVE",
"404 524 OFFCURVE",
"437 500 CURVE SMOOTH",
"469 476 OFFCURVE",
"491 442 OFFCURVE",
"498 401 CURVE",
"380 356 LINE",
"368 397 OFFCURVE",
"353 424 OFFCURVE",
"302 424 CURVE SMOOTH",
"244 424 OFFCURVE",
"208 387 OFFCURVE",
"193 314 CURVE SMOOTH",
"175 225 LINE SMOOTH",
"172 210 OFFCURVE",
"170 196 OFFCURVE",
"170 183 CURVE SMOOTH",
"170 134 OFFCURVE",
"193 101 OFFCURVE",
"249 101 CURVE SMOOTH",
"276 101 OFFCURVE",
"295 109 OFFCURVE",
"311 124 CURVE SMOOTH",
"326 139 OFFCURVE",
"338 159 OFFCURVE",
"353 184 CURVE",
"460 134 LINE",
"413 37 OFFCURVE",
"337 -12 OFFCURVE",
"237 -12 CURVE SMOOTH"
);
},
{
closed = 1;
nodes = (
"416 794 LINE",
"516 636 LINE",
"441 579 LINE",
"342 694 LINE",
"208 579 LINE",
"138 636 LINE",
"294 794 LINE"
);
}
);
width = 494;
}
);
leftKerningGroup = c;
rightKerningGroup = c;
unicode = 0109;
},
{
glyphname = cdotaccent;
layers = (
{
layerId = "05A52B16-A306-40FB-AA4D-96EE9622F9E6";
name = "Bold Italic";
paths = (
{
closed = 1;
nodes = (
"180 -12 OFFCURVE",
"128 4 OFFCURVE",
"91 41 CURVE SMOOTH",
"54 77 OFFCURVE",
"31 134 OFFCURVE",
"31 215 CURVE SMOOTH",
"31 308 OFFCURVE",
"61 389 OFFCURVE",
"111 446 CURVE SMOOTH",
"161 503 OFFCURVE",
"230 537 OFFCURVE",
"310 537 CURVE SMOOTH",
"359 537 OFFCURVE",
"404 524 OFFCURVE",
"437 500 CURVE SMOOTH",
"469 476 OFFCURVE",
"491 442 OFFCURVE",
"498 401 CURVE",
"380 356 LINE",
"368 397 OFFCURVE",
"353 424 OFFCURVE",
"302 424 CURVE SMOOTH",
"244 424 OFFCURVE",
"208 387 OFFCURVE",
"193 314 CURVE SMOOTH",
"175 225 LINE SMOOTH",
"172 210 OFFCURVE",
"170 196 OFFCURVE",
"170 183 CURVE SMOOTH",
"170 134 OFFCURVE",
"193 101 OFFCURVE",
"249 101 CURVE SMOOTH",
"276 101 OFFCURVE",
"295 109 OFFCURVE",
"311 124 CURVE SMOOTH",
"326 139 OFFCURVE",
"338 159 OFFCURVE",
"353 184 CURVE",
"460 134 LINE",
"413 37 OFFCURVE",
"337 -12 OFFCURVE",
"237 -12 CURVE SMOOTH"
);
},
{
closed = 1;
nodes = (
"270 591 OFFCURVE",
"251 615 OFFCURVE",
"251 650 CURVE SMOOTH",
"251 654 OFFCURVE",
"252 659 OFFCURVE",
"253 664 CURVE SMOOTH",
"254 669 OFFCURVE",
"255 678 OFFCURVE",
"258 692 CURVE SMOOTH",
"265 731 OFFCURVE",
"288 759 OFFCURVE",
"352 759 CURVE SMOOTH",
"409 759 OFFCURVE",
"428 735 OFFCURVE",
"428 700 CURVE SMOOTH",
"428 696 OFFCURVE",
"428 692 OFFCURVE",
"427 687 CURVE SMOOTH",
"426 682 OFFCURVE",
"424 672 OFFCURVE",
"421 658 CURVE SMOOTH",
"414 619 OFFCURVE",
"391 591 OFFCURVE",
"327 591 CURVE SMOOTH"
);
}
);
width = 494;
}
);
leftKerningGroup = c;
rightKerningGroup = c;
unicode = 010B;
},
